G04 DipTrace 3.3.1.1*
G04 Bottom.gbr*
%MOIN*%
G04 #@! TF.FileFunction,Copper,L2,Bot*
G04 #@! TF.Part,Single*
%AMOUTLINE0*
4,1,8,
-0.019685,-0.029528,
-0.009843,-0.03937,
0.009843,-0.03937,
0.019685,-0.029528,
0.019685,0.029528,
0.009843,0.03937,
-0.009843,0.03937,
-0.019685,0.029528,
-0.019685,-0.029528,
0*%
G04 #@! TA.AperFunction,Conductor*
%ADD14C,0.027559*%
%ADD16C,0.011811*%
%ADD19C,0.01*%
G04 #@! TA.AperFunction,CopperBalancing*
%ADD20C,0.04*%
%ADD21C,0.012992*%
G04 #@! TA.AperFunction,ComponentPad*
%ADD33O,0.062992X0.137795*%
%ADD34O,0.137795X0.062992*%
%ADD35R,0.059055X0.059055*%
%ADD36C,0.059055*%
%ADD37C,0.065*%
%ADD38C,0.12*%
%ADD39C,0.059055*%
%ADD40O,0.03937X0.07874*%
%ADD96OUTLINE0*%
%FSLAX26Y26*%
G04*
G70*
G90*
G75*
G01*
G04 Bottom*
%LPD*%
X930374Y1165164D2*
D14*
X1241434D1*
X1449945Y956654D1*
X1583618Y2137304D2*
Y2343660D1*
X1625934Y2385976D1*
X1632782D1*
X1436673Y1602927D2*
X1490829D1*
X1558268Y1535488D1*
X2124307Y2663585D2*
Y2790092D1*
X2179820Y2845605D1*
Y3619098D1*
X2224307Y3663585D1*
X1227056Y1556417D2*
X1423253Y1752614D1*
Y2355797D1*
X1880710Y4027344D2*
Y3895702D1*
X2008412D1*
X2224307Y3679807D1*
Y3663585D1*
X529993Y1091390D2*
X450988D1*
Y891390D1*
X529993D1*
X1341378Y824403D2*
X1330971D1*
Y533756D1*
X2182782Y1885976D2*
X2282782D1*
X2124307Y3663585D2*
Y3679881D1*
X2070097Y3734091D1*
X1973483D1*
X1827205Y3880369D1*
Y3932814D1*
X3802707Y3454879D2*
X3299058D1*
Y3464675D1*
X2182782Y1871337D2*
D16*
Y1885976D1*
X1824307Y2663585D2*
D14*
X1724307D1*
X450988Y1091390D2*
Y1291390D1*
X529993D1*
Y891390D2*
X629993D1*
X529993Y1091390D2*
X629993D1*
X529993Y1291390D2*
X629993D1*
X1232783Y2198184D2*
X1242715D1*
Y1973912D1*
X1202110Y1933307D1*
X1138903D1*
X1144269D1*
Y1568927D1*
X1111602Y2830861D2*
D19*
X1110134Y2829392D1*
X1094126D1*
X1035455Y2770722D1*
Y2560395D1*
Y2435766D1*
X727169Y2127480D1*
X461720D1*
Y2130322D1*
X727169Y2127480D2*
X1055168D1*
Y1915706D1*
X1138903D1*
Y1933307D1*
X3526504Y2816526D2*
X3384168D1*
Y2322559D1*
X3379789D1*
X1324478Y3155312D2*
D14*
X1561186D1*
Y3218157D1*
X1797186D1*
X1027328Y2560395D2*
D19*
X1035455D1*
X1989820Y1418682D2*
D14*
X2239352D1*
X1412671Y506063D2*
X1981252D1*
X2052526Y577337D1*
Y623143D1*
X2042591D1*
X629993Y1491390D2*
X939546D1*
X1089356Y1341580D1*
X1168966D1*
X1583295Y927251D1*
Y686613D1*
X1646765Y623143D1*
X1642591D1*
X3007990Y2054248D2*
D19*
X3224034Y2270293D1*
X3534906D1*
X3703954Y3052639D2*
X3889668D1*
X4012579Y3175550D1*
Y3311866D1*
X1534213Y4116587D2*
Y3831537D1*
X1529430D1*
X3183525Y2812178D2*
X3179052D1*
Y2746109D1*
X3084915Y2651971D1*
Y2240938D1*
X2832782Y1988806D1*
Y1785976D1*
X3084961Y2715176D2*
X2985677D1*
Y2233650D1*
X2732782Y1980755D1*
Y1785976D1*
X1824307Y3663585D2*
X1821206D1*
X1874965Y3609827D1*
Y2612125D1*
X1881239D1*
Y2155612D1*
X1783226Y2057598D1*
Y1726287D1*
X1824122Y1685391D1*
X2242799D1*
X2195455Y4000289D2*
X2408222Y3787522D1*
Y2461416D1*
X2332782Y2385976D1*
X2229980Y4084080D2*
X2445438Y3868622D1*
Y2385976D1*
X2432782D1*
X4128105Y2659029D2*
X3713619D1*
X2732782Y2385976D2*
Y3511949D1*
X2823606Y3602773D1*
X2822392D1*
X2851916Y3632297D1*
Y3971329D1*
X2963912Y4083324D1*
Y4122690D1*
X3132782Y1785976D2*
Y1699852D1*
X3130026Y1697096D1*
Y1631055D1*
X3532782Y1785976D2*
Y1642546D1*
X3475508Y1585272D1*
X1587486D1*
X1481951Y1690806D1*
Y2927513D1*
X1690277Y3135839D1*
Y3533925D2*
X1286301D1*
X889941Y3930285D1*
X561312D1*
X508434Y3983163D1*
X3632782Y1785976D2*
X3585281Y1833478D1*
X3100282D1*
X3080282Y1813478D1*
Y1691056D1*
X3020787Y1631562D1*
X1602293D1*
X1516979Y1716875D1*
Y2868936D1*
X1740500Y3092457D1*
X3179175Y2041558D2*
X3041251Y1903634D1*
X2951211D1*
Y1901445D1*
X1831001Y726022D2*
X2546230D1*
X3796152Y3279109D2*
Y3265547D1*
X3457576D1*
X3027245Y2790575D2*
X2936046D1*
Y2385976D1*
X2932782D1*
X3932782Y1785976D2*
X3936848D1*
Y1974278D1*
X3584783Y2326343D1*
Y2895920D1*
X3366839Y3113865D1*
X3246633D1*
X3102833Y3257663D1*
Y3496953D2*
X3099058D1*
Y3664675D1*
X2284013Y3244629D2*
X2292192D1*
Y2598017D1*
X2132782Y2438608D1*
Y2385976D1*
X2333471Y3288634D2*
X2338165D1*
Y2562657D1*
X2230892Y2455385D1*
Y2385976D1*
X2232782D1*
X2370660Y3342465D2*
Y2522907D1*
X2285290Y2437537D1*
Y2341210D1*
X2277633Y2333552D1*
X1985206D1*
X1932782Y2385976D1*
X529993Y1491390D2*
D14*
X500077D1*
X443437Y1548030D1*
Y1626756D1*
X486382Y1669701D1*
X844463D1*
X1105640Y1408524D1*
X1199724D1*
X1692591Y915657D1*
Y823143D1*
X2577306Y2328860D2*
D19*
X2580282Y2331836D1*
Y4009215D1*
X2793757Y4222690D1*
X2863913D1*
X2963912D2*
X2915546Y4271056D1*
X2754887D1*
X2532782Y4048951D1*
Y2385976D1*
X2632782D2*
Y3990633D1*
X2812340Y4170190D1*
X3011412D1*
X3063912Y4222690D1*
Y4122690D2*
Y3867878D1*
X3145862Y3785928D1*
Y3631983D1*
X3142154Y3628274D1*
Y3471114D1*
X2832782Y3161743D1*
Y2385976D1*
X4013209Y1708878D2*
Y1703647D1*
X4208438D1*
X2485596Y3876406D2*
X2483982D1*
Y2098194D1*
X2362067Y1976280D1*
X2046562D1*
X2034346Y1964064D1*
Y1956231D1*
X2032782D1*
Y1785976D1*
X3913912Y4122690D2*
X3913196Y4121974D1*
Y4016949D1*
X3623988Y3727741D1*
X3368148Y3589571D2*
X3321276D1*
X2880282Y3148577D1*
Y2255066D1*
X2484052Y1858836D1*
Y1748496D1*
X2474030Y1738474D1*
X2180285D1*
X2132782Y1785976D1*
X3609332Y3810018D2*
X3647045D1*
X3806451Y3969425D1*
Y4045684D1*
X3807238Y4046470D1*
Y4122690D1*
X3813912D1*
X2682127Y3600873D2*
X2682841D1*
Y2192213D1*
X2486663Y1996034D1*
Y1997843D1*
X2323829Y1835009D1*
X2296690D1*
X2232782Y1771101D1*
Y1785976D1*
X3232782D2*
Y1699852D1*
X3230026Y1697096D1*
Y1631055D1*
X3332782Y1785976D2*
Y1699852D1*
X3330026Y1697096D1*
Y1631055D1*
X3432782Y1785976D2*
Y1699852D1*
X3430026Y1697096D1*
Y1631055D1*
X3167522Y2508673D2*
X3132782Y2473933D1*
Y2385976D1*
X3271798Y2507542D2*
X3232782Y2468526D1*
Y2385976D1*
X608434Y3683163D2*
X601814D1*
Y3542661D1*
X591945Y3532793D1*
X956434Y1826605D2*
Y1667668D1*
D20*
X1583618Y2137304D3*
X1558268Y1535488D3*
X1330971Y533756D3*
X1144269Y1568927D3*
X2239352Y1418682D3*
X3007990Y2054248D3*
X3534906Y2270293D3*
X3703954Y3052639D3*
X4012579Y3311866D3*
X2242799Y1685391D3*
X2195455Y4000289D3*
X4128105Y2659029D3*
X3713619D3*
X1690277Y3135839D3*
Y3533925D3*
X1740500Y3092457D3*
X3179175Y2041558D3*
X2951211Y1901445D3*
X1831001Y726022D3*
X2546230D3*
X3457576Y3265547D3*
X3027245Y2790575D3*
X3102833Y3257663D3*
Y3496953D3*
X4208438Y1703647D3*
X3623988Y3727741D3*
X3368148Y3589571D3*
X591945Y3532793D3*
X956434Y1826605D3*
Y1667668D3*
X896003Y1290768D3*
X1432719Y1663315D3*
X1827205Y3932814D3*
X2233972Y3116260D3*
X3066167Y3124436D3*
X3112280Y3948705D3*
X2908677D3*
X1994016Y3131024D3*
X1715664Y2121454D3*
X3298778Y1488957D3*
X4244016Y1381024D3*
X3649052Y2897134D3*
X3899138Y2141963D3*
X2919508Y1999008D3*
X1171293Y2557890D3*
X1333585Y2196202D3*
X3379789Y2322559D3*
X2572738Y4211054D3*
X3488391Y4119993D3*
X3930692Y3801496D3*
X4207571Y1957205D3*
X2343840Y2173013D3*
X3463050Y2088736D3*
X3526504Y2816526D3*
X1797186Y3218157D3*
X1027328Y2560395D3*
X634795Y2637457D3*
X1015287Y3321379D3*
X2884942Y1393411D3*
X3399307Y1170009D3*
X4222227Y1102270D3*
X1989820Y1418682D3*
X1341378Y824403D3*
X1025336Y849564D3*
X3903241Y3193339D3*
X2507484Y4212793D3*
X3802707Y3454879D3*
X930374Y1165164D3*
X1436673Y1602927D3*
X1227056Y1556417D3*
X1423253Y2355797D3*
X1880710Y4027344D3*
X3183525Y2812178D3*
X3084961Y2715176D3*
X2229980Y4084080D3*
X3796152Y3279109D3*
X2284013Y3244629D3*
X2333471Y3288634D3*
X2370660Y3342465D3*
X2577306Y2328860D3*
X4013209Y1708878D3*
X2485596Y3876406D3*
X3609332Y3810018D3*
X2682127Y3600873D3*
X1618911Y1491669D2*
X4268026D1*
X1593146Y1451801D2*
X4268349D1*
X1612236Y1411932D2*
X4268709D1*
X1612846Y1372063D2*
X4269067D1*
X1605740Y1332194D2*
X3714262D1*
X3860021D2*
X4269427D1*
X1548958Y1292325D2*
X3702097D1*
X3872222D2*
X4269785D1*
X1462671Y1252457D2*
X3710888D1*
X3863430D2*
X4270108D1*
X1492131Y1212588D2*
X3756857D1*
X3817462D2*
X4270467D1*
X1531999Y1172719D2*
X4270825D1*
X1571866Y1132850D2*
X4271185D1*
X1611734Y1092982D2*
X4271508D1*
X1651601Y1053113D2*
X4271866D1*
X1691469Y1013244D2*
X4272224D1*
X1731336Y973375D2*
X4272584D1*
X1759469Y933507D2*
X4272907D1*
X1942442Y893638D2*
X2042740D1*
X2342444D2*
X4273265D1*
X1461630Y853769D2*
X1513915D1*
X1974917D2*
X2010265D1*
X2374919D2*
X4273625D1*
X1461522Y813900D2*
X1513915D1*
X1980192D2*
X2004991D1*
X2380193D2*
X2699709D1*
X2948958D2*
X4273983D1*
X1461450Y774031D2*
X1513915D1*
X2603357D2*
X2686430D1*
X2962235D2*
X4274343D1*
X1461343Y734163D2*
X1513915D1*
X2621371D2*
X2693465D1*
X2955238D2*
X4274665D1*
X1461235Y694294D2*
X1513915D1*
X2614409D2*
X2730245D1*
X2918420D2*
X4275024D1*
X1461127Y654425D2*
X1522385D1*
X2024652D2*
X2060539D1*
X2424654D2*
X2808652D1*
X2944436D2*
X4275383D1*
X1461020Y614556D2*
X1554930D1*
X2030251D2*
X2054941D1*
X2430252D2*
X2789777D1*
X2963348D2*
X4129047D1*
X1460912Y574688D2*
X1569858D1*
X2015323D2*
X2069869D1*
X2415324D2*
X2792253D1*
X2960835D2*
X4095029D1*
X1460840Y534819D2*
X2819094D1*
X2934030D2*
X4082182D1*
X1460732Y494950D2*
X4083403D1*
X4091311Y480417D2*
X4088395Y490438D1*
X4086593Y499444D1*
X4085484Y508560D1*
X4085075Y517736D1*
X4085367Y526915D1*
X4086361Y536046D1*
X4088049Y545073D1*
X4090421Y553945D1*
X4093465Y562610D1*
X4097160Y571018D1*
X4101488Y579118D1*
X4106423Y586865D1*
X4111934Y594211D1*
X4117991Y601115D1*
X4124558Y607537D1*
X4131594Y613437D1*
X4139063Y618783D1*
X4146917Y623543D1*
X4155113Y627689D1*
X4163600Y631196D1*
X4172332Y634045D1*
X4181255Y636219D1*
X4190318Y637705D1*
X4199469Y638493D1*
X4208652Y638580D1*
X4217815Y637966D1*
X4226906Y636654D1*
X4235867Y634651D1*
X4244652Y631969D1*
X4253205Y628623D1*
X4261478Y624634D1*
X4269421Y620025D1*
X4279755Y612593D1*
X4271667Y1531512D1*
X3487118Y1529881D1*
X3479949Y1528846D1*
X3457135Y1528672D1*
X2775787Y1528416D1*
X1629255Y1526054D1*
X1627890Y1518773D1*
X1624417Y1508088D1*
X1619316Y1498077D1*
X1612713Y1488987D1*
X1604768Y1481043D1*
X1595678Y1474438D1*
X1585668Y1469339D1*
X1574983Y1465866D1*
X1571644Y1465202D1*
X1579458Y1460265D1*
X1587963Y1453000D1*
X1595228Y1444495D1*
X1601073Y1434957D1*
X1605354Y1424623D1*
X1607965Y1413745D1*
X1608843Y1402594D1*
X1608623Y1357631D1*
X1606873Y1346583D1*
X1603416Y1335945D1*
X1598339Y1325978D1*
X1591764Y1316929D1*
X1583853Y1309018D1*
X1574804Y1302444D1*
X1564837Y1297366D1*
X1554199Y1293909D1*
X1543151Y1292159D1*
X1531965D1*
X1520916Y1293909D1*
X1515845Y1295340D1*
X1509446Y1293365D1*
X1501449Y1292098D1*
X1477715Y1291940D1*
X1469643Y1292575D1*
X1461755Y1294470D1*
X1458745Y1288395D1*
X1458627Y1242068D1*
X1738822Y961888D1*
X1745484Y954087D1*
X1750844Y945339D1*
X1754770Y935861D1*
X1757165Y925885D1*
X1757970Y915657D1*
Y899761D1*
X1766602Y903127D1*
X1772958Y904920D1*
X1779434Y906207D1*
X1785992Y906984D1*
X1792591Y907243D1*
X1799189Y906984D1*
X1805747Y906207D1*
X1812223Y904920D1*
X1818579Y903127D1*
X1824774Y900841D1*
X1830772Y898076D1*
X1836533Y894850D1*
X1842571Y890751D1*
X1848648Y894850D1*
X1854409Y898076D1*
X1860407Y900841D1*
X1866602Y903127D1*
X1872958Y904920D1*
X1879434Y906207D1*
X1885992Y906984D1*
X1892591Y907243D1*
X1899189Y906984D1*
X1905747Y906207D1*
X1912223Y904920D1*
X1918579Y903127D1*
X1924774Y900841D1*
X1930772Y898076D1*
X1936533Y894850D1*
X1942024Y891181D1*
X1947209Y887093D1*
X1952058Y882610D1*
X1956541Y877761D1*
X1960629Y872576D1*
X1964298Y867085D1*
X1967524Y861324D1*
X1970289Y855327D1*
X1972575Y849131D1*
X1974367Y842776D1*
X1975655Y836299D1*
X1976432Y829741D1*
X1976690Y823143D1*
X1976432Y816545D1*
X1975655Y809987D1*
X1974367Y803510D1*
X1972575Y797155D1*
X1970289Y790959D1*
X1966226Y782644D1*
X2018927Y782622D1*
X2014892Y790959D1*
X2012606Y797155D1*
X2010814Y803510D1*
X2009526Y809987D1*
X2008749Y816545D1*
X2008491Y823143D1*
X2008749Y829741D1*
X2009526Y836299D1*
X2010814Y842776D1*
X2012606Y849131D1*
X2014892Y855327D1*
X2017657Y861324D1*
X2020883Y867085D1*
X2024552Y872576D1*
X2028640Y877761D1*
X2033123Y882610D1*
X2037972Y887093D1*
X2043157Y891181D1*
X2048648Y894850D1*
X2054409Y898076D1*
X2060407Y900841D1*
X2066602Y903127D1*
X2072958Y904920D1*
X2079434Y906207D1*
X2085992Y906984D1*
X2092591Y907243D1*
X2099189Y906984D1*
X2105747Y906207D1*
X2112223Y904920D1*
X2118579Y903127D1*
X2124774Y900841D1*
X2130772Y898076D1*
X2136533Y894850D1*
X2142571Y890751D1*
X2148648Y894850D1*
X2154409Y898076D1*
X2160407Y900841D1*
X2166602Y903127D1*
X2172958Y904920D1*
X2179434Y906207D1*
X2185992Y906984D1*
X2192591Y907243D1*
X2199189Y906984D1*
X2205747Y906207D1*
X2212223Y904920D1*
X2218579Y903127D1*
X2224774Y900841D1*
X2230772Y898076D1*
X2236533Y894850D1*
X2242571Y890751D1*
X2248648Y894850D1*
X2254409Y898076D1*
X2260407Y900841D1*
X2266602Y903127D1*
X2272958Y904920D1*
X2279434Y906207D1*
X2285992Y906984D1*
X2292591Y907243D1*
X2299189Y906984D1*
X2305747Y906207D1*
X2312223Y904920D1*
X2318579Y903127D1*
X2324774Y900841D1*
X2330772Y898076D1*
X2336533Y894850D1*
X2342024Y891181D1*
X2347209Y887093D1*
X2352058Y882610D1*
X2356541Y877761D1*
X2360629Y872576D1*
X2364298Y867085D1*
X2367524Y861324D1*
X2370289Y855327D1*
X2372575Y849131D1*
X2374367Y842776D1*
X2375655Y836299D1*
X2376432Y829741D1*
X2376690Y823143D1*
X2376432Y816545D1*
X2375655Y809987D1*
X2374367Y803510D1*
X2372575Y797155D1*
X2370289Y790959D1*
X2366226Y782644D1*
X2502358Y782622D1*
X2508819Y787071D1*
X2518829Y792172D1*
X2529514Y795644D1*
X2540612Y797402D1*
X2551848D1*
X2562945Y795644D1*
X2573630Y792172D1*
X2583640Y787071D1*
X2592730Y780467D1*
X2600675Y772522D1*
X2607278Y763433D1*
X2612379Y753423D1*
X2615852Y742738D1*
X2617609Y731640D1*
Y720404D1*
X2615852Y709307D1*
X2612379Y698622D1*
X2607278Y688612D1*
X2600675Y679522D1*
X2592730Y671577D1*
X2583640Y664974D1*
X2573630Y659873D1*
X2562945Y656400D1*
X2551848Y654643D1*
X2540612D1*
X2529514Y656400D1*
X2518829Y659873D1*
X2508819Y664974D1*
X2502471Y669416D1*
X2412777Y669423D1*
X2417524Y661324D1*
X2420289Y655327D1*
X2422575Y649131D1*
X2424367Y642776D1*
X2425655Y636299D1*
X2426432Y629741D1*
X2426690Y623143D1*
X2426432Y616545D1*
X2425655Y609987D1*
X2424367Y603510D1*
X2422575Y597155D1*
X2420289Y590959D1*
X2417524Y584962D1*
X2414298Y579201D1*
X2410629Y573710D1*
X2406541Y568525D1*
X2402058Y563676D1*
X2397209Y559193D1*
X2392024Y555105D1*
X2386533Y551436D1*
X2380772Y548210D1*
X2374774Y545445D1*
X2368579Y543159D1*
X2362223Y541366D1*
X2355747Y540079D1*
X2349189Y539302D1*
X2342591Y539043D1*
X2335992Y539302D1*
X2329434Y540079D1*
X2322958Y541366D1*
X2316602Y543159D1*
X2310407Y545445D1*
X2304409Y548210D1*
X2298648Y551436D1*
X2292610Y555535D1*
X2286533Y551436D1*
X2280772Y548210D1*
X2274774Y545445D1*
X2268579Y543159D1*
X2262223Y541366D1*
X2255747Y540079D1*
X2249189Y539302D1*
X2242591Y539043D1*
X2235992Y539302D1*
X2229434Y540079D1*
X2222958Y541366D1*
X2216602Y543159D1*
X2210407Y545445D1*
X2204409Y548210D1*
X2198648Y551436D1*
X2192610Y555535D1*
X2186533Y551436D1*
X2180772Y548210D1*
X2174774Y545445D1*
X2168579Y543159D1*
X2162223Y541366D1*
X2155747Y540079D1*
X2149189Y539302D1*
X2142591Y539043D1*
X2135992Y539302D1*
X2129434Y540079D1*
X2122958Y541366D1*
X2116602Y543159D1*
X2110407Y545445D1*
X2104409Y548210D1*
X2098648Y551436D1*
X2093157Y555105D1*
X2087972Y559193D1*
X2083123Y563676D1*
X2078640Y568525D1*
X2074552Y573710D1*
X2070883Y579201D1*
X2067657Y584962D1*
X2064892Y590959D1*
X2062606Y597155D1*
X2060814Y603510D1*
X2059526Y609987D1*
X2058749Y616545D1*
X2058491Y623143D1*
X2058749Y629741D1*
X2059526Y636299D1*
X2060814Y642776D1*
X2062606Y649131D1*
X2064892Y655327D1*
X2067657Y661324D1*
X2072446Y669423D1*
X2012811D1*
X2017524Y661324D1*
X2020289Y655327D1*
X2022575Y649131D1*
X2024367Y642776D1*
X2025655Y636299D1*
X2026432Y629741D1*
X2026690Y623143D1*
X2026432Y616545D1*
X2025655Y609987D1*
X2024367Y603510D1*
X2022575Y597155D1*
X2020289Y590959D1*
X2017524Y584962D1*
X2014298Y579201D1*
X2010629Y573710D1*
X2006541Y568525D1*
X2002058Y563676D1*
X1997209Y559193D1*
X1992024Y555105D1*
X1986533Y551436D1*
X1980772Y548210D1*
X1974774Y545445D1*
X1968579Y543159D1*
X1962223Y541366D1*
X1955747Y540079D1*
X1949189Y539302D1*
X1942591Y539043D1*
X1935992Y539302D1*
X1929434Y540079D1*
X1922958Y541366D1*
X1916602Y543159D1*
X1910407Y545445D1*
X1904409Y548210D1*
X1898648Y551436D1*
X1892610Y555535D1*
X1886533Y551436D1*
X1880772Y548210D1*
X1874774Y545445D1*
X1868579Y543159D1*
X1862223Y541366D1*
X1855747Y540079D1*
X1849189Y539302D1*
X1842591Y539043D1*
X1835992Y539302D1*
X1829434Y540079D1*
X1822958Y541366D1*
X1816602Y543159D1*
X1810407Y545445D1*
X1804409Y548210D1*
X1798648Y551436D1*
X1792610Y555535D1*
X1786533Y551436D1*
X1780772Y548210D1*
X1774774Y545445D1*
X1768579Y543159D1*
X1762223Y541366D1*
X1755747Y540079D1*
X1749189Y539302D1*
X1742591Y539043D1*
X1735992Y539302D1*
X1729434Y540079D1*
X1722958Y541366D1*
X1716602Y543159D1*
X1710407Y545445D1*
X1704409Y548210D1*
X1698648Y551436D1*
X1692610Y555535D1*
X1686533Y551436D1*
X1680772Y548210D1*
X1674774Y545445D1*
X1668579Y543159D1*
X1662223Y541366D1*
X1655747Y540079D1*
X1649189Y539302D1*
X1642591Y539043D1*
X1635992Y539302D1*
X1629434Y540079D1*
X1622958Y541366D1*
X1616602Y543159D1*
X1610407Y545445D1*
X1604409Y548210D1*
X1598648Y551436D1*
X1593157Y555105D1*
X1587972Y559193D1*
X1583123Y563676D1*
X1578640Y568525D1*
X1574552Y573710D1*
X1570883Y579201D1*
X1567657Y584962D1*
X1564892Y590959D1*
X1562606Y597155D1*
X1560814Y603510D1*
X1559526Y609987D1*
X1558661Y618787D1*
X1533580Y644152D1*
X1527550Y652451D1*
X1522892Y661593D1*
X1519722Y671350D1*
X1518117Y681483D1*
X1517916Y704986D1*
Y900160D1*
X1514862Y903223D1*
X1509412Y897186D1*
X1504563Y892703D1*
X1499378Y888615D1*
X1493887Y884946D1*
X1488126Y881720D1*
X1482129Y878955D1*
X1475933Y876669D1*
X1469577Y874877D1*
X1463101Y873589D1*
X1457696Y872949D1*
X1456694Y484484D1*
X4091276Y480442D1*
X2960392Y593138D2*
X2959615Y586580D1*
X2958328Y580104D1*
X2956535Y573748D1*
X2954249Y567552D1*
X2951484Y561555D1*
X2948259Y555794D1*
X2944589Y550303D1*
X2940501Y545118D1*
X2936018Y540269D1*
X2931169Y535786D1*
X2925984Y531698D1*
X2920493Y528029D1*
X2914732Y524803D1*
X2908735Y522038D1*
X2902539Y519752D1*
X2896184Y517959D1*
X2889707Y516672D1*
X2883150Y515895D1*
X2876551Y515636D1*
X2869953Y515895D1*
X2863395Y516672D1*
X2856919Y517959D1*
X2850563Y519752D1*
X2844367Y522038D1*
X2838370Y524803D1*
X2832609Y528029D1*
X2827118Y531698D1*
X2821933Y535786D1*
X2817084Y540269D1*
X2812601Y545118D1*
X2808513Y550303D1*
X2804844Y555794D1*
X2801618Y561555D1*
X2798853Y567552D1*
X2796567Y573748D1*
X2794774Y580104D1*
X2793487Y586580D1*
X2792710Y593138D1*
X2792451Y599736D1*
X2792710Y606335D1*
X2793487Y612892D1*
X2794774Y619369D1*
X2796567Y625724D1*
X2798853Y631920D1*
X2801618Y637917D1*
X2804844Y643678D1*
X2808513Y649169D1*
X2812601Y654354D1*
X2817084Y659203D1*
X2821933Y663686D1*
X2827118Y667774D1*
X2832609Y671444D1*
X2838370Y674669D1*
X2844367Y677434D1*
X2850563Y679720D1*
X2856919Y681513D1*
X2863395Y682801D1*
X2869953Y683577D1*
X2876551Y683836D1*
X2883150Y683577D1*
X2889707Y682801D1*
X2896184Y681513D1*
X2902539Y679720D1*
X2908735Y677434D1*
X2914732Y674669D1*
X2920493Y671444D1*
X2925984Y667774D1*
X2931169Y663686D1*
X2936018Y659203D1*
X2940501Y654354D1*
X2944589Y649169D1*
X2948259Y643678D1*
X2951484Y637917D1*
X2954249Y631920D1*
X2956535Y625724D1*
X2958328Y619369D1*
X2959615Y612892D1*
X2960392Y606335D1*
X2960651Y599736D1*
X2960392Y593138D1*
X2824318Y700625D2*
X2818280Y696525D1*
X2812518Y693299D1*
X2806521Y690534D1*
X2800325Y688248D1*
X2793970Y686455D1*
X2787493Y685168D1*
X2780936Y684391D1*
X2774337Y684133D1*
X2767739Y684391D1*
X2761181Y685168D1*
X2754705Y686455D1*
X2748349Y688248D1*
X2742154Y690534D1*
X2736156Y693299D1*
X2730395Y696525D1*
X2724904Y700194D1*
X2719719Y704282D1*
X2714870Y708765D1*
X2710387Y713614D1*
X2706299Y718799D1*
X2702630Y724290D1*
X2699404Y730051D1*
X2696639Y736049D1*
X2694353Y742244D1*
X2692560Y748600D1*
X2691273Y755076D1*
X2690496Y761634D1*
X2690238Y768232D1*
X2690496Y774831D1*
X2691273Y781388D1*
X2692560Y787865D1*
X2694353Y794220D1*
X2696639Y800416D1*
X2699404Y806413D1*
X2702630Y812175D1*
X2706299Y817665D1*
X2710387Y822850D1*
X2714870Y827699D1*
X2719719Y832182D1*
X2724904Y836270D1*
X2730395Y839940D1*
X2736156Y843165D1*
X2742154Y845930D1*
X2748349Y848217D1*
X2754705Y850009D1*
X2761181Y851297D1*
X2767739Y852073D1*
X2774337Y852332D1*
X2780936Y852073D1*
X2787493Y851297D1*
X2793970Y850009D1*
X2800325Y848217D1*
X2806521Y845930D1*
X2812518Y843165D1*
X2818280Y839940D1*
X2824318Y835840D1*
X2830395Y839940D1*
X2836156Y843165D1*
X2842154Y845930D1*
X2848349Y848217D1*
X2854705Y850009D1*
X2861181Y851297D1*
X2867739Y852073D1*
X2874337Y852332D1*
X2880936Y852073D1*
X2887493Y851297D1*
X2893970Y850009D1*
X2900325Y848217D1*
X2906521Y845930D1*
X2912518Y843165D1*
X2918280Y839940D1*
X2923770Y836270D1*
X2928955Y832182D1*
X2933804Y827699D1*
X2938287Y822850D1*
X2942375Y817665D1*
X2946045Y812175D1*
X2949270Y806413D1*
X2952035Y800416D1*
X2954322Y794220D1*
X2956114Y787865D1*
X2957402Y781388D1*
X2958178Y774831D1*
X2958437Y768232D1*
X2958178Y761634D1*
X2957402Y755076D1*
X2956114Y748600D1*
X2954322Y742244D1*
X2952035Y736049D1*
X2949270Y730051D1*
X2946045Y724290D1*
X2942375Y718799D1*
X2938287Y713614D1*
X2933804Y708765D1*
X2928955Y704282D1*
X2923770Y700194D1*
X2918280Y696525D1*
X2912518Y693299D1*
X2906521Y690534D1*
X2900325Y688248D1*
X2893970Y686455D1*
X2887493Y685168D1*
X2880936Y684391D1*
X2874337Y684133D1*
X2867739Y684391D1*
X2861181Y685168D1*
X2854705Y686455D1*
X2848349Y688248D1*
X2842154Y690534D1*
X2836156Y693299D1*
X2830395Y696525D1*
X2824357Y700625D1*
X3868035Y1282967D2*
X3867287Y1276640D1*
X3866045Y1270392D1*
X3864315Y1264262D1*
X3862110Y1258286D1*
X3859444Y1252501D1*
X3856331Y1246942D1*
X3852793Y1241646D1*
X3848848Y1236644D1*
X3844525Y1231966D1*
X3839846Y1227642D1*
X3834844Y1223698D1*
X3829547Y1220159D1*
X3823990Y1217047D1*
X3818205Y1214379D1*
X3812228Y1212175D1*
X3806097Y1210446D1*
X3799849Y1209203D1*
X3793524Y1208454D1*
X3787159Y1208205D1*
X3780793Y1208454D1*
X3774467Y1209203D1*
X3768219Y1210446D1*
X3762089Y1212175D1*
X3756113Y1214379D1*
X3750327Y1217047D1*
X3744769Y1220159D1*
X3739472Y1223698D1*
X3734470Y1227642D1*
X3729793Y1231966D1*
X3725469Y1236644D1*
X3721525Y1241646D1*
X3717986Y1246942D1*
X3714873Y1252501D1*
X3712206Y1258286D1*
X3710001Y1264262D1*
X3708273Y1270392D1*
X3707030Y1276640D1*
X3706281Y1282967D1*
X3706031Y1289332D1*
X3706281Y1295697D1*
X3707030Y1302024D1*
X3708273Y1308270D1*
X3710001Y1314402D1*
X3712206Y1320378D1*
X3714873Y1326163D1*
X3717986Y1331720D1*
X3721525Y1337017D1*
X3725469Y1342020D1*
X3729793Y1346698D1*
X3734470Y1351022D1*
X3739472Y1354966D1*
X3744769Y1358504D1*
X3750327Y1361617D1*
X3756113Y1364283D1*
X3762089Y1366488D1*
X3768219Y1368218D1*
X3774467Y1369461D1*
X3780793Y1370210D1*
X3787159Y1370459D1*
X3793524Y1370210D1*
X3799849Y1369461D1*
X3806097Y1368218D1*
X3812228Y1366488D1*
X3818205Y1364283D1*
X3823990Y1361617D1*
X3829547Y1358504D1*
X3834844Y1354966D1*
X3839846Y1351022D1*
X3844525Y1346698D1*
X3848848Y1342020D1*
X3852793Y1337017D1*
X3856331Y1331720D1*
X3859444Y1326163D1*
X3862110Y1320378D1*
X3864315Y1314402D1*
X3866045Y1308270D1*
X3867287Y1302024D1*
X3868035Y1295697D1*
X3868286Y1289332D1*
X3868035Y1282967D1*
X460472Y4232249D2*
X932675D1*
X1748715D2*
X2632042D1*
X3351483D2*
X3626357D1*
X4201471D2*
X4262226D1*
X460365Y4192381D2*
X936587D1*
X1747172D2*
X2592176D1*
X3346350D2*
X3631453D1*
X4196375D2*
X4262081D1*
X660025Y4152512D2*
X957399D1*
X1729589D2*
X2204913D1*
X2255041D2*
X2552308D1*
X3346530D2*
X3631273D1*
X4196555D2*
X4261938D1*
X691209Y4112643D2*
X977387D1*
X1695033D2*
X2160308D1*
X2299646D2*
X2512441D1*
X3351411D2*
X3626429D1*
X4201399D2*
X4261795D1*
X695873Y4072774D2*
X944014D1*
X1734648D2*
X1821383D1*
X1940050D2*
X2155285D1*
X2325339D2*
X2477454D1*
X3335585D2*
X3642218D1*
X4185610D2*
X4261651D1*
X680264Y4032906D2*
X932747D1*
X1748608D2*
X1805343D1*
X1956091D2*
X2127726D1*
X2365206D2*
X2472178D1*
X3124514D2*
X3745852D1*
X3973786D2*
X4261508D1*
X695945Y3993037D2*
X936407D1*
X1747316D2*
X1811336D1*
X1950097D2*
X2120227D1*
X2405073D2*
X2472178D1*
X2957654D2*
X3003301D1*
X3124514D2*
X3745852D1*
X3968510D2*
X4261364D1*
X1730055Y3953168D2*
X1811336D1*
X2043576D2*
X2137559D1*
X2444940D2*
X2472178D1*
X2917786D2*
X3003301D1*
X3124514D2*
X3706164D1*
X3933453D2*
X4261220D1*
X990984Y3913299D2*
X1023570D1*
X1072227D2*
X1102874D1*
X1196314D2*
X1223588D1*
X1272245D2*
X1387938D1*
X1680463D2*
X1811336D1*
X2087282D2*
X2198419D1*
X2912512D2*
X3003301D1*
X3124514D2*
X3666297D1*
X3893585D2*
X4261077D1*
X695980Y3873430D2*
X862736D1*
X1030852D2*
X1069861D1*
X1229328D2*
X1455974D1*
X1602917D2*
X1815247D1*
X2127150D2*
X2238285D1*
X2912512D2*
X3003301D1*
X3142421D2*
X3572101D1*
X3853718D2*
X4260933D1*
X680336Y3833562D2*
X902604D1*
X1233992D2*
X1444312D1*
X1614545D2*
X1856370D1*
X2167017D2*
X2278152D1*
X2912512D2*
X3014891D1*
X3182289D2*
X3537723D1*
X3813850D2*
X4260825D1*
X695873Y3793693D2*
X942471D1*
X1216983D2*
X1453677D1*
X1605178D2*
X2013974D1*
X2206885D2*
X2318020D1*
X2912512D2*
X3054041D1*
X3205936D2*
X3535606D1*
X3773983D2*
X4090915D1*
X4141472D2*
X4190924D1*
X691244Y3753824D2*
X982375D1*
X1150454D2*
X1502157D1*
X1556735D2*
X2053841D1*
X2246752D2*
X2347625D1*
X2912512D2*
X3085260D1*
X3206475D2*
X3553298D1*
X3734115D2*
X4039062D1*
X690706Y3713955D2*
X1022241D1*
X1190322D2*
X1652942D1*
X2295661D2*
X2347625D1*
X3371219D2*
X3549744D1*
X3698231D2*
X4028117D1*
X696052Y3674087D2*
X1062109D1*
X1230189D2*
X1636866D1*
X2311738D2*
X2347625D1*
X3386613D2*
X3572567D1*
X3675409D2*
X4037303D1*
X680837Y3634218D2*
X1101976D1*
X1270056D2*
X1641496D1*
X2307109D2*
X2347625D1*
X3428131D2*
X4030988D1*
X458858Y3594349D2*
X541214D1*
X662429D2*
X1141844D1*
X1309924D2*
X1647846D1*
X2276033D2*
X2347625D1*
X3443597D2*
X4030055D1*
X458786Y3554480D2*
X519720D1*
X664188D2*
X1181711D1*
X1762853D2*
X1814349D1*
X1935564D2*
X2110430D1*
X2249192D2*
X2347625D1*
X2859366D2*
X3038467D1*
X3434554D2*
X4039420D1*
X458678Y3514612D2*
X518680D1*
X665192D2*
X1221579D1*
X1763213D2*
X1814349D1*
X1935564D2*
X2110430D1*
X2249192D2*
X2347625D1*
X2819500D2*
X3029459D1*
X3370717D2*
X4028117D1*
X458571Y3474743D2*
X546024D1*
X637849D2*
X1645982D1*
X1734577D2*
X1814349D1*
X1935564D2*
X2110430D1*
X2249192D2*
X2347625D1*
X2793375D2*
X3030752D1*
X3386541D2*
X4036980D1*
X458463Y3434874D2*
X655327D1*
X864780D2*
X1814349D1*
X1935564D2*
X2110430D1*
X2249192D2*
X2347625D1*
X2793375D2*
X3021853D1*
X3381697D2*
X4031167D1*
X458391Y3395005D2*
X636739D1*
X883367D2*
X1814349D1*
X1935564D2*
X2110430D1*
X2249192D2*
X2318020D1*
X2793375D2*
X2981986D1*
X3381482D2*
X4029911D1*
X458283Y3355136D2*
X628808D1*
X880390D2*
X1814349D1*
X1935564D2*
X2110430D1*
X2249192D2*
X2296202D1*
X2793375D2*
X2942118D1*
X3170878D2*
X3211500D1*
X3386613D2*
X3951539D1*
X458176Y3315268D2*
X605591D1*
X852185D2*
X1260370D1*
X1384203D2*
X1814349D1*
X1935564D2*
X2110430D1*
X2793375D2*
X2902251D1*
X3149346D2*
X3227003D1*
X3371112D2*
X3402046D1*
X3861934D2*
X3937043D1*
X532134Y3275399D2*
X605411D1*
X849709D2*
X1236865D1*
X1407707D2*
X1814349D1*
X1935564D2*
X2110430D1*
X2793375D2*
X2862383D1*
X3176188D2*
X3211644D1*
X3871660D2*
X3946946D1*
X548928Y3235530D2*
X628161D1*
X826993D2*
X1236291D1*
X1408282D2*
X1814349D1*
X1935564D2*
X2110430D1*
X2793375D2*
X2822516D1*
X3856948D2*
X3951971D1*
X4154463D2*
X4177933D1*
X549681Y3195661D2*
X1091068D1*
X1132154D2*
X1246698D1*
X1402253D2*
X1646950D1*
X1733608D2*
X1814349D1*
X1935564D2*
X2110430D1*
X3011408D2*
X3063012D1*
X3381231D2*
X3438001D1*
X3477148D2*
X3948634D1*
X4073185D2*
X4258529D1*
X549681Y3155793D2*
X876301D1*
X920113D2*
X1035089D1*
X1188133D2*
X1236364D1*
X1412588D2*
X1617525D1*
X1777888D2*
X1814349D1*
X1935564D2*
X2110430D1*
X2971541D2*
X3120642D1*
X3408861D2*
X3908766D1*
X4069633D2*
X4258386D1*
X542576Y3115924D2*
X822080D1*
X974335D2*
X1023534D1*
X1199651D2*
X1246159D1*
X1402791D2*
X1586306D1*
X1935564D2*
X2110430D1*
X2940895D2*
X3160545D1*
X3448836D2*
X3666476D1*
X3741436D2*
X3868899D1*
X4037014D2*
X4258241D1*
X505400Y3076055D2*
X550400D1*
X709975D2*
X811135D1*
X985280D2*
X1032146D1*
X1191039D2*
X1238516D1*
X1410434D2*
X1546438D1*
X1935564D2*
X2110430D1*
X2940895D2*
X3200412D1*
X3488703D2*
X3632278D1*
X3997110D2*
X4258098D1*
X457495Y3036186D2*
X512902D1*
X747510D2*
X811100D1*
X985315D2*
X1025256D1*
X1197929D2*
X1239054D1*
X1409896D2*
X1506571D1*
X1788762D2*
X1814349D1*
X1935564D2*
X2110430D1*
X2940895D2*
X3215915D1*
X3528571D2*
X3630269D1*
X3957243D2*
X3998764D1*
X457387Y2996318D2*
X505904D1*
X754472D2*
X811207D1*
X985243D2*
X1026656D1*
X1196566D2*
X1262451D1*
X1386500D2*
X1466703D1*
X1728404D2*
X1814349D1*
X1935564D2*
X2110430D1*
X2940895D2*
X3217134D1*
X3568438D2*
X3655747D1*
X3899290D2*
X3984194D1*
X457280Y2956449D2*
X519541D1*
X740871D2*
X823336D1*
X973079D2*
X1029598D1*
X1193587D2*
X1429312D1*
X1688538D2*
X1814349D1*
X1935564D2*
X2110430D1*
X2940895D2*
X3211357D1*
X3386757D2*
X3440226D1*
X3608306D2*
X3990115D1*
X457172Y2916580D2*
X656976D1*
X864564D2*
X1023929D1*
X1199293D2*
X1421346D1*
X1648671D2*
X1814349D1*
X1935564D2*
X2110430D1*
X2940895D2*
X3226070D1*
X3372045D2*
X3480093D1*
X3641462D2*
X4024062D1*
X4119799D2*
X4142193D1*
X457100Y2876711D2*
X637635D1*
X883907D2*
X1037098D1*
X1186087D2*
X1421346D1*
X1608803D2*
X1814349D1*
X1935564D2*
X2110430D1*
X2940895D2*
X3148524D1*
X3386290D2*
X3519961D1*
X3645374D2*
X4257417D1*
X456992Y2836843D2*
X630673D1*
X881466D2*
X1023714D1*
X1199472D2*
X1421346D1*
X1577584D2*
X1814349D1*
X1935564D2*
X2074581D1*
X3085904D2*
X3112316D1*
X3382415D2*
X3524196D1*
X3645374D2*
X4257273D1*
X456885Y2796974D2*
X606559D1*
X854302D2*
X1030639D1*
X1192583D2*
X1421346D1*
X1577584D2*
X1814349D1*
X1935564D2*
X2055276D1*
X3380692D2*
X3428528D1*
X3645374D2*
X4257130D1*
X531990Y2757105D2*
X605878D1*
X850677D2*
X1026010D1*
X1197211D2*
X1421346D1*
X1577584D2*
X1814349D1*
X1935564D2*
X2054917D1*
X3645374D2*
X4256986D1*
X549466Y2717236D2*
X627768D1*
X828789D2*
X1025794D1*
X1197391D2*
X1421346D1*
X1577584D2*
X1655526D1*
X3372510D2*
X3397991D1*
X3645374D2*
X3667911D1*
X3759306D2*
X4082409D1*
X4173804D2*
X4256843D1*
X550399Y2677367D2*
X1048043D1*
X1175143D2*
X1421346D1*
X1577584D2*
X1637333D1*
X3386182D2*
X3418085D1*
X4201328D2*
X4256699D1*
X550399Y2637499D2*
X882975D1*
X914874D2*
X1421346D1*
X1577584D2*
X1640348D1*
X3382630D2*
X3524196D1*
X4200395D2*
X4256555D1*
X543760Y2597630D2*
X823444D1*
X974407D2*
X1421346D1*
X1577584D2*
X1668122D1*
X3353815D2*
X3524196D1*
X3645374D2*
X3672791D1*
X4008163D2*
X4087255D1*
X4168924D2*
X4256412D1*
X508092Y2557761D2*
X553307D1*
X708541D2*
X811853D1*
X985997D2*
X1421346D1*
X1577584D2*
X1820630D1*
X1941844D2*
X2167881D1*
X3343265D2*
X3524196D1*
X3645374D2*
X3752239D1*
X4027003D2*
X4256269D1*
X456202Y2517892D2*
X514122D1*
X747726D2*
X811818D1*
X986033D2*
X1421346D1*
X1577584D2*
X1820630D1*
X1941844D2*
X2128013D1*
X3359269D2*
X3524196D1*
X3645374D2*
X3756402D1*
X4024454D2*
X4256125D1*
X456094Y2478024D2*
X506550D1*
X755261D2*
X811853D1*
X985997D2*
X1421346D1*
X1577584D2*
X1820630D1*
X1941844D2*
X2088146D1*
X3354533D2*
X3524196D1*
X3645374D2*
X3786402D1*
X3997577D2*
X4255982D1*
X455987Y2438155D2*
X519541D1*
X742272D2*
X823408D1*
X974442D2*
X1421346D1*
X4002744D2*
X4255837D1*
X455916Y2398286D2*
X679656D1*
X838764D2*
X882581D1*
X915269D2*
X1104381D1*
X1219424D2*
X1361635D1*
X4019969D2*
X4255694D1*
X455808Y2358417D2*
X641941D1*
X876442D2*
X1079585D1*
X1244256D2*
X1347711D1*
X4016238D2*
X4255551D1*
X455701Y2318549D2*
X634908D1*
X883476D2*
X1078975D1*
X1244829D2*
X1353883D1*
X3987028D2*
X4255407D1*
X455593Y2278680D2*
X612625D1*
X869948D2*
X1101833D1*
X1261156D2*
X1353883D1*
X1653012D2*
X1820630D1*
X1941844D2*
X1967324D1*
X2295518D2*
X2423377D1*
X3716496D2*
X4255264D1*
X508738Y2238811D2*
X602218D1*
X851215D2*
X1155157D1*
X1310425D2*
X1353883D1*
X1653012D2*
X1820630D1*
X2219050D2*
X2423377D1*
X3756364D2*
X4255121D1*
X542719Y2198942D2*
X612193D1*
X841240D2*
X1144678D1*
X1320867D2*
X1353883D1*
X1653012D2*
X1820630D1*
X2258630D2*
X2423377D1*
X3236724D2*
X3524949D1*
X3544902D2*
X3628152D1*
X3796231D2*
X4254976D1*
X548820Y2159073D2*
X660601D1*
X792832D2*
X1154332D1*
X1311251D2*
X1353883D1*
X1655811D2*
X1800642D1*
X2266596D2*
X2423377D1*
X3196857D2*
X3668018D1*
X3836098D2*
X4254833D1*
X548820Y2119205D2*
X1199869D1*
X1265678D2*
X1353883D1*
X1656887D2*
X1760774D1*
X2254395D2*
X2420936D1*
X3156990D2*
X3707886D1*
X3875966D2*
X4254689D1*
X547707Y2079336D2*
X837259D1*
X957469D2*
X1089597D1*
X1188240D2*
X1353883D1*
X1629651D2*
X1726971D1*
X2265089D2*
X2381068D1*
X3244009D2*
X3747753D1*
X3915833D2*
X4254581D1*
X529335Y2039467D2*
X813073D1*
X981655D2*
X1058556D1*
X1219244D2*
X1353883D1*
X1577584D2*
X1722630D1*
X2263331D2*
X2341201D1*
X3254739D2*
X3787621D1*
X3955701D2*
X4254438D1*
X454911Y1999598D2*
X524672D1*
X734018D2*
X810274D1*
X984454D2*
X1053785D1*
X1224017D2*
X1353883D1*
X1577584D2*
X1722630D1*
X2927618D2*
X2957727D1*
X3241175D2*
X3827488D1*
X3991476D2*
X4254295D1*
X454803Y1959730D2*
X506012D1*
X752642D2*
X810274D1*
X984454D2*
X1053785D1*
X1224017D2*
X1353883D1*
X1577584D2*
X1722630D1*
X3181391D2*
X3867356D1*
X3997433D2*
X4254151D1*
X454696Y1919861D2*
X508991D1*
X749699D2*
X813612D1*
X981081D2*
X1053785D1*
X1224017D2*
X1353883D1*
X1577584D2*
X1722630D1*
X3141524D2*
X3876255D1*
X3997433D2*
X4254008D1*
X454623Y1879992D2*
X537123D1*
X721567D2*
X839448D1*
X1008138D2*
X1053785D1*
X1224017D2*
X1353883D1*
X1577584D2*
X1722630D1*
X3621547D2*
X3876255D1*
X3997433D2*
X4253865D1*
X454516Y1840123D2*
X882114D1*
X1030744D2*
X1353883D1*
X4001130D2*
X4253720D1*
X454408Y1800255D2*
X885846D1*
X1027013D2*
X1353883D1*
X4019646D2*
X4253577D1*
X454301Y1760386D2*
X895822D1*
X1017037D2*
X1334577D1*
X4066941D2*
X4160781D1*
X1037419Y1720517D2*
X1294711D1*
X1100360Y1680648D2*
X1254844D1*
X1112560Y1640780D2*
X1214940D1*
X1104558Y1600911D2*
X1166963D1*
X1064907Y1561042D2*
X1151605D1*
X1328152D2*
X1370175D1*
X1089451Y1521173D2*
X1160719D1*
X1293381D2*
X1370247D1*
X1129319Y1481304D2*
X1370319D1*
X1263274Y1441436D2*
X1370391D1*
X717475Y1401567D2*
X932891D1*
X1303142D2*
X1370462D1*
X712667Y1361698D2*
X972794D1*
X1343009D2*
X1370534D1*
X712381Y1321829D2*
X1012661D1*
X717547Y1281961D2*
X1058521D1*
X702117Y1242092D2*
X1171987D1*
X717404Y1202223D2*
X865105D1*
X712919Y1162354D2*
X854843D1*
X712129Y1122486D2*
X868873D1*
X717619Y1082617D2*
X1227535D1*
X702584Y1042748D2*
X1267403D1*
X717297Y1002879D2*
X1307270D1*
X713169Y963010D2*
X1347138D1*
X711878Y923142D2*
X1368811D1*
X717690Y883273D2*
X1371430D1*
X703050Y843404D2*
X1237512D1*
X1303535D2*
X1371503D1*
X451933Y803535D2*
X1192046D1*
X1349001D2*
X1371575D1*
X451825Y763667D2*
X1182429D1*
X451718Y723798D2*
X1192907D1*
X1348140D2*
X1371718D1*
X451646Y683929D2*
X1242283D1*
X1298727D2*
X1371790D1*
X451538Y644060D2*
X485235D1*
X624823D2*
X1371862D1*
X662717Y604192D2*
X1371933D1*
X677357Y564323D2*
X1348034D1*
X677644Y524454D2*
X1326612D1*
X674806Y534378D2*
X673756Y525255D1*
X672010Y516238D1*
X669581Y507381D1*
X666483Y498735D1*
X662734Y490350D1*
X660287Y485841D1*
X1330382Y488656D1*
X1328829Y499465D1*
X1328571Y506063D1*
X1328829Y512661D1*
X1329606Y519219D1*
X1330894Y525696D1*
X1332686Y532051D1*
X1334972Y538247D1*
X1337738Y544244D1*
X1340963Y550005D1*
X1344633Y555496D1*
X1348720Y560681D1*
X1353203Y565530D1*
X1358052Y570013D1*
X1363238Y574101D1*
X1368728Y577770D1*
X1375966Y581677D1*
X1375364Y917769D1*
X1372247Y924470D1*
X1369961Y930665D1*
X1368168Y937021D1*
X1366374Y947776D1*
X1214349Y1099789D1*
X959564Y1099785D1*
X952500Y1097068D1*
X941575Y1094446D1*
X930374Y1093564D1*
X919173Y1094446D1*
X908248Y1097068D1*
X897869Y1101367D1*
X888289Y1107239D1*
X879745Y1114535D1*
X872449Y1123079D1*
X866577Y1132659D1*
X862278Y1143038D1*
X859656Y1153963D1*
X858774Y1165164D1*
X859656Y1176365D1*
X862278Y1187290D1*
X866577Y1197669D1*
X872449Y1207249D1*
X879745Y1215793D1*
X888289Y1223089D1*
X897869Y1228961D1*
X908248Y1233260D1*
X919173Y1235882D1*
X930374Y1236764D1*
X941575Y1235882D1*
X952500Y1233260D1*
X959429Y1230551D1*
X1187556Y1230543D1*
X1141866Y1276219D1*
X1089356Y1276201D1*
X1079129Y1277005D1*
X1069152Y1279400D1*
X1059675Y1283327D1*
X1050927Y1288686D1*
X1043112Y1295365D1*
X912475Y1426000D1*
X706622Y1426010D1*
X709978Y1417378D1*
X711770Y1411022D1*
X713058Y1404546D1*
X713835Y1397988D1*
X714093Y1391390D1*
X713835Y1384791D1*
X713058Y1378234D1*
X711770Y1371757D1*
X709978Y1365402D1*
X707692Y1359206D1*
X704927Y1353209D1*
X701701Y1347448D1*
X697601Y1341409D1*
X702230Y1334457D1*
X706493Y1326325D1*
X709846Y1317777D1*
X712247Y1308915D1*
X713668Y1299844D1*
X714093Y1291390D1*
X713592Y1282222D1*
X712094Y1273163D1*
X709618Y1264322D1*
X706193Y1255802D1*
X701860Y1247707D1*
X697613Y1241390D1*
X701701Y1235332D1*
X704927Y1229571D1*
X707692Y1223573D1*
X709978Y1217378D1*
X711770Y1211022D1*
X713058Y1204546D1*
X713835Y1197988D1*
X714093Y1191390D1*
X713835Y1184791D1*
X713058Y1178234D1*
X711770Y1171757D1*
X709978Y1165402D1*
X707692Y1159206D1*
X704927Y1153209D1*
X701701Y1147448D1*
X697601Y1141409D1*
X702230Y1134457D1*
X706493Y1126325D1*
X709846Y1117777D1*
X712247Y1108915D1*
X713668Y1099844D1*
X714093Y1091390D1*
X713592Y1082222D1*
X712094Y1073163D1*
X709618Y1064322D1*
X706193Y1055802D1*
X701860Y1047707D1*
X697613Y1041390D1*
X701701Y1035332D1*
X704927Y1029571D1*
X707692Y1023573D1*
X709978Y1017378D1*
X711770Y1011022D1*
X713058Y1004546D1*
X713835Y997988D1*
X714093Y991390D1*
X713835Y984791D1*
X713058Y978234D1*
X711770Y971757D1*
X709978Y965402D1*
X707692Y959206D1*
X704927Y953209D1*
X701701Y947448D1*
X697601Y941409D1*
X702230Y934457D1*
X706493Y926325D1*
X709846Y917777D1*
X712247Y908915D1*
X713668Y899844D1*
X714093Y891390D1*
X713592Y882222D1*
X712094Y873163D1*
X709618Y864322D1*
X706193Y855802D1*
X701860Y847707D1*
X696669Y840134D1*
X690684Y833171D1*
X683975Y826902D1*
X676623Y821400D1*
X668717Y816735D1*
X660346Y812958D1*
X651615Y810117D1*
X642627Y808244D1*
X633487Y807362D1*
X624307Y807482D1*
X615193Y808602D1*
X606256Y810709D1*
X597602Y813778D1*
X589335Y817772D1*
X581551Y822642D1*
X579999Y823765D1*
X571940Y818497D1*
X563744Y814360D1*
X555144Y811139D1*
X546247Y808875D1*
X537155Y807596D1*
X527976Y807314D1*
X518823Y808035D1*
X509803Y809749D1*
X501024Y812437D1*
X492589Y816066D1*
X484601Y820592D1*
X477154Y825962D1*
X470336Y832113D1*
X464230Y838970D1*
X458907Y846451D1*
X454432Y854469D1*
X450857Y862927D1*
X448226Y871723D1*
X448063Y856383D1*
X447419Y596978D1*
X451311Y604175D1*
X456245Y611921D1*
X461757Y619268D1*
X467814Y626172D1*
X474381Y632593D1*
X481417Y638493D1*
X488886Y643840D1*
X496740Y648600D1*
X504936Y652745D1*
X513423Y656252D1*
X522155Y659101D1*
X531077Y661276D1*
X540140Y662761D1*
X549291Y663550D1*
X558475Y663636D1*
X567638Y663022D1*
X576728Y661710D1*
X585690Y659707D1*
X594475Y657025D1*
X603028Y653680D1*
X611301Y649690D1*
X619244Y645081D1*
X626812Y639879D1*
X633962Y634113D1*
X640648Y627818D1*
X646836Y621031D1*
X652487Y613790D1*
X657567Y606140D1*
X662049Y598123D1*
X665904Y589787D1*
X669113Y581182D1*
X671654Y572357D1*
X673513Y563364D1*
X674680Y554253D1*
X675157Y543555D1*
X674806Y534378D1*
X454163Y3307000D2*
X462336Y3307432D1*
X471505Y3306951D1*
X480566Y3305462D1*
X489406Y3302983D1*
X497919Y3299542D1*
X506000Y3295185D1*
X513552Y3289962D1*
X520480Y3283937D1*
X526703Y3277185D1*
X532142Y3269787D1*
X536732Y3261836D1*
X540416Y3253427D1*
X543151Y3244661D1*
X544902Y3235647D1*
X545647Y3226496D1*
X545593Y3145860D1*
X544681Y3136723D1*
X542768Y3127743D1*
X539874Y3119029D1*
X536037Y3110688D1*
X531302Y3102822D1*
X525730Y3095524D1*
X519386Y3088887D1*
X512348Y3082990D1*
X504702Y3077906D1*
X496543Y3073694D1*
X487969Y3070411D1*
X479084Y3068093D1*
X469999Y3066769D1*
X460823Y3066455D1*
X453570Y3066928D1*
X452867Y2787413D1*
X463052Y2788049D1*
X472222Y2787568D1*
X481282Y2786079D1*
X490122Y2783600D1*
X498635Y2780159D1*
X506717Y2775802D1*
X514269Y2770579D1*
X521197Y2764554D1*
X527420Y2757802D1*
X532858Y2750404D1*
X537449Y2742453D1*
X541133Y2734043D1*
X543867Y2725278D1*
X545618Y2716264D1*
X546364Y2707113D1*
X546310Y2626476D1*
X545398Y2617340D1*
X543484Y2608360D1*
X540591Y2599646D1*
X536753Y2591304D1*
X532018Y2583438D1*
X526446Y2576140D1*
X520102Y2569504D1*
X513064Y2563606D1*
X505419Y2558522D1*
X497260Y2554311D1*
X488685Y2551028D1*
X479801Y2548710D1*
X470715Y2547386D1*
X461539Y2547072D1*
X452277Y2547789D1*
X451531Y2250156D1*
X459640Y2250793D1*
X468819Y2250516D1*
X477909Y2249227D1*
X486802Y2246944D1*
X495390Y2243693D1*
X503566Y2239514D1*
X511230Y2234459D1*
X518291Y2228589D1*
X524660Y2221978D1*
X530262Y2214702D1*
X535026Y2206853D1*
X538896Y2198526D1*
X541823Y2189824D1*
X543773Y2180852D1*
X544720Y2171719D1*
X544816Y2132815D1*
X544634Y2087412D1*
X543520Y2078298D1*
X541408Y2069364D1*
X538322Y2060715D1*
X534302Y2052461D1*
X529395Y2044699D1*
X523661Y2037529D1*
X517172Y2031033D1*
X510007Y2025293D1*
X502251Y2020378D1*
X494000Y2016349D1*
X485354Y2013256D1*
X476421Y2011135D1*
X467308Y2010012D1*
X458127Y2009902D1*
X450930Y2010529D1*
X450223Y1724168D1*
X456701Y1727954D1*
X466178Y1731881D1*
X476155Y1734276D1*
X486382Y1735080D1*
X849593Y1734879D1*
X859726Y1733274D1*
X869483Y1730104D1*
X878625Y1725446D1*
X886924Y1719416D1*
X897824Y1708801D1*
X899828Y1711427D1*
X899835Y1782748D1*
X895386Y1789194D1*
X890285Y1799205D1*
X886812Y1809890D1*
X885055Y1820987D1*
Y1832223D1*
X886812Y1843320D1*
X890285Y1854005D1*
X893272Y1860241D1*
X884356Y1861159D1*
X877955Y1862432D1*
X871676Y1864203D1*
X865555Y1866462D1*
X859630Y1869193D1*
X853937Y1872382D1*
X848512Y1876007D1*
X843387Y1880046D1*
X838597Y1884475D1*
X834168Y1889265D1*
X830129Y1894390D1*
X826504Y1899815D1*
X823315Y1905508D1*
X820584Y1911433D1*
X818325Y1917554D1*
X816554Y1923833D1*
X815281Y1930234D1*
X814514Y1936713D1*
X814259Y1952419D1*
Y2018035D1*
X814514Y2024555D1*
X815281Y2031034D1*
X816554Y2037434D1*
X818325Y2043714D1*
X820584Y2049835D1*
X823315Y2055760D1*
X826504Y2061453D1*
X830129Y2066878D1*
X834168Y2072003D1*
X838597Y2076793D1*
X843387Y2081222D1*
X848512Y2085261D1*
X853937Y2088886D1*
X859630Y2092075D1*
X865555Y2094806D1*
X871676Y2097064D1*
X877955Y2098836D1*
X884356Y2100109D1*
X890835Y2100875D1*
X897354Y2101131D1*
X903874Y2100875D1*
X910353Y2100109D1*
X916753Y2098836D1*
X923033Y2097064D1*
X929154Y2094806D1*
X935079Y2092075D1*
X940772Y2088886D1*
X946197Y2085261D1*
X951322Y2081222D1*
X956112Y2076793D1*
X960541Y2072003D1*
X964580Y2066878D1*
X968205Y2061453D1*
X971394Y2055760D1*
X974125Y2049835D1*
X976383Y2043714D1*
X978155Y2037434D1*
X979428Y2031034D1*
X980194Y2024555D1*
X980450Y2008849D1*
X980415Y1943232D1*
X980194Y1936713D1*
X979428Y1930234D1*
X978155Y1923833D1*
X976383Y1917554D1*
X974125Y1911433D1*
X971394Y1905508D1*
X966634Y1897462D1*
X973150Y1896227D1*
X983835Y1892755D1*
X993845Y1887654D1*
X1002934Y1881050D1*
X1010879Y1873105D1*
X1017483Y1864016D1*
X1022584Y1854005D1*
X1026056Y1843320D1*
X1027814Y1832223D1*
Y1820987D1*
X1026056Y1809890D1*
X1022584Y1799205D1*
X1017483Y1789194D1*
X1013041Y1782846D1*
X1013034Y1720209D1*
X1024552Y1720986D1*
X1031151Y1720727D1*
X1037709Y1719950D1*
X1044185Y1718663D1*
X1050541Y1716870D1*
X1056736Y1714584D1*
X1062734Y1711819D1*
X1068495Y1708593D1*
X1073986Y1704924D1*
X1079171Y1700836D1*
X1084020Y1696353D1*
X1088503Y1691504D1*
X1092591Y1686319D1*
X1096260Y1680828D1*
X1099486Y1675067D1*
X1102251Y1669070D1*
X1104537Y1662874D1*
X1106329Y1656518D1*
X1107617Y1650042D1*
X1108394Y1643484D1*
X1108652Y1636886D1*
X1108394Y1630287D1*
X1107617Y1623730D1*
X1106329Y1617253D1*
X1104537Y1610898D1*
X1102251Y1604702D1*
X1099486Y1598705D1*
X1096260Y1592944D1*
X1092591Y1587453D1*
X1088503Y1582268D1*
X1084020Y1577419D1*
X1079171Y1572936D1*
X1073986Y1568848D1*
X1068495Y1565178D1*
X1062734Y1561953D1*
X1056736Y1559188D1*
X1049920Y1556727D1*
X1132736Y1473888D1*
X1204854Y1473702D1*
X1214987Y1472097D1*
X1224744Y1468927D1*
X1233886Y1464269D1*
X1242185Y1458239D1*
X1258946Y1441762D1*
X1374626Y1326083D1*
X1374165Y1567990D1*
X1370524Y1575526D1*
X1367051Y1586211D1*
X1365294Y1597308D1*
X1365109Y1602026D1*
X1293921Y1530822D1*
X1290853Y1523912D1*
X1284982Y1514332D1*
X1277685Y1505789D1*
X1269142Y1498492D1*
X1259562Y1492621D1*
X1249182Y1488322D1*
X1238257Y1485699D1*
X1227056Y1484818D1*
X1215856Y1485699D1*
X1204930Y1488322D1*
X1194551Y1492621D1*
X1184971Y1498492D1*
X1176428Y1505789D1*
X1169131Y1514332D1*
X1163260Y1523912D1*
X1158961Y1534291D1*
X1156339Y1545217D1*
X1155457Y1556417D1*
X1156339Y1567618D1*
X1158961Y1578543D1*
X1163260Y1588923D1*
X1169131Y1598503D1*
X1176428Y1607046D1*
X1184971Y1614343D1*
X1194551Y1620214D1*
X1201366Y1623198D1*
X1357860Y1779681D1*
X1357874Y2326581D1*
X1355157Y2333671D1*
X1352535Y2344596D1*
X1351654Y2355797D1*
X1352535Y2366997D1*
X1355157Y2377923D1*
X1359457Y2388302D1*
X1365328Y2397882D1*
X1372625Y2406425D1*
X1381168Y2413722D1*
X1390748Y2419593D1*
X1401127Y2423892D1*
X1412052Y2426514D1*
X1423253Y2427396D1*
X1425339Y2427315D1*
X1425526Y2931954D1*
X1426915Y2940726D1*
X1429660Y2949173D1*
X1433692Y2957087D1*
X1438912Y2964272D1*
X1454921Y2980526D1*
X1619268Y3144874D1*
X1620655Y3152554D1*
X1624127Y3163239D1*
X1629228Y3173249D1*
X1635832Y3182339D1*
X1643777Y3190283D1*
X1652866Y3196887D1*
X1662877Y3201988D1*
X1673562Y3205461D1*
X1684659Y3207218D1*
X1695895D1*
X1706992Y3205461D1*
X1717677Y3201988D1*
X1727688Y3196887D1*
X1736777Y3190283D1*
X1744722Y3182339D1*
X1751325Y3173249D1*
X1756427Y3163239D1*
X1756815Y3162188D1*
X1762626Y3160552D1*
X1773005Y3156253D1*
X1782585Y3150382D1*
X1791129Y3143085D1*
X1798425Y3134542D1*
X1804297Y3124962D1*
X1808596Y3114583D1*
X1811218Y3103657D1*
X1812100Y3092457D1*
X1811218Y3081256D1*
X1808596Y3070331D1*
X1804297Y3059951D1*
X1798425Y3050371D1*
X1791129Y3041828D1*
X1782585Y3034531D1*
X1773005Y3028660D1*
X1762626Y3024361D1*
X1751701Y3021739D1*
X1749585Y3021488D1*
X1573597Y2845509D1*
X1573579Y2445681D1*
X1578164Y2449927D1*
X1583349Y2454014D1*
X1588840Y2457684D1*
X1594601Y2460909D1*
X1600598Y2463675D1*
X1606794Y2465961D1*
X1613150Y2467753D1*
X1619626Y2469041D1*
X1626184Y2469818D1*
X1632782Y2470076D1*
X1639381Y2469818D1*
X1645938Y2469041D1*
X1652415Y2467753D1*
X1658770Y2465961D1*
X1664966Y2463675D1*
X1670963Y2460909D1*
X1676724Y2457684D1*
X1682762Y2453584D1*
X1688840Y2457684D1*
X1694601Y2460909D1*
X1700598Y2463675D1*
X1706794Y2465961D1*
X1713150Y2467753D1*
X1719626Y2469041D1*
X1726184Y2469818D1*
X1732782Y2470076D1*
X1739381Y2469818D1*
X1745938Y2469041D1*
X1752415Y2467753D1*
X1758770Y2465961D1*
X1764966Y2463675D1*
X1770963Y2460909D1*
X1776724Y2457684D1*
X1782762Y2453584D1*
X1788840Y2457684D1*
X1794601Y2460909D1*
X1800598Y2463675D1*
X1806794Y2465961D1*
X1813150Y2467753D1*
X1824621Y2469633D1*
X1824639Y2579512D1*
X1816789Y2579822D1*
X1807702Y2581140D1*
X1798814Y2583442D1*
X1790228Y2586699D1*
X1782050Y2590873D1*
X1774312Y2595961D1*
X1766253Y2590693D1*
X1758058Y2586555D1*
X1749458Y2583335D1*
X1740560Y2581071D1*
X1731469Y2579791D1*
X1722290Y2579509D1*
X1713136Y2580231D1*
X1704117Y2581945D1*
X1695337Y2584633D1*
X1686903Y2588261D1*
X1678915Y2592787D1*
X1671467Y2598157D1*
X1664650Y2604308D1*
X1658543Y2611165D1*
X1653220Y2618647D1*
X1648745Y2626664D1*
X1645171Y2635122D1*
X1642539Y2643919D1*
X1640882Y2652949D1*
X1640220Y2662108D1*
X1640560Y2671282D1*
X1641899Y2680366D1*
X1644219Y2689251D1*
X1647493Y2697828D1*
X1651685Y2705997D1*
X1656741Y2713661D1*
X1662602Y2720728D1*
X1669199Y2727115D1*
X1676454Y2732744D1*
X1684278Y2737549D1*
X1692580Y2741471D1*
X1701260Y2744466D1*
X1710214Y2746496D1*
X1719337Y2747538D1*
X1728518Y2747580D1*
X1737650Y2746621D1*
X1746622Y2744671D1*
X1755329Y2741755D1*
X1763665Y2737907D1*
X1771533Y2733173D1*
X1774301Y2731209D1*
X1781087Y2735730D1*
X1789209Y2740010D1*
X1797749Y2743382D1*
X1806606Y2745802D1*
X1815675Y2747241D1*
X1818370Y2747470D1*
X1818365Y3579671D1*
X1811151Y3580521D1*
X1804675Y3581808D1*
X1798319Y3583601D1*
X1792123Y3585887D1*
X1786126Y3588652D1*
X1780365Y3591878D1*
X1774327Y3595978D1*
X1768249Y3591878D1*
X1762488Y3588652D1*
X1756491Y3585887D1*
X1750295Y3583601D1*
X1743560Y3581734D1*
X1748202Y3576010D1*
X1754073Y3566430D1*
X1758373Y3556051D1*
X1760995Y3545126D1*
X1761877Y3533925D1*
X1760995Y3522724D1*
X1758373Y3511799D1*
X1754073Y3501420D1*
X1748202Y3491840D1*
X1740906Y3483297D1*
X1732362Y3476000D1*
X1722782Y3470129D1*
X1712403Y3465829D1*
X1701478Y3463207D1*
X1690277Y3462325D1*
X1679076Y3463207D1*
X1668151Y3465829D1*
X1657772Y3470129D1*
X1648192Y3476000D1*
X1646518Y3477319D1*
X1281860Y3477500D1*
X1273088Y3478888D1*
X1264640Y3481634D1*
X1256727Y3485665D1*
X1249542Y3490886D1*
X1233287Y3506895D1*
X866507Y3873675D1*
X691969Y3873685D1*
X690211Y3863529D1*
X688419Y3857173D1*
X686133Y3850978D1*
X683367Y3844980D1*
X680142Y3839219D1*
X676042Y3833181D1*
X680142Y3827104D1*
X683367Y3821343D1*
X686133Y3815345D1*
X688419Y3809150D1*
X690211Y3802794D1*
X691499Y3796318D1*
X692276Y3789760D1*
X692534Y3783161D1*
X692276Y3776563D1*
X691499Y3770005D1*
X690211Y3763529D1*
X688419Y3757173D1*
X686133Y3750978D1*
X683367Y3744980D1*
X680142Y3739219D1*
X676042Y3733181D1*
X680142Y3727105D1*
X683367Y3721344D1*
X686133Y3715346D1*
X688419Y3709151D1*
X690211Y3702795D1*
X691499Y3696319D1*
X692276Y3689761D1*
X692534Y3683163D1*
X692276Y3676564D1*
X691499Y3670007D1*
X690211Y3663530D1*
X688419Y3657175D1*
X686133Y3650979D1*
X683367Y3644982D1*
X680142Y3639220D1*
X676472Y3633730D1*
X672385Y3628545D1*
X667902Y3623696D1*
X663052Y3619213D1*
X658415Y3615555D1*
X658413Y3559398D1*
X661567Y3549508D1*
X663324Y3538411D1*
Y3527175D1*
X661567Y3516077D1*
X658094Y3505392D1*
X652993Y3495382D1*
X646390Y3486293D1*
X638445Y3478348D1*
X629356Y3471744D1*
X619345Y3466643D1*
X608660Y3463171D1*
X597563Y3461413D1*
X586327D1*
X575230Y3463171D1*
X564545Y3466643D1*
X554534Y3471744D1*
X545445Y3478348D1*
X537500Y3486293D1*
X530896Y3495382D1*
X525795Y3505392D1*
X522323Y3516077D1*
X520566Y3527175D1*
Y3538411D1*
X522323Y3549508D1*
X525795Y3560193D1*
X530896Y3570203D1*
X537500Y3579293D1*
X545202Y3587014D1*
X545214Y3607504D1*
X537067Y3604087D1*
X528276Y3601437D1*
X519248Y3599761D1*
X510092Y3599079D1*
X500916Y3599399D1*
X491829Y3600718D1*
X482941Y3603020D1*
X474356Y3606277D1*
X466177Y3610450D1*
X458503Y3615490D1*
X454936Y3618280D1*
X454160Y3307014D1*
X641689Y3362505D2*
X640580Y3368080D1*
X639814Y3374559D1*
X639558Y3381079D1*
X639814Y3387598D1*
X640580Y3394077D1*
X641853Y3400478D1*
X643625Y3406757D1*
X645883Y3412878D1*
X648614Y3418803D1*
X651803Y3424496D1*
X655428Y3429921D1*
X659467Y3435046D1*
X663896Y3439836D1*
X668686Y3444265D1*
X673811Y3448304D1*
X679236Y3451929D1*
X684929Y3455118D1*
X690854Y3457849D1*
X696975Y3460108D1*
X703255Y3461879D1*
X709655Y3463152D1*
X716134Y3463919D1*
X731840Y3464175D1*
X797457D1*
X803976Y3463919D1*
X810455Y3463152D1*
X816856Y3461879D1*
X823135Y3460108D1*
X829256Y3457849D1*
X835181Y3455118D1*
X840874Y3451929D1*
X846299Y3448304D1*
X851424Y3444265D1*
X856214Y3439836D1*
X860643Y3435046D1*
X864682Y3429921D1*
X868307Y3424496D1*
X871496Y3418803D1*
X874227Y3412878D1*
X876486Y3406757D1*
X878257Y3400478D1*
X879530Y3394077D1*
X880297Y3387598D1*
X880552Y3381079D1*
X880297Y3374559D1*
X879530Y3368080D1*
X878257Y3361680D1*
X876486Y3355400D1*
X874227Y3349280D1*
X871496Y3343354D1*
X868307Y3337661D1*
X864682Y3332236D1*
X860643Y3327112D1*
X856214Y3322322D1*
X851424Y3317892D1*
X845982Y3313640D1*
X847814Y3301545D1*
X848070Y3295025D1*
X847814Y3288505D1*
X847047Y3282026D1*
X845774Y3275626D1*
X844003Y3269346D1*
X841744Y3263226D1*
X839013Y3257301D1*
X835824Y3251608D1*
X832199Y3246182D1*
X828160Y3241058D1*
X823731Y3236268D1*
X818941Y3231839D1*
X813816Y3227799D1*
X808391Y3224175D1*
X802698Y3220986D1*
X796773Y3218255D1*
X790652Y3215996D1*
X784373Y3214224D1*
X777972Y3212951D1*
X771493Y3212185D1*
X755787Y3211929D1*
X690171D1*
X683651Y3212185D1*
X677172Y3212951D1*
X670772Y3214224D1*
X664492Y3215996D1*
X658371Y3218255D1*
X652446Y3220986D1*
X646753Y3224175D1*
X641328Y3227799D1*
X636203Y3231839D1*
X631413Y3236268D1*
X626984Y3241058D1*
X622945Y3246182D1*
X619320Y3251608D1*
X616131Y3257301D1*
X613400Y3263226D1*
X611142Y3269346D1*
X609370Y3275626D1*
X608097Y3282026D1*
X607331Y3288505D1*
X607075Y3295025D1*
X607331Y3301545D1*
X608097Y3308024D1*
X609370Y3314424D1*
X611142Y3320703D1*
X613400Y3326824D1*
X616131Y3332749D1*
X619320Y3338442D1*
X622945Y3343867D1*
X626984Y3348992D1*
X631413Y3353782D1*
X636203Y3358211D1*
X641646Y3362463D1*
X592822Y2919262D2*
X586277Y2919517D1*
X579798Y2920283D1*
X573398Y2921556D1*
X567118Y2923328D1*
X560997Y2925587D1*
X555072Y2928318D1*
X549379Y2931507D1*
X543954Y2935131D1*
X538829Y2939171D1*
X534039Y2943600D1*
X529610Y2948390D1*
X525571Y2953514D1*
X521946Y2958940D1*
X518757Y2964633D1*
X516026Y2970558D1*
X513768Y2976678D1*
X511996Y2982958D1*
X510723Y2989358D1*
X509957Y2995837D1*
X509701Y3002357D1*
X509957Y3008877D1*
X510723Y3015356D1*
X511996Y3021756D1*
X513768Y3028035D1*
X516026Y3034156D1*
X518757Y3040081D1*
X521946Y3045774D1*
X525571Y3051199D1*
X529610Y3056324D1*
X534039Y3061114D1*
X538829Y3065543D1*
X543954Y3069583D1*
X549379Y3073207D1*
X555072Y3076396D1*
X560997Y3079127D1*
X567118Y3081386D1*
X573398Y3083157D1*
X579798Y3084430D1*
X586277Y3085197D1*
X601983Y3085453D1*
X667600D1*
X674119Y3085197D1*
X680598Y3084430D1*
X686999Y3083157D1*
X693278Y3081386D1*
X699399Y3079127D1*
X705324Y3076396D1*
X711017Y3073207D1*
X716442Y3069583D1*
X721567Y3065543D1*
X726357Y3061114D1*
X730786Y3056324D1*
X734825Y3051199D1*
X738450Y3045774D1*
X741639Y3040081D1*
X744370Y3034156D1*
X746629Y3028035D1*
X748400Y3021756D1*
X749673Y3015356D1*
X750440Y3008877D1*
X750696Y3002357D1*
X750440Y2995837D1*
X749673Y2989358D1*
X748400Y2982958D1*
X746629Y2976678D1*
X744370Y2970558D1*
X741639Y2964633D1*
X738450Y2958940D1*
X734825Y2953514D1*
X727448Y2944778D1*
X798173Y2944791D1*
X804693Y2944535D1*
X811172Y2943769D1*
X817572Y2942496D1*
X823852Y2940724D1*
X829972Y2938466D1*
X835898Y2935735D1*
X841591Y2932546D1*
X847016Y2928921D1*
X852140Y2924882D1*
X856930Y2920453D1*
X861360Y2915663D1*
X865399Y2910538D1*
X869024Y2905113D1*
X872213Y2899420D1*
X874944Y2893495D1*
X877202Y2887374D1*
X878974Y2881094D1*
X880247Y2874694D1*
X881013Y2868215D1*
X881269Y2861696D1*
X881013Y2855176D1*
X880247Y2848697D1*
X878974Y2842297D1*
X877202Y2836017D1*
X874944Y2829896D1*
X872213Y2823971D1*
X869024Y2818278D1*
X865399Y2812853D1*
X861360Y2807728D1*
X856930Y2802938D1*
X852140Y2798509D1*
X846698Y2794257D1*
X848530Y2782161D1*
X848786Y2775642D1*
X848530Y2769122D1*
X847764Y2762643D1*
X846491Y2756243D1*
X844719Y2749963D1*
X842461Y2743843D1*
X839730Y2737917D1*
X836541Y2732224D1*
X832916Y2726799D1*
X828877Y2721675D1*
X824448Y2716885D1*
X819657Y2712455D1*
X814533Y2708416D1*
X809108Y2704791D1*
X803415Y2701602D1*
X797490Y2698871D1*
X791369Y2696613D1*
X785089Y2694841D1*
X778689Y2693568D1*
X772210Y2692802D1*
X756504Y2692546D1*
X690887D1*
X684367Y2692802D1*
X677888Y2693568D1*
X671488Y2694841D1*
X665209Y2696613D1*
X659088Y2698871D1*
X653163Y2701602D1*
X647470Y2704791D1*
X642045Y2708416D1*
X636920Y2712455D1*
X632130Y2716885D1*
X627701Y2721675D1*
X623661Y2726799D1*
X620037Y2732224D1*
X616848Y2737917D1*
X614117Y2743843D1*
X611858Y2749963D1*
X610087Y2756243D1*
X608814Y2762643D1*
X608047Y2769122D1*
X607791Y2775642D1*
X608047Y2782161D1*
X608814Y2788640D1*
X610087Y2795041D1*
X611858Y2801320D1*
X614117Y2807441D1*
X616848Y2813366D1*
X620037Y2819059D1*
X623661Y2824484D1*
X627701Y2829609D1*
X632130Y2834399D1*
X636920Y2838828D1*
X642362Y2843080D1*
X640530Y2855176D1*
X640274Y2861696D1*
X640530Y2868215D1*
X641297Y2874694D1*
X642570Y2881094D1*
X644341Y2887374D1*
X646600Y2893495D1*
X649331Y2899420D1*
X652520Y2905113D1*
X656144Y2910538D1*
X663522Y2919274D1*
X592797Y2919297D1*
X815118Y3074623D2*
X815373Y3081168D1*
X816139Y3087647D1*
X817412Y3094047D1*
X819184Y3100327D1*
X821442Y3106448D1*
X824173Y3112373D1*
X827362Y3118066D1*
X830987Y3123491D1*
X835026Y3128615D1*
X839455Y3133406D1*
X844245Y3137835D1*
X849370Y3141874D1*
X854795Y3145499D1*
X860488Y3148688D1*
X866413Y3151419D1*
X872534Y3153677D1*
X878814Y3155449D1*
X885214Y3156722D1*
X891693Y3157488D1*
X898213Y3157744D1*
X904732Y3157488D1*
X911211Y3156722D1*
X917612Y3155449D1*
X923891Y3153677D1*
X930012Y3151419D1*
X935937Y3148688D1*
X941630Y3145499D1*
X947055Y3141874D1*
X952180Y3137835D1*
X956970Y3133406D1*
X961399Y3128615D1*
X965438Y3123491D1*
X969063Y3118066D1*
X972252Y3112373D1*
X974983Y3106448D1*
X977241Y3100327D1*
X979013Y3094047D1*
X980286Y3087647D1*
X981052Y3081168D1*
X981308Y3065462D1*
X981273Y2999845D1*
X981052Y2993325D1*
X980286Y2986846D1*
X979013Y2980446D1*
X977241Y2974167D1*
X974983Y2968046D1*
X972252Y2962121D1*
X969063Y2956428D1*
X965438Y2951003D1*
X961399Y2945878D1*
X956970Y2941088D1*
X952180Y2936659D1*
X947055Y2932619D1*
X941630Y2928995D1*
X935937Y2925806D1*
X930012Y2923075D1*
X923891Y2920816D1*
X917612Y2919045D1*
X911211Y2917772D1*
X904732Y2917005D1*
X898213Y2916749D1*
X891693Y2917005D1*
X885214Y2917772D1*
X878814Y2919045D1*
X872534Y2920816D1*
X866413Y2923075D1*
X860488Y2925806D1*
X854795Y2928995D1*
X849370Y2932619D1*
X844245Y2936659D1*
X839455Y2941088D1*
X835026Y2945878D1*
X830987Y2951003D1*
X827362Y2956428D1*
X824173Y2962121D1*
X821442Y2968046D1*
X819184Y2974167D1*
X817412Y2980446D1*
X816139Y2986846D1*
X815373Y2993325D1*
X815117Y3009031D1*
Y3074479D1*
X593538Y2399879D2*
X586993Y2400134D1*
X580514Y2400900D1*
X574114Y2402173D1*
X567835Y2403945D1*
X561714Y2406203D1*
X555789Y2408934D1*
X550096Y2412123D1*
X544671Y2415748D1*
X539546Y2419787D1*
X534756Y2424217D1*
X530327Y2429007D1*
X526287Y2434131D1*
X522663Y2439556D1*
X519474Y2445249D1*
X516743Y2451175D1*
X514484Y2457295D1*
X512713Y2463575D1*
X511440Y2469975D1*
X510673Y2476454D1*
X510417Y2482974D1*
X510673Y2489493D1*
X511440Y2495972D1*
X512713Y2502373D1*
X514484Y2508652D1*
X516743Y2514773D1*
X519474Y2520698D1*
X522663Y2526391D1*
X526287Y2531816D1*
X530327Y2536941D1*
X534756Y2541731D1*
X539546Y2546160D1*
X544671Y2550199D1*
X550096Y2553824D1*
X555789Y2557013D1*
X561714Y2559744D1*
X567835Y2562003D1*
X574114Y2563774D1*
X580514Y2565047D1*
X586993Y2565814D1*
X602699Y2566070D1*
X668316D1*
X674836Y2565814D1*
X681315Y2565047D1*
X687715Y2563774D1*
X693995Y2562003D1*
X700115Y2559744D1*
X706041Y2557013D1*
X711734Y2553824D1*
X717159Y2550199D1*
X722283Y2546160D1*
X727073Y2541731D1*
X731503Y2536941D1*
X735542Y2531816D1*
X739167Y2526391D1*
X742356Y2520698D1*
X745087Y2514773D1*
X747345Y2508652D1*
X749117Y2502373D1*
X750390Y2495972D1*
X751156Y2489493D1*
X751412Y2482974D1*
X751156Y2476454D1*
X750390Y2469975D1*
X749117Y2463575D1*
X747345Y2457295D1*
X745087Y2451175D1*
X742356Y2445249D1*
X739167Y2439556D1*
X735542Y2434131D1*
X731503Y2429007D1*
X727073Y2424217D1*
X722283Y2419787D1*
X717159Y2415748D1*
X711734Y2412123D1*
X706041Y2408934D1*
X700115Y2406203D1*
X693995Y2403945D1*
X687715Y2402173D1*
X681315Y2400900D1*
X674836Y2400134D1*
X659130Y2399878D1*
X593513Y2399913D1*
X815835Y2555240D2*
X816089Y2561785D1*
X816856Y2568264D1*
X818129Y2574664D1*
X819900Y2580944D1*
X822159Y2587064D1*
X824890Y2592990D1*
X828079Y2598682D1*
X831703Y2604108D1*
X835743Y2609232D1*
X840172Y2614022D1*
X844962Y2618451D1*
X850087Y2622491D1*
X855512Y2626115D1*
X861205Y2629304D1*
X867130Y2632035D1*
X873251Y2634294D1*
X879530Y2636066D1*
X885930Y2637339D1*
X892409Y2638105D1*
X898929Y2638361D1*
X905449Y2638105D1*
X911928Y2637339D1*
X918328Y2636066D1*
X924608Y2634294D1*
X930728Y2632035D1*
X936654Y2629304D1*
X942346Y2626115D1*
X947772Y2622491D1*
X952896Y2618451D1*
X957686Y2614022D1*
X962115Y2609232D1*
X966155Y2604108D1*
X969780Y2598682D1*
X972969Y2592990D1*
X975699Y2587064D1*
X977958Y2580944D1*
X979730Y2574664D1*
X981003Y2568264D1*
X981769Y2561785D1*
X982025Y2546079D1*
X981990Y2480462D1*
X981769Y2473942D1*
X981003Y2467463D1*
X979730Y2461063D1*
X977958Y2454783D1*
X975699Y2448663D1*
X972969Y2442738D1*
X969780Y2437045D1*
X966155Y2431619D1*
X962115Y2426495D1*
X957686Y2421705D1*
X952896Y2417276D1*
X947772Y2413236D1*
X942346Y2409612D1*
X936654Y2406423D1*
X930728Y2403692D1*
X924608Y2401433D1*
X918328Y2399661D1*
X911928Y2398388D1*
X905449Y2397622D1*
X898929Y2397366D1*
X892409Y2397622D1*
X885930Y2398388D1*
X879530Y2399661D1*
X873251Y2401433D1*
X867130Y2403692D1*
X861205Y2406423D1*
X855512Y2409612D1*
X850087Y2413236D1*
X844962Y2417276D1*
X840172Y2421705D1*
X835743Y2426495D1*
X831703Y2431619D1*
X828079Y2437045D1*
X824890Y2442738D1*
X822159Y2448663D1*
X819900Y2454783D1*
X818129Y2461063D1*
X816856Y2467463D1*
X816089Y2473942D1*
X815833Y2489648D1*
Y2555178D1*
X3346520Y2468925D2*
X3352415Y2467753D1*
X3358770Y2465961D1*
X3364966Y2463675D1*
X3370963Y2460909D1*
X3376724Y2457684D1*
X3382762Y2453584D1*
X3388840Y2457684D1*
X3394601Y2460909D1*
X3400598Y2463675D1*
X3406794Y2465961D1*
X3413150Y2467753D1*
X3419626Y2469041D1*
X3426184Y2469818D1*
X3432782Y2470076D1*
X3439381Y2469818D1*
X3445938Y2469041D1*
X3452415Y2467753D1*
X3458770Y2465961D1*
X3464966Y2463675D1*
X3470963Y2460909D1*
X3476724Y2457684D1*
X3482762Y2453584D1*
X3488840Y2457684D1*
X3494601Y2460909D1*
X3500598Y2463675D1*
X3506794Y2465961D1*
X3513150Y2467753D1*
X3519626Y2469041D1*
X3528168Y2469895D1*
X3528184Y2665987D1*
X3518496Y2660146D1*
X3512711Y2657479D1*
X3506735Y2655273D1*
X3500604Y2653545D1*
X3494357Y2652302D1*
X3488030Y2651552D1*
X3481665Y2651303D1*
X3475301Y2651552D1*
X3468974Y2652302D1*
X3462727Y2653545D1*
X3456596Y2655273D1*
X3450619Y2657479D1*
X3444835Y2660146D1*
X3439277Y2663257D1*
X3433980Y2666797D1*
X3428978Y2670740D1*
X3424299Y2675064D1*
X3419975Y2679743D1*
X3416031Y2684745D1*
X3412492Y2690042D1*
X3409381Y2695600D1*
X3406714Y2701385D1*
X3404508Y2707361D1*
X3402780Y2713492D1*
X3401537Y2719739D1*
X3400787Y2726066D1*
X3400538Y2732430D1*
X3400787Y2738795D1*
X3401537Y2745122D1*
X3402780Y2751369D1*
X3404508Y2757500D1*
X3406714Y2763476D1*
X3409381Y2769261D1*
X3412492Y2774819D1*
X3416031Y2780115D1*
X3419975Y2785118D1*
X3424299Y2789797D1*
X3428978Y2794121D1*
X3433980Y2798064D1*
X3439277Y2801604D1*
X3444835Y2804715D1*
X3450619Y2807382D1*
X3456596Y2809588D1*
X3462727Y2811316D1*
X3468974Y2812559D1*
X3475301Y2813308D1*
X3481665Y2813558D1*
X3488030Y2813308D1*
X3494357Y2812559D1*
X3500604Y2811316D1*
X3506735Y2809588D1*
X3512711Y2807382D1*
X3518496Y2804715D1*
X3528172Y2798852D1*
X3528184Y2872465D1*
X3373991Y3026493D1*
X3370765Y3020732D1*
X3366665Y3014694D1*
X3370765Y3008617D1*
X3373991Y3002856D1*
X3376756Y2996858D1*
X3379042Y2990663D1*
X3380835Y2984307D1*
X3382122Y2977831D1*
X3382899Y2971273D1*
X3383157Y2964675D1*
X3382899Y2958076D1*
X3382122Y2951518D1*
X3380835Y2945042D1*
X3379042Y2938686D1*
X3376756Y2932491D1*
X3373991Y2926493D1*
X3370765Y2920732D1*
X3366665Y2914694D1*
X3370765Y2908617D1*
X3373991Y2902856D1*
X3376756Y2896858D1*
X3379042Y2890663D1*
X3380835Y2884307D1*
X3382122Y2877831D1*
X3382899Y2871273D1*
X3383157Y2864675D1*
X3382899Y2858076D1*
X3382122Y2851518D1*
X3380835Y2845042D1*
X3379042Y2838686D1*
X3376756Y2832491D1*
X3373991Y2826493D1*
X3370765Y2820732D1*
X3366665Y2814694D1*
X3371294Y2807741D1*
X3375558Y2799610D1*
X3378911Y2791062D1*
X3381311Y2782199D1*
X3382732Y2773129D1*
X3383157Y2764675D1*
X3382656Y2755507D1*
X3381159Y2746448D1*
X3378682Y2737606D1*
X3375257Y2729087D1*
X3370924Y2720992D1*
X3366677Y2714675D1*
X3370765Y2708617D1*
X3373991Y2702856D1*
X3376756Y2696858D1*
X3379042Y2690663D1*
X3380835Y2684307D1*
X3382122Y2677831D1*
X3382899Y2671273D1*
X3383157Y2664675D1*
X3382899Y2658076D1*
X3382122Y2651518D1*
X3380835Y2645042D1*
X3379042Y2638686D1*
X3376756Y2632491D1*
X3373991Y2626493D1*
X3370765Y2620732D1*
X3367096Y2615241D1*
X3363008Y2610056D1*
X3358525Y2605207D1*
X3353676Y2600724D1*
X3348491Y2596636D1*
X3343000Y2592967D1*
X3337239Y2589741D1*
X3331241Y2586976D1*
X3325046Y2584690D1*
X3318690Y2582898D1*
X3311727Y2581552D1*
X3321231Y2575580D1*
X3326416Y2571492D1*
X3331265Y2567009D1*
X3335748Y2562160D1*
X3339836Y2556975D1*
X3343505Y2551484D1*
X3346731Y2545723D1*
X3349496Y2539726D1*
X3351782Y2533530D1*
X3353575Y2527175D1*
X3354862Y2520698D1*
X3355639Y2514140D1*
X3355898Y2507542D1*
X3355639Y2500944D1*
X3354862Y2494386D1*
X3353575Y2487909D1*
X3351782Y2481554D1*
X3349496Y2475358D1*
X3346492Y2468934D1*
X1682762Y2318369D2*
X1676724Y2314269D1*
X1670963Y2311043D1*
X1664966Y2308278D1*
X1658770Y2305992D1*
X1649000Y2303521D1*
X1648997Y2166500D1*
X1651714Y2159430D1*
X1654336Y2148505D1*
X1655218Y2137304D1*
X1654336Y2126104D1*
X1651714Y2115178D1*
X1647415Y2104799D1*
X1641543Y2095219D1*
X1634247Y2086676D1*
X1625703Y2079379D1*
X1616123Y2073508D1*
X1605744Y2069209D1*
X1594819Y2066587D1*
X1583618Y2065705D1*
X1573573Y2066449D1*
X1573633Y1845761D1*
X1580503Y1851852D1*
X1587996Y1857159D1*
X1596022Y1861617D1*
X1604487Y1865173D1*
X1613290Y1867786D1*
X1622324Y1869424D1*
X1631483Y1870067D1*
X1640659Y1869707D1*
X1649739Y1868349D1*
X1658618Y1866009D1*
X1667189Y1862717D1*
X1675349Y1858508D1*
X1682776Y1853600D1*
X1688840Y1857684D1*
X1694601Y1860909D1*
X1700598Y1863675D1*
X1706794Y1865961D1*
X1713150Y1867753D1*
X1719626Y1869041D1*
X1726622Y1869835D1*
X1726801Y2062039D1*
X1728189Y2070811D1*
X1730934Y2079259D1*
X1734966Y2087172D1*
X1740186Y2094357D1*
X1756194Y2110613D1*
X1824629Y2179046D1*
X1824639Y2302270D1*
X1813150Y2304199D1*
X1806794Y2305992D1*
X1800598Y2308278D1*
X1794601Y2311043D1*
X1788840Y2314269D1*
X1782802Y2318369D1*
X1776724Y2314269D1*
X1770963Y2311043D1*
X1764966Y2308278D1*
X1758770Y2305992D1*
X1752415Y2304199D1*
X1745938Y2302912D1*
X1739381Y2302135D1*
X1732782Y2301877D1*
X1726184Y2302135D1*
X1719626Y2302912D1*
X1713150Y2304199D1*
X1706794Y2305992D1*
X1700598Y2308278D1*
X1694601Y2311043D1*
X1688840Y2314269D1*
X1682802Y2318369D1*
X3646306Y4172710D2*
X3642206Y4178748D1*
X3638980Y4184509D1*
X3636215Y4190507D1*
X3633929Y4196702D1*
X3632136Y4203058D1*
X3630849Y4209534D1*
X3630072Y4216092D1*
X3629814Y4222690D1*
X3630072Y4229289D1*
X3630849Y4235846D1*
X3632136Y4242323D1*
X3633929Y4248678D1*
X3636215Y4254874D1*
X3638980Y4260871D1*
X3644743Y4270429D1*
X3333016Y4270602D1*
X3337072Y4264169D1*
X3341157Y4255946D1*
X3344323Y4247327D1*
X3346529Y4238415D1*
X3347751Y4229315D1*
X3347992Y4220853D1*
X3347290Y4211698D1*
X3345596Y4202675D1*
X3342927Y4193888D1*
X3339316Y4185448D1*
X3334807Y4177449D1*
X3331531Y4172690D1*
X3336148Y4165757D1*
X3340412Y4157626D1*
X3343765Y4149077D1*
X3346165Y4140215D1*
X3347587Y4131144D1*
X3348012Y4122690D1*
X3347510Y4113522D1*
X3346013Y4104463D1*
X3343537Y4095622D1*
X3340112Y4087102D1*
X3335778Y4079008D1*
X3330588Y4071434D1*
X3324602Y4064471D1*
X3317894Y4058202D1*
X3310542Y4052701D1*
X3302635Y4048035D1*
X3294265Y4044259D1*
X3285534Y4041417D1*
X3276546Y4039545D1*
X3267406Y4038663D1*
X3258226Y4038782D1*
X3249112Y4039903D1*
X3240175Y4042009D1*
X3231521Y4045079D1*
X3223253Y4049072D1*
X3215470Y4053942D1*
X3213917Y4055066D1*
X3207856Y4050983D1*
X3202094Y4047757D1*
X3196097Y4044992D1*
X3189902Y4042706D1*
X3183546Y4040913D1*
X3177070Y4039626D1*
X3170512Y4038849D1*
X3163913Y4038591D1*
X3157315Y4038849D1*
X3150757Y4039626D1*
X3144281Y4040913D1*
X3137925Y4042706D1*
X3131730Y4044992D1*
X3125732Y4047757D1*
X3120534Y4050668D1*
X3120512Y3891345D1*
X3188902Y3822686D1*
X3194122Y3815501D1*
X3198154Y3807588D1*
X3200899Y3799140D1*
X3202287Y3790369D1*
X3202462Y3767555D1*
Y3748717D1*
X3212214Y3747739D1*
X3218690Y3746451D1*
X3225046Y3744659D1*
X3231241Y3742373D1*
X3237239Y3739608D1*
X3243000Y3736382D1*
X3249038Y3732282D1*
X3255837Y3736819D1*
X3263959Y3741100D1*
X3272500Y3744471D1*
X3281357Y3746891D1*
X3290425Y3748331D1*
X3299596Y3748773D1*
X3308761Y3748213D1*
X3317810Y3746657D1*
X3326635Y3744125D1*
X3335133Y3740644D1*
X3343199Y3736259D1*
X3350740Y3731021D1*
X3357664Y3724991D1*
X3363891Y3718243D1*
X3369344Y3710856D1*
X3373959Y3702919D1*
X3377682Y3694525D1*
X3380467Y3685776D1*
X3382282Y3676776D1*
X3383106Y3667630D1*
X3383001Y3659618D1*
X3390274Y3657667D1*
X3400654Y3653367D1*
X3410234Y3647496D1*
X3418777Y3640199D1*
X3426073Y3631656D1*
X3431945Y3622076D1*
X3436244Y3611697D1*
X3438866Y3600772D1*
X3439748Y3589571D1*
X3438866Y3578370D1*
X3436244Y3567445D1*
X3431945Y3557066D1*
X3426073Y3547486D1*
X3418777Y3538942D1*
X3410234Y3531646D1*
X3400654Y3525774D1*
X3390274Y3521475D1*
X3379349Y3518853D1*
X3368148Y3517971D1*
X3364001Y3518134D1*
X3369344Y3510856D1*
X3373959Y3502919D1*
X3377682Y3494525D1*
X3380467Y3485776D1*
X3382282Y3476776D1*
X3383106Y3467630D1*
X3382978Y3459167D1*
X3381877Y3450051D1*
X3379789Y3441110D1*
X3376739Y3432449D1*
X3372762Y3424173D1*
X3367908Y3416379D1*
X3366677Y3414675D1*
X3371294Y3407741D1*
X3375558Y3399610D1*
X3378911Y3391062D1*
X3381311Y3382199D1*
X3382732Y3373129D1*
X3383157Y3364675D1*
X3382656Y3355507D1*
X3381159Y3346448D1*
X3378682Y3337606D1*
X3375257Y3329087D1*
X3370924Y3320992D1*
X3366677Y3314675D1*
X3370765Y3308617D1*
X3373991Y3302856D1*
X3376756Y3296858D1*
X3379042Y3290663D1*
X3380835Y3284307D1*
X3382122Y3277831D1*
X3382899Y3271273D1*
X3383157Y3264675D1*
X3382899Y3258076D1*
X3382122Y3251518D1*
X3380835Y3245042D1*
X3379042Y3238686D1*
X3376756Y3232491D1*
X3373991Y3226493D1*
X3370765Y3220732D1*
X3366665Y3214694D1*
X3371294Y3207741D1*
X3375558Y3199610D1*
X3378911Y3191062D1*
X3381311Y3182199D1*
X3382732Y3173129D1*
X3383085Y3168083D1*
X3388499Y3166156D1*
X3396412Y3162125D1*
X3403597Y3156904D1*
X3419852Y3140895D1*
X3627823Y2932678D1*
X3633043Y2925493D1*
X3637075Y2917580D1*
X3639820Y2909133D1*
X3641209Y2900361D1*
X3641383Y2877547D1*
Y2469652D1*
X3652415Y2467753D1*
X3658770Y2465961D1*
X3664966Y2463675D1*
X3670963Y2460909D1*
X3676724Y2457684D1*
X3682762Y2453584D1*
X3688840Y2457684D1*
X3694601Y2460909D1*
X3700598Y2463675D1*
X3706794Y2465961D1*
X3713150Y2467753D1*
X3719626Y2469041D1*
X3726184Y2469818D1*
X3732782Y2470076D1*
X3739381Y2469818D1*
X3745938Y2469041D1*
X3752415Y2467753D1*
X3758770Y2465961D1*
X3764966Y2463675D1*
X3770963Y2460909D1*
X3776724Y2457684D1*
X3782762Y2453584D1*
X3788840Y2457684D1*
X3794601Y2460909D1*
X3800598Y2463675D1*
X3810990Y2467143D1*
X3801379Y2471315D1*
X3795618Y2474541D1*
X3790127Y2478210D1*
X3784942Y2482298D1*
X3780093Y2486781D1*
X3775610Y2491630D1*
X3771522Y2496815D1*
X3767853Y2502306D1*
X3764627Y2508067D1*
X3761862Y2514064D1*
X3759576Y2520260D1*
X3757783Y2526615D1*
X3756496Y2533092D1*
X3755719Y2539650D1*
X3755461Y2546248D1*
X3755719Y2552846D1*
X3756496Y2559404D1*
X3757783Y2565881D1*
X3759576Y2572236D1*
X3761862Y2578432D1*
X3764627Y2584429D1*
X3767853Y2590190D1*
X3771522Y2595681D1*
X3777063Y2602438D1*
X3757457Y2602429D1*
X3751030Y2597980D1*
X3741020Y2592879D1*
X3730335Y2589407D1*
X3719238Y2587650D1*
X3708001D1*
X3696904Y2589407D1*
X3686219Y2592879D1*
X3676209Y2597980D1*
X3667119Y2604584D1*
X3659175Y2612529D1*
X3652571Y2621618D1*
X3647470Y2631629D1*
X3643997Y2642314D1*
X3642240Y2653411D1*
Y2664647D1*
X3643997Y2675744D1*
X3647470Y2686429D1*
X3652571Y2696440D1*
X3659175Y2705529D1*
X3667119Y2713474D1*
X3676209Y2720077D1*
X3686219Y2725178D1*
X3696904Y2728651D1*
X3708001Y2730408D1*
X3719238D1*
X3730335Y2728651D1*
X3741020Y2725178D1*
X3751030Y2720077D1*
X3757378Y2715635D1*
X4084268Y2715629D1*
X4090694Y2720077D1*
X4100705Y2725178D1*
X4111390Y2728651D1*
X4122487Y2730408D1*
X4133723D1*
X4144820Y2728651D1*
X4155505Y2725178D1*
X4165516Y2720077D1*
X4174605Y2713474D1*
X4182550Y2705529D1*
X4189154Y2696440D1*
X4194255Y2686429D1*
X4197727Y2675744D1*
X4199484Y2664647D1*
Y2653411D1*
X4197727Y2642314D1*
X4194255Y2631629D1*
X4189154Y2621618D1*
X4182550Y2612529D1*
X4174605Y2604584D1*
X4165516Y2597980D1*
X4155505Y2592879D1*
X4144820Y2589407D1*
X4133723Y2587650D1*
X4122487D1*
X4111390Y2589407D1*
X4100705Y2592879D1*
X4090694Y2597980D1*
X4084346Y2602423D1*
X3999747Y2602429D1*
X4004157Y2597635D1*
X4008245Y2592450D1*
X4011915Y2586959D1*
X4015140Y2581198D1*
X4017906Y2575201D1*
X4020192Y2569005D1*
X4021984Y2562650D1*
X4023272Y2556173D1*
X4024049Y2549615D1*
X4024307Y2543017D1*
X4024049Y2536419D1*
X4023272Y2529861D1*
X4021984Y2523385D1*
X4020192Y2517029D1*
X4017906Y2510833D1*
X4015140Y2504836D1*
X4011915Y2499075D1*
X4008245Y2493584D1*
X4004157Y2488399D1*
X3999675Y2483550D1*
X3994825Y2479067D1*
X3989640Y2474979D1*
X3984150Y2471310D1*
X3978388Y2468084D1*
X3972391Y2465319D1*
X3966365Y2463096D1*
X3976724Y2457684D1*
X3982215Y2454014D1*
X3987400Y2449927D1*
X3992249Y2445444D1*
X3996732Y2440594D1*
X4000820Y2435409D1*
X4004490Y2429919D1*
X4007715Y2424157D1*
X4010480Y2418160D1*
X4012766Y2411965D1*
X4014559Y2405609D1*
X4015846Y2399133D1*
X4016623Y2392575D1*
X4016882Y2385976D1*
X4016623Y2379378D1*
X4015846Y2372820D1*
X4014559Y2366344D1*
X4012766Y2359988D1*
X4010480Y2353793D1*
X4007715Y2347795D1*
X4004490Y2342034D1*
X4000820Y2336543D1*
X3996732Y2331358D1*
X3992249Y2326509D1*
X3987400Y2322026D1*
X3982215Y2317938D1*
X3976724Y2314269D1*
X3970963Y2311043D1*
X3964966Y2308278D1*
X3958770Y2305992D1*
X3952415Y2304199D1*
X3945938Y2302912D1*
X3939381Y2302135D1*
X3932782Y2301877D1*
X3926184Y2302135D1*
X3919626Y2302912D1*
X3913150Y2304199D1*
X3906794Y2305992D1*
X3900598Y2308278D1*
X3894601Y2311043D1*
X3888840Y2314269D1*
X3882802Y2318369D1*
X3876724Y2314269D1*
X3870963Y2311043D1*
X3864966Y2308278D1*
X3858770Y2305992D1*
X3852415Y2304199D1*
X3845938Y2302912D1*
X3839381Y2302135D1*
X3832782Y2301877D1*
X3826184Y2302135D1*
X3819626Y2302912D1*
X3813150Y2304199D1*
X3806794Y2305992D1*
X3800598Y2308278D1*
X3794601Y2311043D1*
X3788840Y2314269D1*
X3782802Y2318369D1*
X3776724Y2314269D1*
X3770963Y2311043D1*
X3764966Y2308278D1*
X3758770Y2305992D1*
X3752415Y2304199D1*
X3745938Y2302912D1*
X3739381Y2302135D1*
X3732782Y2301877D1*
X3726184Y2302135D1*
X3719626Y2302912D1*
X3713150Y2304199D1*
X3706794Y2305992D1*
X3700598Y2308278D1*
X3694601Y2311043D1*
X3688840Y2314269D1*
X3682802Y2318369D1*
X3676832Y2314341D1*
X3979887Y2011037D1*
X3985108Y2003852D1*
X3989139Y1995938D1*
X3991885Y1987491D1*
X3993273Y1978719D1*
X3993448Y1955906D1*
Y1844198D1*
X4000820Y1835409D1*
X4004490Y1829919D1*
X4007715Y1824157D1*
X4010480Y1818160D1*
X4012766Y1811965D1*
X4014559Y1805609D1*
X4015846Y1799133D1*
X4016623Y1792575D1*
X4016882Y1785976D1*
X4016663Y1780383D1*
X4024409Y1779596D1*
X4035335Y1776974D1*
X4045714Y1772675D1*
X4055294Y1766803D1*
X4063047Y1760238D1*
X4164604Y1760247D1*
X4171028Y1764696D1*
X4181038Y1769797D1*
X4191723Y1773269D1*
X4202820Y1775026D1*
X4214056D1*
X4225154Y1773269D1*
X4235839Y1769797D1*
X4245849Y1764696D1*
X4254938Y1758092D1*
X4257406Y1755811D1*
X4261643Y2944238D1*
X4256714Y2937083D1*
X4250728Y2930119D1*
X4244020Y2923850D1*
X4236668Y2918349D1*
X4228761Y2913684D1*
X4220391Y2909907D1*
X4211660Y2907066D1*
X4202672Y2905193D1*
X4193531Y2904311D1*
X4184352Y2904430D1*
X4175238Y2905551D1*
X4166301Y2907657D1*
X4157647Y2910727D1*
X4149379Y2914720D1*
X4141596Y2919591D1*
X4134391Y2925282D1*
X4130988Y2928462D1*
X4126546Y2924388D1*
X4121361Y2920301D1*
X4115870Y2916631D1*
X4110109Y2913406D1*
X4104112Y2910640D1*
X4097916Y2908354D1*
X4091560Y2906562D1*
X4085084Y2905274D1*
X4078526Y2904497D1*
X4071928Y2904239D1*
X4065329Y2904497D1*
X4058772Y2905274D1*
X4052295Y2906562D1*
X4045940Y2908354D1*
X4039744Y2910640D1*
X4033747Y2913406D1*
X4027986Y2916631D1*
X4022495Y2920301D1*
X4017310Y2924388D1*
X4012461Y2928871D1*
X4007978Y2933720D1*
X4003890Y2938906D1*
X4000220Y2944396D1*
X3996995Y2950157D1*
X3994230Y2956155D1*
X3991944Y2962350D1*
X3990151Y2968706D1*
X3988864Y2975182D1*
X3988087Y2981740D1*
X3987828Y2988339D1*
X3988087Y2994937D1*
X3988864Y3001495D1*
X3990151Y3007971D1*
X3991944Y3014327D1*
X3994230Y3020522D1*
X3996995Y3026520D1*
X4000220Y3032281D1*
X4003890Y3037772D1*
X4007978Y3042957D1*
X4012461Y3047806D1*
X4017310Y3052289D1*
X4022495Y3056377D1*
X4027986Y3060046D1*
X4033747Y3063272D1*
X4039744Y3066037D1*
X4045940Y3068323D1*
X4052295Y3070115D1*
X4058772Y3071403D1*
X4065329Y3072180D1*
X4071928Y3072438D1*
X4078526Y3072180D1*
X4085084Y3071403D1*
X4091560Y3070115D1*
X4097916Y3068323D1*
X4104112Y3066037D1*
X4110109Y3063272D1*
X4115870Y3060046D1*
X4121361Y3056377D1*
X4126546Y3052289D1*
X4130959Y3048209D1*
X4137759Y3054214D1*
X4145252Y3059521D1*
X4153278Y3063979D1*
X4161743Y3067535D1*
X4170546Y3070148D1*
X4179580Y3071786D1*
X4188739Y3072429D1*
X4197915Y3072070D1*
X4206995Y3070711D1*
X4215874Y3068371D1*
X4224445Y3065079D1*
X4232605Y3060870D1*
X4240259Y3055798D1*
X4247314Y3049921D1*
X4253685Y3043310D1*
X4259298Y3036045D1*
X4261955Y3031927D1*
X4262703Y3242290D1*
X4254379Y3237398D1*
X4248382Y3234633D1*
X4242186Y3232346D1*
X4235831Y3230554D1*
X4229354Y3229266D1*
X4222797Y3228490D1*
X4216198Y3228231D1*
X4209600Y3228490D1*
X4203042Y3229266D1*
X4196566Y3230554D1*
X4190210Y3232346D1*
X4184014Y3234633D1*
X4178017Y3237398D1*
X4172256Y3240623D1*
X4166218Y3244723D1*
X4160140Y3240623D1*
X4154379Y3237398D1*
X4148382Y3234633D1*
X4142186Y3232346D1*
X4135831Y3230554D1*
X4129354Y3229266D1*
X4122797Y3228490D1*
X4116198Y3228231D1*
X4109600Y3228490D1*
X4103042Y3229266D1*
X4096566Y3230554D1*
X4090210Y3232346D1*
X4084014Y3234633D1*
X4078017Y3237398D1*
X4069189Y3242673D1*
X4069004Y3171109D1*
X4067615Y3162337D1*
X4064870Y3153890D1*
X4060839Y3145976D1*
X4055618Y3138791D1*
X4039609Y3122537D1*
X3926428Y3009601D1*
X3919241Y3004381D1*
X3911328Y3000348D1*
X3902882Y2997604D1*
X3894109Y2996214D1*
X3871295Y2996039D1*
X3747819D1*
X3741365Y2991591D1*
X3731354Y2986490D1*
X3720668Y2983018D1*
X3709571Y2981260D1*
X3698336D1*
X3687239Y2983018D1*
X3676554Y2986490D1*
X3666543Y2991591D1*
X3657453Y2998194D1*
X3649509Y3006139D1*
X3642904Y3015228D1*
X3637804Y3025239D1*
X3634332Y3035925D1*
X3632575Y3047022D1*
Y3058257D1*
X3634332Y3069354D1*
X3637804Y3080039D1*
X3642904Y3090050D1*
X3649509Y3099140D1*
X3657453Y3107084D1*
X3666543Y3113689D1*
X3676554Y3118789D1*
X3687239Y3122261D1*
X3698336Y3124018D1*
X3709571D1*
X3720668Y3122261D1*
X3731354Y3118789D1*
X3741365Y3113689D1*
X3747713Y3109247D1*
X3866259Y3109240D1*
X3955988Y3199004D1*
X3955979Y3268024D1*
X3951530Y3274455D1*
X3946429Y3284466D1*
X3942957Y3295151D1*
X3941199Y3306248D1*
Y3317484D1*
X3942957Y3328581D1*
X3946429Y3339266D1*
X3951530Y3349277D1*
X3958134Y3358366D1*
X3966079Y3366311D1*
X3975168Y3372915D1*
X3985178Y3378016D1*
X3995864Y3381488D1*
X4006961Y3383245D1*
X4018197D1*
X4029294Y3381488D1*
X4039299Y3378266D1*
X4036214Y3386343D1*
X4034421Y3392698D1*
X4033134Y3399175D1*
X4032357Y3405732D1*
X4032098Y3412331D1*
X4032357Y3418929D1*
X4033134Y3425487D1*
X4034421Y3431963D1*
X4036214Y3438319D1*
X4038500Y3444514D1*
X4041265Y3450512D1*
X4044491Y3456273D1*
X4048591Y3462311D1*
X4044491Y3468388D1*
X4041265Y3474150D1*
X4038500Y3480147D1*
X4036214Y3486343D1*
X4034421Y3492698D1*
X4033134Y3499175D1*
X4032357Y3505732D1*
X4032098Y3512331D1*
X4032357Y3518929D1*
X4033134Y3525487D1*
X4034421Y3531963D1*
X4036214Y3538319D1*
X4038500Y3544514D1*
X4041265Y3550512D1*
X4044491Y3556273D1*
X4048591Y3562311D1*
X4044491Y3568388D1*
X4041265Y3574150D1*
X4038500Y3580147D1*
X4036214Y3586343D1*
X4034421Y3592698D1*
X4033134Y3599175D1*
X4032357Y3605732D1*
X4032098Y3612331D1*
X4032357Y3618929D1*
X4033134Y3625487D1*
X4034421Y3631963D1*
X4036214Y3638319D1*
X4038500Y3644514D1*
X4041265Y3650512D1*
X4044491Y3656273D1*
X4048591Y3662311D1*
X4044147Y3668955D1*
X4039848Y3677070D1*
X4036458Y3685602D1*
X4034020Y3694454D1*
X4032560Y3703520D1*
X4032098Y3712690D1*
X4032639Y3721856D1*
X4034176Y3730908D1*
X4036690Y3739739D1*
X4040151Y3748243D1*
X4044520Y3756319D1*
X4049741Y3763871D1*
X4055757Y3770808D1*
X4062492Y3777049D1*
X4069867Y3782518D1*
X4077795Y3787151D1*
X4086180Y3790891D1*
X4094923Y3793696D1*
X4103920Y3795530D1*
X4113063Y3796373D1*
X4122243Y3796213D1*
X4131352Y3795054D1*
X4140280Y3792909D1*
X4148920Y3789804D1*
X4157171Y3785776D1*
X4164933Y3780870D1*
X4166192Y3779954D1*
X4172978Y3784475D1*
X4181100Y3788756D1*
X4189640Y3792127D1*
X4198497Y3794547D1*
X4207566Y3795987D1*
X4216736Y3796429D1*
X4225902Y3795869D1*
X4234950Y3794314D1*
X4243776Y3791781D1*
X4252273Y3788301D1*
X4260340Y3783915D1*
X4264621Y3781088D1*
X4266362Y4270150D1*
X4183327Y4270157D1*
X4187961Y4262560D1*
X4191865Y4254251D1*
X4194841Y4245564D1*
X4196853Y4236606D1*
X4197875Y4227482D1*
X4197932Y4219017D1*
X4197030Y4209879D1*
X4195139Y4200895D1*
X4192278Y4192169D1*
X4188484Y4183808D1*
X4183802Y4175911D1*
X4181531Y4172690D1*
X4186148Y4165757D1*
X4190412Y4157626D1*
X4193765Y4149077D1*
X4196165Y4140215D1*
X4197587Y4131144D1*
X4198012Y4122690D1*
X4197510Y4113522D1*
X4196013Y4104463D1*
X4193537Y4095622D1*
X4190112Y4087102D1*
X4185778Y4079008D1*
X4180588Y4071434D1*
X4174602Y4064471D1*
X4167894Y4058202D1*
X4160542Y4052701D1*
X4152635Y4048035D1*
X4144265Y4044259D1*
X4135534Y4041417D1*
X4126546Y4039545D1*
X4117406Y4038663D1*
X4108226Y4038782D1*
X4099112Y4039903D1*
X4090175Y4042009D1*
X4081521Y4045079D1*
X4073253Y4049072D1*
X4065470Y4053942D1*
X4063917Y4055066D1*
X4057856Y4050983D1*
X4052094Y4047757D1*
X4046097Y4044992D1*
X4039902Y4042706D1*
X4033546Y4040913D1*
X4027070Y4039626D1*
X4020512Y4038849D1*
X4013913Y4038591D1*
X4007315Y4038849D1*
X4000757Y4039626D1*
X3994281Y4040913D1*
X3987925Y4042706D1*
X3981730Y4044992D1*
X3975732Y4047757D1*
X3969778Y4051113D1*
X3969621Y4012508D1*
X3968232Y4003736D1*
X3965487Y3995289D1*
X3961455Y3987375D1*
X3956235Y3980190D1*
X3940226Y3963936D1*
X3695038Y3718747D1*
X3693610Y3711026D1*
X3690138Y3700341D1*
X3685037Y3690331D1*
X3678433Y3681241D1*
X3670488Y3673297D1*
X3661399Y3666693D1*
X3651388Y3661592D1*
X3640703Y3658119D1*
X3629606Y3656362D1*
X3618370D1*
X3607273Y3658119D1*
X3596588Y3661592D1*
X3586577Y3666693D1*
X3577488Y3673297D1*
X3569543Y3681241D1*
X3562940Y3690331D1*
X3557839Y3700341D1*
X3554366Y3711026D1*
X3552609Y3722123D1*
Y3733360D1*
X3554366Y3744457D1*
X3557839Y3755142D1*
X3559448Y3758631D1*
X3554887Y3763518D1*
X3548283Y3772608D1*
X3543182Y3782618D1*
X3539710Y3793303D1*
X3537953Y3804400D1*
Y3815636D1*
X3539710Y3826734D1*
X3543182Y3837419D1*
X3548283Y3847429D1*
X3554887Y3856518D1*
X3562832Y3864463D1*
X3571921Y3871067D1*
X3581932Y3876168D1*
X3592617Y3879640D1*
X3603714Y3881398D1*
X3614950D1*
X3626047Y3879640D1*
X3634115Y3877134D1*
X3749852Y3992870D1*
Y4045701D1*
X3746097Y4044992D1*
X3739902Y4042706D1*
X3733546Y4040913D1*
X3727070Y4039626D1*
X3720512Y4038849D1*
X3713913Y4038591D1*
X3707315Y4038849D1*
X3700757Y4039626D1*
X3694281Y4040913D1*
X3687925Y4042706D1*
X3681730Y4044992D1*
X3675732Y4047757D1*
X3669971Y4050983D1*
X3664480Y4054652D1*
X3659295Y4058740D1*
X3654446Y4063223D1*
X3649963Y4068072D1*
X3645875Y4073257D1*
X3642206Y4078748D1*
X3638980Y4084509D1*
X3636215Y4090507D1*
X3633929Y4096702D1*
X3632136Y4103058D1*
X3630849Y4109534D1*
X3630072Y4116092D1*
X3629814Y4122690D1*
X3630072Y4129289D1*
X3630849Y4135846D1*
X3632136Y4142323D1*
X3633929Y4148678D1*
X3636215Y4154874D1*
X3638980Y4160871D1*
X3642206Y4166633D1*
X3646306Y4172671D1*
X1937860Y2469877D2*
X1945938Y2469041D1*
X1952415Y2467753D1*
X1958770Y2465961D1*
X1964966Y2463675D1*
X1970963Y2460909D1*
X1976724Y2457684D1*
X1982762Y2453584D1*
X1988840Y2457684D1*
X1994601Y2460909D1*
X2000598Y2463675D1*
X2006794Y2465961D1*
X2013150Y2467753D1*
X2019626Y2469041D1*
X2026184Y2469818D1*
X2032782Y2470076D1*
X2039381Y2469818D1*
X2045938Y2469041D1*
X2052415Y2467753D1*
X2058770Y2465961D1*
X2064966Y2463675D1*
X2070963Y2460909D1*
X2078976Y2456178D1*
X2082352Y2464303D1*
X2086992Y2471877D1*
X2092773Y2478642D1*
X2197885Y2583755D1*
X2192123Y2585887D1*
X2186126Y2588652D1*
X2180365Y2591878D1*
X2174327Y2595978D1*
X2168249Y2591878D1*
X2162488Y2588652D1*
X2156491Y2585887D1*
X2150295Y2583601D1*
X2143940Y2581808D1*
X2137463Y2580521D1*
X2130906Y2579744D1*
X2124307Y2579486D1*
X2117709Y2579744D1*
X2111151Y2580521D1*
X2104675Y2581808D1*
X2098319Y2583601D1*
X2092123Y2585887D1*
X2086126Y2588652D1*
X2080365Y2591878D1*
X2074327Y2595978D1*
X2066253Y2590693D1*
X2058058Y2586555D1*
X2049458Y2583335D1*
X2040560Y2581071D1*
X2031469Y2579791D1*
X2022290Y2579509D1*
X2013136Y2580231D1*
X2004117Y2581945D1*
X1995337Y2584633D1*
X1986903Y2588261D1*
X1978915Y2592787D1*
X1974312Y2595961D1*
X1966253Y2590693D1*
X1958058Y2586555D1*
X1949458Y2583335D1*
X1940560Y2581071D1*
X1937840Y2580587D1*
X1937839Y2469916D1*
X2262678Y2061181D2*
X2261976Y2052026D1*
X2260282Y2043003D1*
X2257613Y2034217D1*
X2257109Y2032881D1*
X2338623Y2032879D1*
X2427371Y2121629D1*
X2427382Y2302052D1*
X2419626Y2302912D1*
X2413150Y2304199D1*
X2406794Y2305992D1*
X2400598Y2308278D1*
X2394601Y2311043D1*
X2388840Y2314269D1*
X2382802Y2318369D1*
X2376724Y2314269D1*
X2370963Y2311043D1*
X2364966Y2308278D1*
X2358770Y2305992D1*
X2352415Y2304199D1*
X2345938Y2302912D1*
X2339381Y2302135D1*
X2332782Y2301877D1*
X2326261Y2302133D1*
X2314391Y2290513D1*
X2307206Y2285293D1*
X2299293Y2281261D1*
X2290845Y2278516D1*
X2282073Y2277127D1*
X2259260Y2276953D1*
X1980765Y2277127D1*
X1971993Y2278516D1*
X1963546Y2281261D1*
X1955633Y2285293D1*
X1948448Y2290513D1*
X1937850Y2300864D1*
X1937839Y2236597D1*
X1946415Y2240717D1*
X1952610Y2243003D1*
X1958966Y2244795D1*
X1965442Y2246083D1*
X1972000Y2246860D1*
X1978598Y2247118D1*
X1985197Y2246860D1*
X1991755Y2246083D1*
X1998231Y2244795D1*
X2004587Y2243003D1*
X2010782Y2240717D1*
X2016780Y2237951D1*
X2022541Y2234726D1*
X2028579Y2230626D1*
X2034656Y2234726D1*
X2040417Y2237951D1*
X2046415Y2240717D1*
X2052610Y2243003D1*
X2058966Y2244795D1*
X2065442Y2246083D1*
X2072000Y2246860D1*
X2078598Y2247118D1*
X2085197Y2246860D1*
X2091755Y2246083D1*
X2098231Y2244795D1*
X2104587Y2243003D1*
X2110782Y2240717D1*
X2116780Y2237951D1*
X2122541Y2234726D1*
X2128579Y2230626D1*
X2135378Y2235163D1*
X2143500Y2239444D1*
X2152041Y2242815D1*
X2160898Y2245235D1*
X2169966Y2246675D1*
X2179136Y2247117D1*
X2188302Y2246556D1*
X2197350Y2245001D1*
X2206176Y2242469D1*
X2214673Y2238988D1*
X2222740Y2234602D1*
X2230281Y2229365D1*
X2237205Y2223335D1*
X2243432Y2216587D1*
X2248885Y2209199D1*
X2253500Y2201262D1*
X2257223Y2192869D1*
X2260008Y2184119D1*
X2261823Y2175119D1*
X2262647Y2165974D1*
X2262518Y2157510D1*
X2261417Y2148395D1*
X2259329Y2139454D1*
X2256280Y2130793D1*
X2252303Y2122517D1*
X2247449Y2114723D1*
X2246218Y2113018D1*
X2250835Y2106085D1*
X2255098Y2097954D1*
X2258451Y2089406D1*
X2260852Y2080543D1*
X2262273Y2071472D1*
X2262698Y2063018D1*
X2262678Y2061181D1*
X1745798Y4214749D2*
X1745072Y4203755D1*
X1743266Y4192885D1*
X1740398Y4182245D1*
X1736493Y4171941D1*
X1731592Y4162072D1*
X1725741Y4152734D1*
X1718997Y4144020D1*
X1711428Y4136012D1*
X1703105Y4128790D1*
X1694112Y4122424D1*
X1684533Y4116975D1*
X1683755Y4116591D1*
X1693092Y4111390D1*
X1702155Y4105122D1*
X1710555Y4097990D1*
X1718210Y4090064D1*
X1725047Y4081423D1*
X1730999Y4072148D1*
X1736005Y4062333D1*
X1740021Y4052071D1*
X1743004Y4041463D1*
X1744928Y4030614D1*
X1745772Y4019627D1*
X1745571Y4009243D1*
X1744303Y3998297D1*
X1741963Y3987529D1*
X1738572Y3977045D1*
X1734164Y3966946D1*
X1728782Y3957331D1*
X1722476Y3948294D1*
X1715312Y3939921D1*
X1707356Y3932298D1*
X1698688Y3925496D1*
X1689390Y3919581D1*
X1679554Y3914613D1*
X1669277Y3910638D1*
X1658657Y3907697D1*
X1647801Y3905816D1*
X1636810Y3905017D1*
X1625794Y3905304D1*
X1614861Y3906677D1*
X1604117Y3909121D1*
X1593665Y3912613D1*
X1590814Y3913774D1*
X1590812Y3884596D1*
X1595064Y3879222D1*
X1598604Y3873925D1*
X1601715Y3868367D1*
X1604382Y3862583D1*
X1606588Y3856606D1*
X1608316Y3850475D1*
X1609559Y3844228D1*
X1610308Y3837902D1*
X1610558Y3831537D1*
X1610308Y3825172D1*
X1609559Y3818845D1*
X1608316Y3812598D1*
X1606588Y3806467D1*
X1604382Y3800491D1*
X1601715Y3794706D1*
X1598604Y3789148D1*
X1595064Y3783852D1*
X1591121Y3778849D1*
X1586797Y3774171D1*
X1582118Y3769846D1*
X1577115Y3765903D1*
X1571819Y3762364D1*
X1566261Y3759252D1*
X1560476Y3756585D1*
X1554500Y3754379D1*
X1548369Y3752651D1*
X1542122Y3751408D1*
X1535795Y3750659D1*
X1529430Y3750409D1*
X1523066Y3750659D1*
X1516739Y3751408D1*
X1510492Y3752651D1*
X1504361Y3754379D1*
X1498385Y3756585D1*
X1492600Y3759252D1*
X1487042Y3762364D1*
X1481745Y3765903D1*
X1476743Y3769846D1*
X1472064Y3774171D1*
X1467740Y3778849D1*
X1463797Y3783852D1*
X1460257Y3789148D1*
X1457146Y3794706D1*
X1454479Y3800491D1*
X1452273Y3806467D1*
X1450545Y3812598D1*
X1449302Y3818845D1*
X1448552Y3825172D1*
X1448303Y3831537D1*
X1448552Y3837902D1*
X1449302Y3844228D1*
X1450545Y3850475D1*
X1452273Y3856606D1*
X1454479Y3862583D1*
X1457146Y3868367D1*
X1460257Y3873925D1*
X1463797Y3879222D1*
X1467740Y3884224D1*
X1472064Y3888903D1*
X1477622Y3893920D1*
X1477613Y3913748D1*
X1467528Y3910075D1*
X1456862Y3907310D1*
X1445975Y3905608D1*
X1434972Y3904990D1*
X1423963Y3905458D1*
X1413054Y3907010D1*
X1402352Y3909631D1*
X1391959Y3913295D1*
X1381979Y3917966D1*
X1372508Y3923597D1*
X1363638Y3930135D1*
X1355457Y3937517D1*
X1348042Y3945669D1*
X1341469Y3954513D1*
X1338941Y3958475D1*
X1332693Y3950466D1*
X1325123Y3942458D1*
X1316801Y3935236D1*
X1307807Y3928870D1*
X1298228Y3923421D1*
X1288160Y3918945D1*
X1277699Y3915483D1*
X1266948Y3913068D1*
X1256010Y3911727D1*
X1244995Y3911471D1*
X1234007Y3912302D1*
X1223154Y3914213D1*
X1212543Y3917185D1*
X1202277Y3921188D1*
X1192455Y3926185D1*
X1183176Y3932125D1*
X1174526Y3938951D1*
X1166592Y3946598D1*
X1159450Y3954991D1*
X1153172Y3964046D1*
X1147909Y3973490D1*
X1143440Y3965341D1*
X1137285Y3956202D1*
X1130259Y3947714D1*
X1122429Y3939959D1*
X1113874Y3933016D1*
X1104675Y3926949D1*
X1094923Y3921819D1*
X1084711Y3917676D1*
X1074142Y3914560D1*
X1063318Y3912501D1*
X1052341Y3911521D1*
X1041323Y3911627D1*
X1030369Y3912820D1*
X1019585Y3915087D1*
X1009077Y3918406D1*
X998949Y3922745D1*
X989298Y3928063D1*
X980218Y3934306D1*
X971798Y3941413D1*
X964119Y3949318D1*
X957259Y3957940D1*
X951281Y3967197D1*
X946245Y3976997D1*
X942201Y3987248D1*
X939188Y3997846D1*
X937234Y4008692D1*
X936358Y4019676D1*
X936571Y4030693D1*
X937870Y4041635D1*
X940240Y4052396D1*
X943661Y4062871D1*
X948098Y4072958D1*
X953508Y4082556D1*
X959839Y4091576D1*
X967028Y4099928D1*
X975004Y4107529D1*
X983693Y4114307D1*
X993007Y4120194D1*
X998366Y4123030D1*
X989298Y4128063D1*
X980218Y4134306D1*
X971798Y4141413D1*
X964119Y4149318D1*
X957259Y4157940D1*
X951281Y4167197D1*
X946245Y4176997D1*
X942201Y4187248D1*
X939188Y4197846D1*
X937234Y4208692D1*
X936358Y4219676D1*
X936571Y4230693D1*
X937870Y4241635D1*
X940240Y4252396D1*
X943661Y4262871D1*
X947558Y4271856D1*
X456539Y4272108D1*
X456256Y4149142D1*
X464492Y4154869D1*
X470253Y4158094D1*
X476251Y4160860D1*
X482446Y4163146D1*
X488802Y4164938D1*
X495278Y4166226D1*
X501836Y4167003D1*
X508434Y4167261D1*
X515033Y4167003D1*
X521591Y4166226D1*
X528067Y4164938D1*
X534423Y4163146D1*
X540618Y4160860D1*
X546615Y4158094D1*
X552377Y4154869D1*
X558415Y4150769D1*
X564492Y4154869D1*
X570253Y4158094D1*
X576251Y4160860D1*
X582446Y4163146D1*
X588802Y4164938D1*
X595278Y4166226D1*
X601836Y4167003D1*
X608434Y4167261D1*
X615033Y4167003D1*
X621591Y4166226D1*
X628067Y4164938D1*
X634423Y4163146D1*
X640618Y4160860D1*
X646615Y4158094D1*
X652377Y4154869D1*
X657867Y4151199D1*
X663052Y4147112D1*
X667902Y4142629D1*
X672385Y4137780D1*
X676472Y4132594D1*
X680142Y4127104D1*
X683367Y4121343D1*
X686133Y4115345D1*
X688419Y4109150D1*
X690211Y4102794D1*
X691499Y4096318D1*
X692276Y4089760D1*
X692534Y4083161D1*
X692276Y4076563D1*
X691499Y4070005D1*
X690211Y4063529D1*
X688419Y4057173D1*
X686133Y4050978D1*
X683367Y4044980D1*
X680142Y4039219D1*
X676042Y4033181D1*
X680142Y4027105D1*
X683367Y4021344D1*
X686133Y4015346D1*
X688419Y4009151D1*
X690211Y4002795D1*
X691499Y3996319D1*
X692387Y3986900D1*
X894382Y3986710D1*
X903154Y3985322D1*
X911601Y3982576D1*
X919514Y3978545D1*
X926699Y3973324D1*
X942954Y3957315D1*
X1069647Y3830623D1*
X1068719Y3837971D1*
X1068470Y3844336D1*
X1068719Y3850701D1*
X1069469Y3857028D1*
X1070711Y3863274D1*
X1072440Y3869406D1*
X1074646Y3875382D1*
X1077312Y3881167D1*
X1080424Y3886724D1*
X1083963Y3892021D1*
X1087907Y3897024D1*
X1092231Y3901702D1*
X1096909Y3906026D1*
X1101912Y3909970D1*
X1107209Y3913509D1*
X1112766Y3916621D1*
X1118551Y3919287D1*
X1124528Y3921493D1*
X1130659Y3923222D1*
X1136906Y3924465D1*
X1143232Y3925214D1*
X1149597Y3925463D1*
X1155962Y3925214D1*
X1162289Y3924465D1*
X1168535Y3923222D1*
X1174667Y3921493D1*
X1180643Y3919287D1*
X1186428Y3916621D1*
X1191986Y3913509D1*
X1197282Y3909970D1*
X1202285Y3906026D1*
X1206963Y3901702D1*
X1211287Y3897024D1*
X1215231Y3892021D1*
X1218770Y3886724D1*
X1221882Y3881167D1*
X1224549Y3875382D1*
X1226755Y3869406D1*
X1228483Y3863274D1*
X1229726Y3857028D1*
X1230475Y3850701D1*
X1230724Y3844336D1*
X1230475Y3837971D1*
X1229726Y3831644D1*
X1228483Y3825398D1*
X1226755Y3819266D1*
X1224549Y3813290D1*
X1221882Y3807505D1*
X1218770Y3801948D1*
X1215231Y3796651D1*
X1211287Y3791648D1*
X1206963Y3786970D1*
X1202285Y3782646D1*
X1197282Y3778702D1*
X1191986Y3775163D1*
X1186428Y3772051D1*
X1180643Y3769385D1*
X1174667Y3767178D1*
X1168535Y3765450D1*
X1162289Y3764207D1*
X1155962Y3763458D1*
X1149597Y3763209D1*
X1143232Y3763458D1*
X1135857Y3764416D1*
X1309735Y3590535D1*
X1646399Y3590525D1*
X1652866Y3594974D1*
X1662877Y3600075D1*
X1667348Y3601724D1*
X1660357Y3608967D1*
X1656269Y3614152D1*
X1652600Y3619643D1*
X1649374Y3625404D1*
X1646609Y3631402D1*
X1644323Y3637597D1*
X1642530Y3643953D1*
X1641243Y3650429D1*
X1640466Y3656987D1*
X1640207Y3663585D1*
X1640466Y3670184D1*
X1641243Y3676741D1*
X1642530Y3683218D1*
X1644323Y3689573D1*
X1646609Y3695769D1*
X1649374Y3701766D1*
X1652600Y3707528D1*
X1656269Y3713018D1*
X1660357Y3718203D1*
X1664840Y3723052D1*
X1669689Y3727535D1*
X1674874Y3731623D1*
X1680365Y3735293D1*
X1686126Y3738518D1*
X1692123Y3741283D1*
X1698319Y3743570D1*
X1704675Y3745362D1*
X1711151Y3746650D1*
X1717709Y3747427D1*
X1724307Y3747685D1*
X1730906Y3747427D1*
X1737463Y3746650D1*
X1743940Y3745362D1*
X1750295Y3743570D1*
X1756491Y3741283D1*
X1762488Y3738518D1*
X1768249Y3735293D1*
X1774287Y3731193D1*
X1780365Y3735293D1*
X1786126Y3738518D1*
X1792123Y3741283D1*
X1798319Y3743570D1*
X1804675Y3745362D1*
X1811151Y3746650D1*
X1817709Y3747427D1*
X1824307Y3747685D1*
X1830906Y3747427D1*
X1837463Y3746650D1*
X1843940Y3745362D1*
X1850295Y3743570D1*
X1856491Y3741283D1*
X1862488Y3738518D1*
X1868249Y3735293D1*
X1874287Y3731193D1*
X1880365Y3735293D1*
X1886126Y3738518D1*
X1892123Y3741283D1*
X1898319Y3743570D1*
X1904675Y3745362D1*
X1911151Y3746650D1*
X1917709Y3747427D1*
X1924307Y3747685D1*
X1930906Y3747427D1*
X1937463Y3746650D1*
X1943940Y3745362D1*
X1950295Y3743570D1*
X1956491Y3741283D1*
X1962488Y3738518D1*
X1968249Y3735293D1*
X1974287Y3731193D1*
X1980365Y3735293D1*
X1986126Y3738518D1*
X1992123Y3741283D1*
X1998319Y3743570D1*
X2004675Y3745362D1*
X2011151Y3746650D1*
X2017709Y3747427D1*
X2024307Y3747685D1*
X2030906Y3747427D1*
X2037463Y3746650D1*
X2043940Y3745362D1*
X2050295Y3743570D1*
X2056491Y3741283D1*
X2062488Y3738518D1*
X2068249Y3735293D1*
X2074287Y3731193D1*
X2077923Y3733736D1*
X1981353Y3830301D1*
X1880710Y3830323D1*
X1870483Y3831127D1*
X1860507Y3833522D1*
X1851029Y3837449D1*
X1842281Y3842808D1*
X1834479Y3849471D1*
X1827816Y3857273D1*
X1822457Y3866021D1*
X1818530Y3875499D1*
X1816135Y3885475D1*
X1815331Y3895722D1*
Y3998151D1*
X1812614Y4005218D1*
X1809992Y4016143D1*
X1809110Y4027344D1*
X1809992Y4038545D1*
X1812614Y4049470D1*
X1816913Y4059849D1*
X1822785Y4069429D1*
X1830081Y4077972D1*
X1838625Y4085269D1*
X1848205Y4091140D1*
X1858584Y4095440D1*
X1869509Y4098062D1*
X1880710Y4098944D1*
X1891911Y4098062D1*
X1902836Y4095440D1*
X1913215Y4091140D1*
X1922795Y4085269D1*
X1931339Y4077972D1*
X1938635Y4069429D1*
X1944507Y4059849D1*
X1948806Y4049470D1*
X1951428Y4038545D1*
X1952310Y4027344D1*
X1951428Y4016143D1*
X1948806Y4005218D1*
X1946097Y3998289D1*
X1946089Y3961066D1*
X2013542Y3960881D1*
X2023675Y3959276D1*
X2033432Y3956105D1*
X2042572Y3951448D1*
X2050873Y3945417D1*
X2067634Y3928941D1*
X2254513Y3742062D1*
X2262488Y3738518D1*
X2268249Y3735293D1*
X2273740Y3731623D1*
X2278925Y3727535D1*
X2283774Y3723052D1*
X2288257Y3718203D1*
X2292345Y3713018D1*
X2296014Y3707528D1*
X2299240Y3701766D1*
X2302005Y3695769D1*
X2304291Y3689573D1*
X2306084Y3683218D1*
X2307371Y3676741D1*
X2308148Y3670184D1*
X2308407Y3663585D1*
X2308148Y3656987D1*
X2307371Y3650429D1*
X2306084Y3643953D1*
X2304291Y3637597D1*
X2302005Y3631402D1*
X2299240Y3625404D1*
X2296014Y3619643D1*
X2292345Y3614152D1*
X2288257Y3608967D1*
X2283774Y3604118D1*
X2278925Y3599635D1*
X2273740Y3595547D1*
X2268249Y3591878D1*
X2262488Y3588652D1*
X2256491Y3585887D1*
X2250295Y3583601D1*
X2245206Y3582167D1*
X2245199Y3304789D1*
X2251508Y3308425D1*
X2261887Y3312724D1*
X2266516Y3314030D1*
X2269675Y3321139D1*
X2275546Y3330719D1*
X2282843Y3339262D1*
X2291386Y3346559D1*
X2299643Y3351689D1*
X2301038Y3359180D1*
X2304510Y3369865D1*
X2309612Y3379875D1*
X2316215Y3388965D1*
X2324160Y3396909D1*
X2333249Y3403513D1*
X2343260Y3408614D1*
X2351642Y3411437D1*
X2351622Y3764047D1*
X2186446Y3929253D1*
X2178740Y3930667D1*
X2168055Y3934139D1*
X2158045Y3939240D1*
X2148955Y3945844D1*
X2141010Y3953789D1*
X2134407Y3962878D1*
X2129306Y3972888D1*
X2125833Y3983573D1*
X2124076Y3994671D1*
Y4005907D1*
X2125833Y4017004D1*
X2129306Y4027689D1*
X2134407Y4037699D1*
X2141010Y4046789D1*
X2148955Y4054734D1*
X2158045Y4061337D1*
X2161474Y4063259D1*
X2159262Y4072879D1*
X2158381Y4084080D1*
X2159262Y4095281D1*
X2161885Y4106206D1*
X2166184Y4116585D1*
X2172055Y4126165D1*
X2179352Y4134709D1*
X2187895Y4142005D1*
X2197475Y4147877D1*
X2207854Y4152176D1*
X2218780Y4154798D1*
X2229980Y4155680D1*
X2241181Y4154798D1*
X2252106Y4152176D1*
X2262486Y4147877D1*
X2272066Y4142005D1*
X2280609Y4134709D1*
X2287906Y4126165D1*
X2293777Y4116585D1*
X2298076Y4106206D1*
X2300698Y4095281D1*
X2300949Y4093165D1*
X2453634Y3940471D1*
X2463470Y3944501D1*
X2474395Y3947123D1*
X2476161Y3947333D1*
X2476357Y4053392D1*
X2477745Y4062164D1*
X2480491Y4070612D1*
X2484522Y4078525D1*
X2489743Y4085710D1*
X2505752Y4101965D1*
X2674717Y4270930D1*
X1731433Y4271441D1*
X1736005Y4262333D1*
X1740021Y4252071D1*
X1743004Y4241463D1*
X1744928Y4230614D1*
X1745772Y4219627D1*
X1745798Y4214749D1*
X1354352Y757870D2*
X1353575Y751312D1*
X1352287Y744836D1*
X1350495Y738480D1*
X1348209Y732285D1*
X1345444Y726287D1*
X1342218Y720526D1*
X1338549Y715035D1*
X1334461Y709850D1*
X1329978Y705001D1*
X1325129Y700518D1*
X1319944Y696430D1*
X1314453Y692761D1*
X1308692Y689535D1*
X1302694Y686770D1*
X1296499Y684484D1*
X1290143Y682692D1*
X1283667Y681404D1*
X1277109Y680627D1*
X1270510Y680369D1*
X1263912Y680627D1*
X1257354Y681404D1*
X1250878Y682692D1*
X1244522Y684484D1*
X1238327Y686770D1*
X1232329Y689535D1*
X1226568Y692761D1*
X1221077Y696430D1*
X1215892Y700518D1*
X1211043Y705001D1*
X1206560Y709850D1*
X1202472Y715035D1*
X1198803Y720526D1*
X1195577Y726287D1*
X1192812Y732285D1*
X1190526Y738480D1*
X1188734Y744836D1*
X1187446Y751312D1*
X1186669Y757870D1*
X1186411Y764469D1*
X1186669Y771067D1*
X1187446Y777625D1*
X1188734Y784101D1*
X1190526Y790457D1*
X1192812Y796652D1*
X1195577Y802650D1*
X1198803Y808411D1*
X1202472Y813902D1*
X1206560Y819087D1*
X1211043Y823936D1*
X1215892Y828419D1*
X1221077Y832507D1*
X1226568Y836176D1*
X1232329Y839402D1*
X1238327Y842167D1*
X1244522Y844453D1*
X1250878Y846245D1*
X1257354Y847533D1*
X1263912Y848310D1*
X1270510Y848568D1*
X1277109Y848310D1*
X1283667Y847533D1*
X1290143Y846245D1*
X1296499Y844453D1*
X1302694Y842167D1*
X1308692Y839402D1*
X1314453Y836176D1*
X1319944Y832507D1*
X1325129Y828419D1*
X1329978Y823936D1*
X1334461Y819087D1*
X1338549Y813902D1*
X1342218Y808411D1*
X1345444Y802650D1*
X1348209Y796652D1*
X1350495Y790457D1*
X1352287Y784101D1*
X1353575Y777625D1*
X1354352Y771067D1*
X1354610Y764469D1*
X1354352Y757870D1*
X3231440Y3414676D2*
X3229361Y3417618D1*
X3133921Y3322173D1*
X3140244Y3318711D1*
X3149333Y3312108D1*
X3157278Y3304163D1*
X3163882Y3295073D1*
X3168983Y3285063D1*
X3172455Y3274378D1*
X3173802Y3266748D1*
X3229152Y3211388D1*
X3231437Y3214676D1*
X3227350Y3220732D1*
X3224125Y3226493D1*
X3221360Y3232491D1*
X3219073Y3238686D1*
X3217281Y3245042D1*
X3215993Y3251518D1*
X3215217Y3258076D1*
X3214958Y3264675D1*
X3215217Y3271273D1*
X3215993Y3277831D1*
X3217281Y3284307D1*
X3219073Y3290663D1*
X3221360Y3296858D1*
X3224125Y3302856D1*
X3227350Y3308617D1*
X3231450Y3314655D1*
X3227007Y3321299D1*
X3222707Y3329413D1*
X3219318Y3337946D1*
X3216879Y3346798D1*
X3215420Y3355864D1*
X3214958Y3365034D1*
X3215499Y3374199D1*
X3217035Y3383252D1*
X3219550Y3392083D1*
X3223010Y3400587D1*
X3227379Y3408663D1*
X3231437Y3414676D1*
X3231450Y3014694D2*
X3227350Y3020732D1*
X3224125Y3026493D1*
X3221360Y3032491D1*
X3219073Y3038686D1*
X3217281Y3045042D1*
X3215993Y3051518D1*
X3215217Y3058076D1*
X3215046Y3066917D1*
X3209874Y3070825D1*
X3193619Y3086833D1*
X3093823Y3186629D1*
X3086118Y3188041D1*
X3075433Y3191513D1*
X3065423Y3196614D1*
X3056333Y3203218D1*
X3048388Y3211163D1*
X3041785Y3220252D1*
X3038366Y3226613D1*
X2936867Y3125118D1*
X2936882Y2847186D1*
X2983377Y2847175D1*
X2989835Y2851623D1*
X2999845Y2856724D1*
X3010530Y2860197D1*
X3021627Y2861954D1*
X3032864D1*
X3043961Y2860197D1*
X3054646Y2856724D1*
X3064656Y2851623D1*
X3073745Y2845020D1*
X3081690Y2837075D1*
X3088294Y2827986D1*
X3093395Y2817975D1*
X3096867Y2807290D1*
X3098625Y2796193D1*
X3098644Y2785462D1*
X3107087Y2783272D1*
X3117466Y2778972D1*
X3121241Y2776858D1*
X3117375Y2784778D1*
X3113903Y2795463D1*
X3112146Y2806560D1*
Y2817797D1*
X3113903Y2828894D1*
X3117375Y2839579D1*
X3122476Y2849589D1*
X3129080Y2858678D1*
X3137025Y2866623D1*
X3146114Y2873227D1*
X3156125Y2878328D1*
X3166810Y2881801D1*
X3177907Y2883558D1*
X3189143D1*
X3200240Y2881801D1*
X3210925Y2878328D1*
X3215731Y2876113D1*
X3217281Y2884307D1*
X3219073Y2890663D1*
X3221360Y2896858D1*
X3224125Y2902856D1*
X3227350Y2908617D1*
X3231450Y2914655D1*
X3227350Y2920732D1*
X3224125Y2926493D1*
X3221360Y2932491D1*
X3219073Y2938686D1*
X3217281Y2945042D1*
X3215993Y2951518D1*
X3215217Y2958076D1*
X3214958Y2964675D1*
X3215217Y2971273D1*
X3215993Y2977831D1*
X3217281Y2984307D1*
X3219073Y2990663D1*
X3221360Y2996858D1*
X3224125Y3002856D1*
X3227350Y3008617D1*
X3231450Y3014655D1*
X1682776Y1718353D2*
X1676311Y1714017D1*
X1668207Y1709701D1*
X1659681Y1706294D1*
X1650833Y1703836D1*
X1641772Y1702358D1*
X1632602Y1701877D1*
X1623436Y1702398D1*
X1614381Y1703915D1*
X1608407Y1705491D1*
X1625739Y1688160D1*
X1741416Y1688161D1*
X1737436Y1693018D1*
X1732787Y1700608D1*
X1726184Y1702135D1*
X1719626Y1702912D1*
X1713150Y1704199D1*
X1706794Y1705992D1*
X1700598Y1708278D1*
X1694601Y1711043D1*
X1688840Y1714269D1*
X1682802Y1718369D1*
X2949051Y3597051D2*
X2942587Y3592715D1*
X2934483Y3588399D1*
X2925957Y3584992D1*
X2917109Y3582534D1*
X2908047Y3581056D1*
X2898878Y3580575D1*
X2889711Y3581096D1*
X2881996Y3582327D1*
X2869396Y3569504D1*
X2863615Y3562739D1*
X2789360Y3488482D1*
X2789382Y3198070D1*
X2799256Y3208261D1*
X3045307Y3454312D1*
X3041785Y3459542D1*
X3036684Y3469552D1*
X3033211Y3480238D1*
X3031454Y3491335D1*
Y3502571D1*
X3033211Y3513668D1*
X3036684Y3524353D1*
X3041785Y3534364D1*
X3042455Y3535367D1*
X3042458Y3592656D1*
X3037239Y3589741D1*
X3031241Y3586976D1*
X3025046Y3584690D1*
X3018690Y3582898D1*
X3012214Y3581610D1*
X3005656Y3580833D1*
X2999058Y3580575D1*
X2992459Y3580833D1*
X2985902Y3581610D1*
X2979425Y3582898D1*
X2973070Y3584690D1*
X2966874Y3586976D1*
X2960877Y3589741D1*
X2955115Y3592967D1*
X2949077Y3597067D1*
X2908510Y3748239D2*
X2917810Y3746657D1*
X2926635Y3744125D1*
X2935133Y3740644D1*
X2943199Y3736259D1*
X2949051Y3732298D1*
X2955115Y3736382D1*
X2960877Y3739608D1*
X2966874Y3742373D1*
X2973070Y3744659D1*
X2979425Y3746451D1*
X2985902Y3747739D1*
X2992459Y3748516D1*
X2999058Y3748774D1*
X3005656Y3748516D1*
X3012214Y3747739D1*
X3018690Y3746451D1*
X3025046Y3744659D1*
X3031241Y3742373D1*
X3037239Y3739608D1*
X3043000Y3736382D1*
X3049038Y3732282D1*
X3055115Y3736382D1*
X3060877Y3739608D1*
X3066874Y3742373D1*
X3073070Y3744659D1*
X3079425Y3746451D1*
X3089257Y3748136D1*
X3089262Y3762493D1*
X3020873Y3831119D1*
X3015652Y3838304D1*
X3011621Y3846218D1*
X3008875Y3854665D1*
X3007487Y3863437D1*
X3007312Y3886251D1*
Y4046976D1*
X2997438Y4036806D1*
X2908503Y3947870D1*
X2908516Y3748238D1*
X1974287Y3595978D2*
X1968249Y3591878D1*
X1962488Y3588652D1*
X1956491Y3585887D1*
X1950295Y3583601D1*
X1943940Y3581808D1*
X1937463Y3580521D1*
X1931546Y3579820D1*
X1931564Y2747350D1*
X1939461Y2746308D1*
X1948388Y2744164D1*
X1957029Y2741059D1*
X1965280Y2737030D1*
X1973042Y2732125D1*
X1974301Y2731209D1*
X1981087Y2735730D1*
X1989209Y2740010D1*
X1997749Y2743382D1*
X2006606Y2745802D1*
X2015675Y2747241D1*
X2024845Y2747684D1*
X2034010Y2747123D1*
X2043059Y2745568D1*
X2051885Y2743035D1*
X2058929Y2740226D1*
X2059129Y2795222D1*
X2060734Y2805354D1*
X2063904Y2815112D1*
X2068562Y2824252D1*
X2074592Y2832552D1*
X2091068Y2849314D1*
X2114437Y2872682D1*
X2114441Y3580047D1*
X2105906Y3581524D1*
X2097068Y3584018D1*
X2088558Y3587462D1*
X2080471Y3591812D1*
X2074312Y3595961D1*
X2068249Y3591878D1*
X2062488Y3588652D1*
X2056491Y3585887D1*
X2050295Y3583601D1*
X2043940Y3581808D1*
X2037463Y3580521D1*
X2030906Y3579744D1*
X2024307Y3579486D1*
X2017709Y3579744D1*
X2011151Y3580521D1*
X2004675Y3581808D1*
X1998319Y3583601D1*
X1992123Y3585887D1*
X1986126Y3588652D1*
X1980365Y3591878D1*
X1974327Y3595978D1*
X3628890Y1869924D2*
X3639381Y1869818D1*
X3645938Y1869041D1*
X3652415Y1867753D1*
X3658770Y1865961D1*
X3664966Y1863675D1*
X3670963Y1860909D1*
X3676724Y1857684D1*
X3682762Y1853584D1*
X3688840Y1857684D1*
X3694601Y1860909D1*
X3700598Y1863675D1*
X3706794Y1865961D1*
X3713150Y1867753D1*
X3719626Y1869041D1*
X3726184Y1869818D1*
X3732782Y1870076D1*
X3739381Y1869818D1*
X3745938Y1869041D1*
X3752415Y1867753D1*
X3758770Y1865961D1*
X3764966Y1863675D1*
X3770963Y1860909D1*
X3776724Y1857684D1*
X3782762Y1853584D1*
X3788840Y1857684D1*
X3794601Y1860909D1*
X3800598Y1863675D1*
X3806794Y1865961D1*
X3813150Y1867753D1*
X3819626Y1869041D1*
X3826184Y1869818D1*
X3832782Y1870076D1*
X3839381Y1869818D1*
X3845938Y1869041D1*
X3852415Y1867753D1*
X3858770Y1865961D1*
X3864966Y1863675D1*
X3870963Y1860909D1*
X3880264Y1855319D1*
X3880248Y1950865D1*
X3596778Y2234303D1*
X3592831Y2228207D1*
X3585534Y2219664D1*
X3576991Y2212367D1*
X3567411Y2206496D1*
X3557031Y2202197D1*
X3546106Y2199575D1*
X3534906Y2198693D1*
X3523705Y2199575D1*
X3512780Y2202197D1*
X3502400Y2206496D1*
X3492820Y2212367D1*
X3491147Y2213686D1*
X3247509Y2213693D1*
X3079004Y2045218D1*
X3077612Y2037533D1*
X3074139Y2026848D1*
X3069038Y2016837D1*
X3062434Y2007748D1*
X3054490Y1999803D1*
X3045400Y1993199D1*
X3035390Y1988098D1*
X3024705Y1984626D1*
X3013608Y1982869D1*
X3002371D1*
X2991274Y1984626D1*
X2980589Y1988098D1*
X2970579Y1993199D1*
X2961490Y1999803D1*
X2953545Y2007748D1*
X2946941Y2016837D1*
X2944762Y2020727D1*
X2889391Y1965370D1*
X2889382Y1937528D1*
X2893286Y1943530D1*
X2900583Y1952073D1*
X2909126Y1959370D1*
X2918706Y1965241D1*
X2929085Y1969541D1*
X2940010Y1972163D1*
X2951211Y1973045D1*
X2962412Y1972163D1*
X2973337Y1969541D1*
X2983717Y1965241D1*
X2992000Y1960236D1*
X3017777Y1960234D1*
X3108129Y2050556D1*
X3109552Y2058273D1*
X3113025Y2068958D1*
X3118126Y2078969D1*
X3124730Y2088058D1*
X3132675Y2096003D1*
X3141764Y2102606D1*
X3151774Y2107707D1*
X3162459Y2111180D1*
X3173556Y2112937D1*
X3184793D1*
X3195890Y2111180D1*
X3206575Y2107707D1*
X3216585Y2102606D1*
X3225675Y2096003D1*
X3233619Y2088058D1*
X3240223Y2078969D1*
X3245324Y2068958D1*
X3248797Y2058273D1*
X3250554Y2047176D1*
Y2035940D1*
X3248797Y2024843D1*
X3245324Y2014157D1*
X3240223Y2004147D1*
X3233619Y1995058D1*
X3225675Y1987113D1*
X3216585Y1980509D1*
X3206575Y1975408D1*
X3195890Y1971936D1*
X3188260Y1970589D1*
X3107730Y1890068D1*
X3589722Y1889903D1*
X3598493Y1888514D1*
X3606941Y1885769D1*
X3614854Y1881738D1*
X3622039Y1876517D1*
X3625315Y1873487D1*
X1408318Y3050589D2*
X1407541Y3044031D1*
X1406253Y3037555D1*
X1404461Y3031199D1*
X1402175Y3025004D1*
X1399409Y3019007D1*
X1396184Y3013245D1*
X1392514Y3007755D1*
X1388427Y3002570D1*
X1383944Y2997720D1*
X1379094Y2993238D1*
X1373909Y2989150D1*
X1368419Y2985480D1*
X1362657Y2982255D1*
X1356660Y2979490D1*
X1350465Y2977203D1*
X1344109Y2975411D1*
X1337633Y2974123D1*
X1331075Y2973346D1*
X1324476Y2973088D1*
X1317878Y2973346D1*
X1311320Y2974123D1*
X1304844Y2975411D1*
X1298488Y2977203D1*
X1292293Y2979490D1*
X1286295Y2982255D1*
X1280534Y2985480D1*
X1275043Y2989150D1*
X1269858Y2993238D1*
X1265009Y2997720D1*
X1260526Y3002570D1*
X1256438Y3007755D1*
X1252769Y3013245D1*
X1249543Y3019007D1*
X1246778Y3025004D1*
X1244492Y3031199D1*
X1242699Y3037555D1*
X1241412Y3044031D1*
X1240635Y3050589D1*
X1240377Y3057188D1*
X1240635Y3063786D1*
X1241412Y3070344D1*
X1242699Y3076820D1*
X1244492Y3083176D1*
X1246778Y3089371D1*
X1249543Y3095369D1*
X1252769Y3101130D1*
X1256194Y3106256D1*
X1251496Y3113522D1*
X1247375Y3121727D1*
X1244173Y3130332D1*
X1241929Y3139235D1*
X1240668Y3148331D1*
X1240407Y3157508D1*
X1241147Y3166660D1*
X1242881Y3175677D1*
X1245587Y3184450D1*
X1249234Y3192877D1*
X1253777Y3200856D1*
X1255413Y3203293D1*
X1250580Y3210354D1*
X1247354Y3216115D1*
X1244589Y3222113D1*
X1242303Y3228308D1*
X1240510Y3234664D1*
X1239223Y3241140D1*
X1238446Y3247698D1*
X1238188Y3254297D1*
X1238446Y3260895D1*
X1239223Y3267453D1*
X1240510Y3273929D1*
X1242303Y3280285D1*
X1244589Y3286480D1*
X1247354Y3292478D1*
X1250580Y3298239D1*
X1254249Y3303730D1*
X1258337Y3308915D1*
X1262820Y3313764D1*
X1267669Y3318247D1*
X1272854Y3322335D1*
X1278345Y3326004D1*
X1284106Y3329230D1*
X1290104Y3331995D1*
X1296299Y3334281D1*
X1302655Y3336073D1*
X1309131Y3337361D1*
X1315689Y3338138D1*
X1322287Y3338396D1*
X1328886Y3338138D1*
X1335444Y3337361D1*
X1341920Y3336073D1*
X1348276Y3334281D1*
X1354471Y3331995D1*
X1360469Y3329230D1*
X1366230Y3326004D1*
X1371720Y3322335D1*
X1376906Y3318247D1*
X1381755Y3313764D1*
X1386238Y3308915D1*
X1390325Y3303730D1*
X1393995Y3298239D1*
X1397220Y3292478D1*
X1399986Y3286480D1*
X1402272Y3280285D1*
X1404064Y3273929D1*
X1405352Y3267453D1*
X1406129Y3260895D1*
X1406387Y3254297D1*
X1406129Y3247698D1*
X1405352Y3241140D1*
X1404064Y3234664D1*
X1402272Y3228308D1*
X1399986Y3222113D1*
X1397220Y3216115D1*
X1391315Y3206344D1*
X1395756Y3199948D1*
X1400197Y3191911D1*
X1403735Y3183438D1*
X1406329Y3174630D1*
X1407948Y3165592D1*
X1408571Y3156432D1*
X1408257Y3147972D1*
X1406958Y3138883D1*
X1404675Y3129990D1*
X1401436Y3121398D1*
X1397281Y3113210D1*
X1392780Y3106253D1*
X1396184Y3101130D1*
X1399409Y3095369D1*
X1402175Y3089371D1*
X1404461Y3083176D1*
X1406253Y3076820D1*
X1407541Y3070344D1*
X1408318Y3063786D1*
X1408576Y3057188D1*
X1408318Y3050589D1*
X1195444Y2918377D2*
X1194667Y2911819D1*
X1193379Y2905343D1*
X1191587Y2898987D1*
X1189301Y2892791D1*
X1186535Y2886794D1*
X1181260Y2877966D1*
X1185651Y2870731D1*
X1189555Y2862421D1*
X1192531Y2853735D1*
X1194543Y2844777D1*
X1195566Y2835652D1*
X1195622Y2827188D1*
X1194720Y2818050D1*
X1192829Y2809066D1*
X1189969Y2800340D1*
X1186175Y2791979D1*
X1181301Y2783803D1*
X1186535Y2774927D1*
X1189301Y2768929D1*
X1191587Y2762734D1*
X1193379Y2756378D1*
X1194667Y2749902D1*
X1195444Y2743344D1*
X1195702Y2736745D1*
X1195444Y2730147D1*
X1194667Y2723589D1*
X1193379Y2717113D1*
X1191587Y2710757D1*
X1189301Y2704562D1*
X1186535Y2698564D1*
X1183310Y2692803D1*
X1179640Y2687312D1*
X1175552Y2682127D1*
X1171070Y2677278D1*
X1166220Y2672795D1*
X1161035Y2668707D1*
X1155545Y2665038D1*
X1149783Y2661812D1*
X1143786Y2659047D1*
X1137591Y2656761D1*
X1131235Y2654969D1*
X1124759Y2653681D1*
X1118201Y2652904D1*
X1111602Y2652646D1*
X1105004Y2652904D1*
X1098446Y2653681D1*
X1091970Y2654969D1*
X1085614Y2656761D1*
X1079419Y2659047D1*
X1073421Y2661812D1*
X1067660Y2665038D1*
X1062169Y2668707D1*
X1056984Y2672795D1*
X1052135Y2677278D1*
X1047652Y2682127D1*
X1043564Y2687312D1*
X1039895Y2692803D1*
X1036669Y2698564D1*
X1033904Y2704562D1*
X1031618Y2710757D1*
X1029825Y2717113D1*
X1028538Y2723589D1*
X1027761Y2730147D1*
X1027503Y2736745D1*
X1027761Y2743344D1*
X1028538Y2749902D1*
X1029825Y2756378D1*
X1031618Y2762734D1*
X1033904Y2768929D1*
X1036669Y2774927D1*
X1041945Y2783755D1*
X1037724Y2790675D1*
X1033785Y2798967D1*
X1030772Y2807640D1*
X1028722Y2816591D1*
X1027660Y2825711D1*
X1027598Y2834892D1*
X1028539Y2844026D1*
X1030470Y2853003D1*
X1033367Y2861715D1*
X1037197Y2870060D1*
X1041902Y2877920D1*
X1036669Y2886794D1*
X1033904Y2892791D1*
X1031618Y2898987D1*
X1029825Y2905343D1*
X1028538Y2911819D1*
X1027761Y2918377D1*
X1027503Y2924975D1*
X1027761Y2931573D1*
X1028538Y2938131D1*
X1029825Y2944608D1*
X1031618Y2950963D1*
X1033904Y2957159D1*
X1036669Y2963156D1*
X1041945Y2971984D1*
X1037724Y2978904D1*
X1033785Y2987197D1*
X1030772Y2995870D1*
X1028722Y3004820D1*
X1027660Y3013941D1*
X1027598Y3023122D1*
X1028539Y3032256D1*
X1030470Y3041232D1*
X1033367Y3049945D1*
X1037197Y3058290D1*
X1041902Y3066150D1*
X1036669Y3075024D1*
X1033904Y3081021D1*
X1031618Y3087217D1*
X1029825Y3093572D1*
X1028538Y3100049D1*
X1027761Y3106606D1*
X1027503Y3113205D1*
X1027761Y3119803D1*
X1028538Y3126361D1*
X1029825Y3132837D1*
X1031618Y3139193D1*
X1033904Y3145388D1*
X1036669Y3151386D1*
X1039895Y3157147D1*
X1043564Y3162638D1*
X1047652Y3167823D1*
X1052135Y3172672D1*
X1056984Y3177155D1*
X1062169Y3181243D1*
X1067660Y3184912D1*
X1073421Y3188138D1*
X1079419Y3190903D1*
X1085614Y3193189D1*
X1091970Y3194982D1*
X1098446Y3196269D1*
X1105004Y3197046D1*
X1111602Y3197304D1*
X1118201Y3197046D1*
X1124759Y3196269D1*
X1131235Y3194982D1*
X1137591Y3193189D1*
X1143786Y3190903D1*
X1149783Y3188138D1*
X1155545Y3184912D1*
X1161035Y3181243D1*
X1166220Y3177155D1*
X1171070Y3172672D1*
X1175552Y3167823D1*
X1179640Y3162638D1*
X1183310Y3157147D1*
X1186535Y3151386D1*
X1189301Y3145388D1*
X1191587Y3139193D1*
X1193379Y3132837D1*
X1194667Y3126361D1*
X1195444Y3119803D1*
X1195702Y3113205D1*
X1195444Y3106606D1*
X1194667Y3100049D1*
X1193379Y3093572D1*
X1191587Y3087217D1*
X1189301Y3081021D1*
X1186535Y3075024D1*
X1181260Y3066196D1*
X1185651Y3058961D1*
X1189555Y3050651D1*
X1192531Y3041965D1*
X1194543Y3033007D1*
X1195566Y3023882D1*
X1195622Y3015417D1*
X1194720Y3006280D1*
X1192829Y2997295D1*
X1189969Y2988570D1*
X1186175Y2980209D1*
X1181301Y2972033D1*
X1186535Y2963156D1*
X1189301Y2957159D1*
X1191587Y2950963D1*
X1193379Y2944608D1*
X1194667Y2938131D1*
X1195444Y2931573D1*
X1195702Y2924975D1*
X1195444Y2918377D1*
X462375Y1241391D2*
X457942Y1248014D1*
X453643Y1256129D1*
X450253Y1264661D1*
X449088Y1268440D1*
X448953Y1213896D1*
X452295Y1223573D1*
X455060Y1229571D1*
X458286Y1235332D1*
X462386Y1241370D1*
Y1141409D2*
X458286Y1147448D1*
X455060Y1153209D1*
X452295Y1159206D1*
X448840Y1169547D1*
X448861Y1113531D1*
X451759Y1122244D1*
X455588Y1130589D1*
X460304Y1138467D1*
X462373Y1141391D1*
X462375Y1041391D2*
X457942Y1048014D1*
X453643Y1056129D1*
X450253Y1064661D1*
X448596Y1070255D1*
X448450Y1011941D1*
X452295Y1023573D1*
X455060Y1029571D1*
X458286Y1035332D1*
X462386Y1041370D1*
Y941409D2*
X458286Y947448D1*
X455060Y953209D1*
X452295Y959206D1*
X450009Y965402D1*
X448350Y971285D1*
X448396Y911755D1*
X451102Y920528D1*
X454749Y928954D1*
X459293Y936933D1*
X462373Y941391D1*
X1316864Y2196346D2*
X1316161Y2187192D1*
X1314467Y2178168D1*
X1311798Y2169382D1*
X1308188Y2160941D1*
X1303678Y2152942D1*
X1298323Y2145483D1*
X1292188Y2138652D1*
X1285344Y2132531D1*
X1277874Y2127193D1*
X1269866Y2122701D1*
X1261416Y2119108D1*
X1252625Y2116458D1*
X1243597Y2114782D1*
X1234441Y2114100D1*
X1225265Y2114420D1*
X1216178Y2115739D1*
X1207290Y2118041D1*
X1198705Y2121298D1*
X1190526Y2125471D1*
X1182852Y2130510D1*
X1175772Y2136357D1*
X1169371Y2142941D1*
X1163727Y2150184D1*
X1158906Y2157997D1*
X1154966Y2166290D1*
X1151953Y2174963D1*
X1149903Y2183913D1*
X1148841Y2193034D1*
X1148780Y2202215D1*
X1149720Y2211349D1*
X1151651Y2220325D1*
X1154549Y2229038D1*
X1158378Y2237383D1*
X1163094Y2245261D1*
X1168642Y2252577D1*
X1172579Y2256902D1*
X1161907Y2256198D1*
X1155542Y2256448D1*
X1149215Y2257197D1*
X1142969Y2258440D1*
X1136837Y2260168D1*
X1130861Y2262374D1*
X1125076Y2265041D1*
X1119518Y2268152D1*
X1114222Y2271692D1*
X1109219Y2275635D1*
X1104541Y2279959D1*
X1100217Y2284638D1*
X1096273Y2289640D1*
X1092734Y2294937D1*
X1089622Y2300495D1*
X1086955Y2306280D1*
X1084749Y2312256D1*
X1083021Y2318387D1*
X1081778Y2324634D1*
X1081029Y2330961D1*
X1080780Y2337325D1*
X1081029Y2343690D1*
X1081778Y2350017D1*
X1083021Y2356264D1*
X1084749Y2362395D1*
X1086955Y2368371D1*
X1089622Y2374156D1*
X1092734Y2379714D1*
X1096273Y2385010D1*
X1100217Y2390013D1*
X1104541Y2394692D1*
X1109219Y2399016D1*
X1114222Y2402959D1*
X1119518Y2406499D1*
X1125076Y2409610D1*
X1130861Y2412277D1*
X1136837Y2414483D1*
X1142969Y2416211D1*
X1149215Y2417454D1*
X1155542Y2418203D1*
X1161907Y2418453D1*
X1168272Y2418203D1*
X1174598Y2417454D1*
X1180845Y2416211D1*
X1186976Y2414483D1*
X1192953Y2412277D1*
X1198738Y2409610D1*
X1204295Y2406499D1*
X1209592Y2402959D1*
X1214594Y2399016D1*
X1219273Y2394692D1*
X1223597Y2390013D1*
X1227541Y2385010D1*
X1231080Y2379714D1*
X1234192Y2374156D1*
X1236858Y2368371D1*
X1239064Y2362395D1*
X1240793Y2356264D1*
X1242035Y2350017D1*
X1242785Y2343690D1*
X1243034Y2337325D1*
X1242785Y2330961D1*
X1242035Y2324634D1*
X1240793Y2318387D1*
X1239064Y2312256D1*
X1236858Y2306280D1*
X1234192Y2300495D1*
X1231080Y2294937D1*
X1227541Y2289640D1*
X1220608Y2281403D1*
X1229648Y2282226D1*
X1238828Y2282066D1*
X1247937Y2280907D1*
X1256865Y2278762D1*
X1265505Y2275657D1*
X1273756Y2271629D1*
X1281518Y2266723D1*
X1288699Y2261003D1*
X1295214Y2254533D1*
X1300986Y2247391D1*
X1305944Y2239663D1*
X1310029Y2231440D1*
X1313194Y2222820D1*
X1315400Y2213908D1*
X1316622Y2204808D1*
X1316864Y2196346D1*
X640831Y2305892D2*
X639722Y2311467D1*
X638955Y2317946D1*
X638699Y2324466D1*
X638955Y2330986D1*
X639722Y2337465D1*
X640995Y2343865D1*
X642766Y2350144D1*
X645025Y2356265D1*
X647756Y2362190D1*
X650945Y2367883D1*
X654570Y2373308D1*
X658609Y2378433D1*
X663038Y2383223D1*
X667828Y2387652D1*
X672953Y2391692D1*
X678378Y2395316D1*
X684071Y2398505D1*
X689996Y2401236D1*
X696117Y2403495D1*
X702396Y2405266D1*
X708797Y2406539D1*
X715276Y2407306D1*
X730982Y2407562D1*
X796598D1*
X803118Y2407306D1*
X809597Y2406539D1*
X815997Y2405266D1*
X822277Y2403495D1*
X828398Y2401236D1*
X834323Y2398505D1*
X840016Y2395316D1*
X845441Y2391692D1*
X850566Y2387652D1*
X855356Y2383223D1*
X859785Y2378433D1*
X863824Y2373308D1*
X867449Y2367883D1*
X870638Y2362190D1*
X873369Y2356265D1*
X875627Y2350144D1*
X877399Y2343865D1*
X878672Y2337465D1*
X879438Y2330986D1*
X879694Y2324466D1*
X879438Y2317946D1*
X878672Y2311467D1*
X877399Y2305067D1*
X875627Y2298787D1*
X873369Y2292667D1*
X870638Y2286741D1*
X867449Y2281049D1*
X863824Y2275623D1*
X859785Y2270499D1*
X855356Y2265709D1*
X850566Y2261280D1*
X845123Y2257028D1*
X846955Y2244932D1*
X847211Y2238412D1*
X846955Y2231892D1*
X846189Y2225413D1*
X844916Y2219013D1*
X843144Y2212734D1*
X840886Y2206613D1*
X838155Y2200688D1*
X834966Y2194995D1*
X831341Y2189570D1*
X827302Y2184445D1*
X822873Y2179655D1*
X818083Y2175226D1*
X812958Y2171186D1*
X807533Y2167562D1*
X801840Y2164373D1*
X795915Y2161642D1*
X789794Y2159383D1*
X783514Y2157612D1*
X777114Y2156339D1*
X770635Y2155572D1*
X754929Y2155316D1*
X689312D1*
X682793Y2155572D1*
X676314Y2156339D1*
X669913Y2157612D1*
X663634Y2159383D1*
X657513Y2161642D1*
X651588Y2164373D1*
X645895Y2167562D1*
X640470Y2171186D1*
X635345Y2175226D1*
X630555Y2179655D1*
X626126Y2184445D1*
X622087Y2189570D1*
X618462Y2194995D1*
X615273Y2200688D1*
X612542Y2206613D1*
X610283Y2212734D1*
X608512Y2219013D1*
X607239Y2225413D1*
X606472Y2231892D1*
X606217Y2238412D1*
X606472Y2244932D1*
X607239Y2251411D1*
X608512Y2257811D1*
X610283Y2264091D1*
X612542Y2270211D1*
X615273Y2276136D1*
X618462Y2281829D1*
X622087Y2287255D1*
X626126Y2292379D1*
X630555Y2297169D1*
X635345Y2301598D1*
X640787Y2305850D1*
X591963Y1862650D2*
X585419Y1862904D1*
X578940Y1863671D1*
X572539Y1864944D1*
X566260Y1866715D1*
X560139Y1868974D1*
X554214Y1871705D1*
X548521Y1874894D1*
X543096Y1878518D1*
X537971Y1882558D1*
X533181Y1886987D1*
X528752Y1891777D1*
X524713Y1896902D1*
X521088Y1902327D1*
X517899Y1908020D1*
X515168Y1913945D1*
X512909Y1920066D1*
X511138Y1926345D1*
X509865Y1932745D1*
X509098Y1939224D1*
X508843Y1945744D1*
X509098Y1952264D1*
X509865Y1958743D1*
X511138Y1965143D1*
X512909Y1971423D1*
X515168Y1977543D1*
X517899Y1983469D1*
X521088Y1989161D1*
X524713Y1994587D1*
X528752Y1999711D1*
X533181Y2004501D1*
X537971Y2008930D1*
X543096Y2012970D1*
X548521Y2016594D1*
X554214Y2019783D1*
X560139Y2022514D1*
X566260Y2024773D1*
X572539Y2026545D1*
X578940Y2027818D1*
X585419Y2028584D1*
X601125Y2028840D1*
X666741D1*
X673261Y2028584D1*
X679740Y2027818D1*
X686140Y2026545D1*
X692420Y2024773D1*
X698541Y2022514D1*
X704466Y2019783D1*
X710159Y2016594D1*
X715584Y2012970D1*
X720709Y2008930D1*
X725499Y2004501D1*
X729928Y1999711D1*
X733967Y1994587D1*
X737592Y1989161D1*
X740781Y1983469D1*
X743512Y1977543D1*
X745770Y1971423D1*
X747542Y1965143D1*
X748815Y1958743D1*
X749581Y1952264D1*
X749837Y1945744D1*
X749581Y1939224D1*
X748815Y1932745D1*
X747542Y1926345D1*
X745770Y1920066D1*
X743512Y1913945D1*
X740781Y1908020D1*
X737592Y1902327D1*
X733967Y1896902D1*
X729928Y1891777D1*
X725499Y1886987D1*
X720709Y1882558D1*
X715584Y1878518D1*
X710159Y1874894D1*
X704466Y1871705D1*
X698541Y1868974D1*
X692420Y1866715D1*
X686140Y1864944D1*
X679740Y1863671D1*
X673261Y1862904D1*
X657555Y1862648D1*
X591938Y1862684D1*
X3867531Y3273491D2*
X3865774Y3262394D1*
X3862302Y3251709D1*
X3857201Y3241698D1*
X3850597Y3232609D1*
X3842652Y3224664D1*
X3833563Y3218060D1*
X3823552Y3212959D1*
X3812867Y3209487D1*
X3801770Y3207730D1*
X3790534D1*
X3782173Y3208944D1*
X3501436Y3208948D1*
X3494987Y3204499D1*
X3484976Y3199398D1*
X3474291Y3195925D1*
X3463194Y3194168D1*
X3451958D1*
X3440861Y3195925D1*
X3430176Y3199398D1*
X3420165Y3204499D1*
X3411076Y3211102D1*
X3403131Y3219047D1*
X3396528Y3228136D1*
X3391427Y3238147D1*
X3387954Y3248832D1*
X3386197Y3259929D1*
Y3271165D1*
X3387954Y3282262D1*
X3391427Y3292948D1*
X3396528Y3302958D1*
X3403131Y3312047D1*
X3411076Y3319992D1*
X3420165Y3326596D1*
X3430176Y3331697D1*
X3440861Y3335169D1*
X3451958Y3336927D1*
X3463194D1*
X3474291Y3335169D1*
X3484976Y3331697D1*
X3494987Y3326596D1*
X3501335Y3322154D1*
X3738944Y3322147D1*
X3745524Y3329738D1*
X3754067Y3337034D1*
X3763647Y3342906D1*
X3774026Y3347205D1*
X3784951Y3349827D1*
X3796152Y3350709D1*
X3807353Y3349827D1*
X3818278Y3347205D1*
X3828657Y3342906D1*
X3838238Y3337034D1*
X3846781Y3329738D1*
X3854077Y3321194D1*
X3859949Y3311614D1*
X3864248Y3301235D1*
X3866870Y3290310D1*
X3867752Y3279109D1*
X3867531Y3273491D1*
X1219997Y2014434D2*
X1220030Y1852180D1*
X1057776D1*
Y2012047D1*
X1058025Y2018412D1*
X1058774Y2024739D1*
X1060017Y2030986D1*
X1061745Y2037117D1*
X1063951Y2043093D1*
X1066618Y2048878D1*
X1069730Y2054436D1*
X1073269Y2059732D1*
X1077213Y2064735D1*
X1081537Y2069413D1*
X1086215Y2073738D1*
X1091218Y2077681D1*
X1096514Y2081220D1*
X1102072Y2084332D1*
X1107857Y2086999D1*
X1113833Y2089205D1*
X1119965Y2090933D1*
X1126211Y2092176D1*
X1132538Y2092925D1*
X1138903Y2093175D1*
X1145268Y2092925D1*
X1151594Y2092176D1*
X1157841Y2090933D1*
X1163972Y2089205D1*
X1169949Y2086999D1*
X1175734Y2084332D1*
X1181291Y2081220D1*
X1186588Y2077681D1*
X1191591Y2073738D1*
X1196269Y2069413D1*
X1200593Y2064735D1*
X1204537Y2059732D1*
X1208076Y2054436D1*
X1211188Y2048878D1*
X1213854Y2043093D1*
X1216060Y2037117D1*
X1217789Y2030986D1*
X1219031Y2024739D1*
X1219936Y2014459D1*
X1057776Y2012273D2*
X1057811Y2014434D1*
X462579Y3307396D2*
D21*
Y3066472D1*
Y3186934D2*
X545639D1*
X463295Y2788013D2*
Y2547089D1*
Y2667551D2*
X546356D1*
X2178598Y2063018D2*
X2262663D1*
X1634213Y4216587D2*
X1745777D1*
X2178598Y2247083D2*
Y2163018D1*
X2262663D1*
X1328606Y506063D2*
X1412671D1*
X3263912Y4122690D2*
Y4038626D1*
Y4122690D2*
X3347976D1*
X3263912Y4222690D2*
X3347976D1*
X3299058Y3464675D2*
X3383122D1*
X3214993Y3364675D2*
X3383122D1*
X3299058Y3164675D2*
X3383122D1*
X1632782Y1870041D2*
Y1701912D1*
X3299058Y2764675D2*
X3383122D1*
X2899058Y3748739D2*
Y3580610D1*
X3299058Y3748739D2*
Y3664675D1*
X3383122D1*
X1634213Y4016587D2*
Y3905022D1*
Y4016587D2*
X1745777D1*
X1724307Y2747650D2*
Y2579521D1*
X1640243Y2663585D2*
X1724307D1*
X1824307Y2747650D2*
Y2579521D1*
X1924307Y2747650D2*
Y2579521D1*
X2024307Y2747650D2*
Y2579521D1*
X4113912Y4122690D2*
Y4038626D1*
Y4122690D2*
X4197976D1*
X1434213Y4016587D2*
Y3905022D1*
X1240413Y3155312D2*
X1408542D1*
X1247908Y4023033D2*
Y3911469D1*
X1047908Y4023033D2*
Y3911469D1*
X936344Y4023033D2*
X1047908D1*
X4216198Y3796395D2*
Y3712331D1*
X4113912Y4222690D2*
X4197976D1*
X4116198Y3796395D2*
Y3712331D1*
X4032134D2*
X4116198D1*
X4190038Y3072403D2*
Y2904274D1*
X936344Y4223033D2*
X1047908D1*
X1027538Y3019091D2*
X1195667D1*
X508434Y3683163D2*
Y3599098D1*
X529993Y891390D2*
Y807325D1*
X1027538Y2830861D2*
X1195667D1*
X629993Y891390D2*
Y807325D1*
Y891390D2*
X714058D1*
X629993Y1091390D2*
X714058D1*
X629993Y1291390D2*
X714058D1*
X1232783Y2282248D2*
Y2114119D1*
X1148719Y2198184D2*
X1316848D1*
X461720Y2250783D2*
Y2009860D1*
Y2130322D2*
X544781D1*
X1138903Y1933307D2*
Y1852215D1*
X1057811Y1933307D2*
X1219995D1*
D33*
X463295Y2667551D3*
D34*
X760772Y2861696D3*
X728289Y2775642D3*
X630915Y2482974D3*
D33*
X898929Y2517864D3*
D35*
X1138903Y1933307D3*
D36*
Y2012047D3*
D33*
X461720Y2130322D3*
D34*
X759197Y2324466D3*
X726714Y2238412D3*
X629340Y1945744D3*
D33*
X897354Y1980634D3*
D37*
X3332782Y2385976D3*
X3913912Y4122690D3*
X1632782Y2385976D3*
X1732782D3*
X2876551Y599736D3*
X3713913Y4222690D3*
X1832782Y2385976D3*
X3713913Y4122690D3*
X1932782Y2385976D3*
X2178598Y2063018D3*
D38*
X1634213Y4216587D3*
D37*
X3913912Y4222690D3*
X2178598Y2163018D3*
X2863913Y4222690D3*
X2078598Y2063018D3*
Y2163018D3*
X3167522Y2508673D3*
X2863913Y4122690D3*
X1978598Y2063018D3*
Y2163018D3*
X3271798Y2507542D3*
X2032782Y2385976D3*
X2963912Y4222690D3*
X2132782Y2385976D3*
X2733509Y1276437D3*
X2232782Y2385976D3*
X1412671Y506063D3*
X2332782Y2385976D3*
X1270510Y764469D3*
X2432782Y2385976D3*
X1449945Y956654D3*
X2532782Y2385976D3*
X1024552Y1636886D3*
X3063912Y4122690D3*
X2632782Y2385976D3*
X3263912Y4122690D3*
X2732782Y2385976D3*
X3163913Y4222690D3*
X2832782Y2385976D3*
X2963912Y4122690D3*
X2932782Y2385976D3*
X3063912Y4222690D3*
X3032782Y2385976D3*
X3163913Y4122690D3*
X3132782Y2385976D3*
X3263912Y4222690D3*
X3232782Y2385976D3*
X3432782D3*
X3299058Y3464675D3*
X3532782Y2385976D3*
X3299058Y3364675D3*
X3632782Y2385976D3*
X3299058Y3264675D3*
X3732782Y2385976D3*
X3299058Y3164675D3*
X3832782Y2385976D3*
X3299058Y3064675D3*
X3932782Y2385976D3*
X3299058Y2964675D3*
X1632782Y1785976D3*
X3299058Y2864675D3*
X1732782Y1785976D3*
X3299058Y2764675D3*
X1832782Y1785976D3*
X2799058Y3664675D3*
X1932782Y1785976D3*
X2899058Y3664675D3*
X2032782Y1785976D3*
X2999058Y3664675D3*
X2132782Y1785976D3*
X3099058Y3664675D3*
X2232782Y1785976D3*
X3199058Y3664675D3*
X2332782Y1785976D3*
X3299058Y3664675D3*
X2432782Y1785976D3*
X2224307Y3663585D3*
X2532782Y1785976D3*
X1724307Y3663585D3*
X2632782Y1785976D3*
X1824307Y3663585D3*
X2732782Y1785976D3*
X1924307Y3663585D3*
X2832782Y1785976D3*
D38*
X1634213Y4016587D3*
D37*
X2932782Y1785976D3*
X2024307Y3663585D3*
X3032782Y1785976D3*
X2124307Y3663585D3*
X3132782Y1785976D3*
X2224307Y2663585D3*
X3232782Y1785976D3*
X1724307Y2663585D3*
X3332782Y1785976D3*
X1824307Y2663585D3*
X3432782Y1785976D3*
X1924307Y2663585D3*
X3813912Y4222690D3*
X3532782Y1785976D3*
X3632782D3*
X2024307Y2663585D3*
X4113912Y4122690D3*
X3732782Y1785976D3*
X4013913Y4222690D3*
X3832782Y1785976D3*
X3932782D3*
X2124307Y2663585D3*
X3230026Y1631055D3*
D38*
X1434213Y4016587D3*
D37*
X3330026Y1631055D3*
X3430026D3*
X1882782Y1885976D3*
X1324476Y3057188D3*
X2282782Y1885976D3*
X1324478Y3155312D3*
X1982782Y1885976D3*
D38*
X1434213Y4216587D3*
D37*
X2082782Y1885976D3*
D38*
X1534213Y4116587D3*
X1247908Y4223033D3*
D37*
X2182782Y1885976D3*
D38*
X1247908Y4023033D3*
X1047908D3*
D37*
X4216198Y3712331D3*
Y3612331D3*
Y3512331D3*
Y3412331D3*
Y3312331D3*
X3813912Y4122690D3*
X3299058Y2664675D3*
X4013913Y4122690D3*
X4113912Y4222690D3*
X4116198Y3712331D3*
Y3612331D3*
Y3412331D3*
Y3512331D3*
Y3312331D3*
X1322287Y3254297D3*
X4190038Y2988339D3*
X4071928D3*
D38*
X1047908Y4223033D3*
X1147908Y4123033D3*
D37*
X1111602Y2924975D3*
Y3113205D3*
Y3019091D3*
X3130026Y1631055D3*
X508434Y3683163D3*
X608434D3*
X3839560Y2546248D3*
X3940207Y2543017D3*
X529993Y1491390D3*
Y1391390D3*
X508434Y3783161D3*
X529993Y1291390D3*
X608434Y3883161D3*
X529993Y1191390D3*
X608434Y4083161D3*
X529993Y1091390D3*
X508434Y3983163D3*
X529993Y991390D3*
Y891390D3*
X1111602Y2830861D3*
X629993Y891390D3*
X608434Y3783161D3*
X629993Y991390D3*
X508434Y3883161D3*
X629993Y1091390D3*
X608434Y3983163D3*
X629993Y1191390D3*
X508434Y4083161D3*
X629993Y1291390D3*
X1232783Y2198184D3*
X629993Y1391390D3*
X1111602Y2736745D3*
X629993Y1491390D3*
Y1591390D3*
X529993D3*
D39*
X1149597Y3844336D3*
X1529430Y3831537D3*
X3481665Y2732430D3*
X1161907Y2337325D3*
X3787159Y1289332D3*
D37*
X3914346Y758276D3*
D96*
X1487558Y1382909D3*
D40*
X1537558D3*
X1587558D3*
D37*
X2674337Y768232D3*
X2774337D3*
X2874337D3*
D33*
X462579Y3186934D3*
D34*
X760055Y3381079D3*
X727572Y3295025D3*
X630198Y3002357D3*
D33*
X898213Y3037247D3*
D37*
X1642591Y623143D3*
X1692591Y823143D3*
X1742591Y623143D3*
X1792591Y823143D3*
X1842591Y623143D3*
X1892591Y823143D3*
X1942591Y623143D3*
X1992591Y823143D3*
X2042591Y623143D3*
X2092591Y823143D3*
X2142591Y623143D3*
X2192591Y823143D3*
X2242591Y623143D3*
X2292591Y823143D3*
X2342591Y623143D3*
M02*
