G04 DipTrace 3.3.1.1*
G04 Top.gbr*
%MOIN*%
G04 #@! TF.FileFunction,Copper,L1,Top*
G04 #@! TF.Part,Single*
%AMOUTLINE0*
4,1,8,
-0.019685,-0.029528,
-0.009843,-0.03937,
0.009843,-0.03937,
0.019685,-0.029528,
0.019685,0.029528,
0.009843,0.03937,
-0.009843,0.03937,
-0.019685,0.029528,
-0.019685,-0.029528,
0*%
G04 #@! TA.AperFunction,Conductor*
%ADD14C,0.027559*%
%ADD15C,0.023622*%
%ADD16C,0.011811*%
%ADD17C,0.03*%
%ADD18C,0.03937*%
%ADD19C,0.01*%
G04 #@! TA.AperFunction,CopperBalancing*
%ADD20C,0.04*%
%ADD21C,0.012992*%
%ADD24R,0.062992X0.124016*%
%ADD25R,0.070866X0.062992*%
%ADD26R,0.062992X0.070866*%
%ADD28R,0.100394X0.062992*%
%ADD30R,0.124016X0.062992*%
%ADD32R,0.062992X0.100394*%
G04 #@! TA.AperFunction,ComponentPad*
%ADD33O,0.062992X0.137795*%
%ADD34O,0.137795X0.062992*%
%ADD35R,0.059055X0.059055*%
%ADD36C,0.059055*%
%ADD37C,0.065*%
%ADD38C,0.12*%
%ADD39C,0.059055*%
%ADD40O,0.03937X0.07874*%
%ADD42R,0.025591X0.041339*%
%ADD44R,0.023622X0.07874*%
%ADD45R,0.055118X0.011811*%
%ADD47R,0.094488X0.086614*%
G04 #@! TA.AperFunction,ComponentPad*
%ADD96OUTLINE0*%
%FSLAX26Y26*%
G04*
G70*
G90*
G75*
G01*
G04 Top*
%LPD*%
X1325920Y1025794D2*
D14*
Y1022287D1*
X1384311D1*
X1449945Y956654D1*
X629993Y1191390D2*
X904148D1*
X930374Y1165164D1*
X1025273Y1130076D2*
X990185Y1165164D1*
X930374D1*
X529993Y1191390D2*
X629993D1*
X1449945Y956654D2*
Y954999D1*
X1493588Y911356D1*
Y582635D1*
X1612403Y463820D1*
X2939735D1*
X3144361Y668446D1*
X3160182D1*
X1632782Y2385976D2*
X1749119Y2502314D1*
X2063035D1*
X2224307Y2663585D1*
X529993Y1191390D2*
X510395D1*
X447606Y1254178D1*
Y1606753D1*
X578329Y1737476D1*
X1183790D1*
X1583618Y2137304D1*
X1325920Y1025794D2*
X1330297D1*
Y1145669D1*
X1325252D1*
X1436673Y1602927D2*
X1434147Y1605453D1*
X1378394D1*
Y1715996D1*
Y1605453D2*
X1342777Y1641070D1*
X1024552D1*
Y1636886D1*
X1558268Y1535488D2*
X2128413D1*
Y1550739D1*
X3989928D1*
X4071928Y1632739D1*
Y2988339D1*
X629993Y1391390D2*
X529993D1*
X1022336Y1489051D2*
X1015962D1*
X918301Y1391390D1*
X629993D1*
X1024552Y1636886D2*
X1025169Y1636269D1*
Y1489051D1*
X1022336D1*
X3942127Y2917961D2*
X4036041D1*
X4071928Y2953848D1*
Y2988339D1*
X2128413Y1156388D2*
Y1535488D1*
X1880710Y4027344D2*
Y4179692D1*
X1909829Y4208811D1*
X1970601D1*
X3522480Y3382525D2*
D15*
Y3568875D1*
X3580184Y3626579D1*
X3699214D1*
X4013913Y4222690D2*
D14*
Y4122690D1*
X1022336Y744664D2*
Y708764D1*
X1081962Y649138D1*
X1269923D1*
X2124307Y2663585D2*
Y2654682D1*
X2043461Y2573836D1*
X1636749D1*
X1418710Y2355797D1*
X1423253D1*
X1970601Y4208811D2*
Y4270308D1*
X2088711D1*
X2246192D1*
Y4208811D1*
X3699214Y3626579D2*
X3802706D1*
Y3626614D1*
X3163913Y4122690D2*
Y4222690D1*
X3699214Y3626579D2*
X3690520D1*
Y3885403D1*
X3163913D1*
X2888764D1*
X2799058Y3795697D1*
Y3664675D1*
X629993Y991390D2*
X529993D1*
X2088711Y4270308D2*
Y4208811D1*
X2224307Y3663585D2*
D16*
Y3798001D1*
X2126604Y3895705D1*
X2075470D1*
X2799058Y3664675D2*
D14*
X2356253D1*
X2355164Y3663585D1*
X2224307D1*
X3163913Y4122690D2*
Y3885403D1*
X4116198Y3612331D2*
X4216198D1*
X1270510Y764469D2*
X1226146Y808833D1*
Y1555507D1*
X1227056Y1556417D1*
X1269923Y649138D2*
Y764469D1*
X1270510D1*
X3802706Y3626614D2*
X3952077D1*
X3966361Y3612331D1*
X4116198D1*
X2075470Y3895705D2*
D16*
X1983383D1*
Y3954760D1*
X1902241D1*
X629993Y991390D2*
D14*
X731340D1*
X978066Y744664D1*
X1022336D1*
X3690520Y3885403D2*
X3846972D1*
X4013913Y4052344D1*
Y4122690D1*
X629993Y891390D2*
X961054Y560329D1*
X1022336D1*
Y551751D1*
X629993Y1291390D2*
X895087D1*
Y1302383D1*
X1022336D1*
Y1296138D1*
X1341378Y824403D2*
X1325920D1*
Y915558D1*
X1378394Y1826232D2*
Y1821684D1*
X1551692D1*
X1587399Y1785976D1*
X1632782D1*
X1025336Y849564D2*
X1025273Y849627D1*
Y937163D1*
X896003Y1290768D2*
X895087Y1291390D1*
X1330971Y533756D2*
Y529383D1*
X1269923D1*
Y538902D1*
X1022336Y551751D2*
X1003490D1*
Y529383D1*
X1269923D1*
X1432719Y1663315D2*
D17*
X1443668D1*
X1500528Y1720175D1*
X1521597D1*
X1587399Y1785976D1*
X3822480Y3169927D2*
D15*
Y3193339D1*
X3903241D1*
X2356428Y4208811D2*
D14*
X2507484D1*
Y4212793D1*
X3802706Y3516378D2*
Y3454879D1*
X3802707D1*
X1902241Y3935075D2*
D16*
X1833581D1*
X1831320Y3932814D1*
X1827205D1*
X2899058Y3664675D2*
D14*
X2898213D1*
Y3736281D1*
X3299058D1*
Y3664675D1*
Y3464675D1*
Y3364675D1*
X3226531D1*
X3203790Y3341933D1*
Y3191530D1*
X3230301Y3165020D1*
X3299058D1*
Y3164675D1*
X2233972Y3116260D2*
D18*
X3066167D1*
Y3124436D1*
X3942127Y3028197D2*
D14*
X3950085D1*
X3988684Y3066795D1*
X4116424D1*
X4190038Y2993181D1*
Y2988339D1*
X2178598Y2163018D2*
D19*
Y2063018D1*
X2182782D1*
Y1885976D1*
X3112280Y3948705D2*
D14*
X2908677D1*
X1144269Y1568927D2*
Y1296138D1*
X1022336D1*
X1766867Y1330993D2*
X1778016D1*
Y1305668D1*
X1764118D1*
Y1417815D1*
X1944657D1*
Y1333895D1*
X2239352Y1418682D2*
X2330126D1*
Y1308885D1*
X3770556Y832218D2*
X3840404D1*
X3914346Y758276D1*
X4223409Y966402D2*
Y1102270D1*
X4222227D1*
X2884942Y1393411D2*
X2933062D1*
X2933959Y1392513D1*
X3005967D1*
X3914346Y758276D2*
X3908965D1*
X3819146Y668457D1*
X3763795D1*
X2899226Y1142345D2*
X2873743D1*
X2826283Y1189804D1*
Y1334752D1*
X2884942Y1393411D1*
X3399307Y1170009D2*
Y1184331D1*
X3397639Y1185999D1*
Y1231432D1*
X1944657Y1417815D2*
X1989820D1*
Y1418682D1*
X2674337Y768232D2*
D19*
Y869045D1*
X2682226D1*
Y989075D1*
X2646777Y1024524D1*
Y1285596D1*
X2567635D1*
X3770556Y832218D2*
X3763795D1*
Y668457D1*
X2042591Y623143D2*
D14*
Y713403D1*
X2330126Y1308885D2*
Y1417521D1*
X2442710D1*
X2504020Y1356211D1*
Y1359202D1*
X2577626Y1285596D1*
X2567635D1*
X1992591Y823143D2*
Y822673D1*
X2042591Y772673D1*
Y623143D1*
X1587558Y1382909D2*
D19*
X1669902D1*
Y1417815D1*
X1764118D1*
X1587558Y1382909D2*
X1665682D1*
Y1237207D1*
X1609845D1*
D14*
X1607990D1*
Y1134668D1*
X1944657Y1333895D2*
X1988728D1*
X2020883Y1301740D1*
Y938071D1*
X1992591Y909778D1*
Y823143D1*
X1047908Y4023033D2*
Y4223033D1*
X1247908D1*
X1174807Y4232843D2*
D19*
X1247908D1*
Y4223033D1*
X1434213Y4216587D2*
D14*
X1247908D1*
Y4223033D1*
X1434213Y4216587D2*
X1634213D1*
X1247908Y4223033D2*
Y4023033D1*
X1434213Y4216587D2*
Y4016587D1*
X1634213D1*
X1333585Y2196202D2*
X1715664D1*
Y2121454D1*
X3632761Y832218D2*
D19*
Y844378D1*
X3604928D1*
Y832045D1*
X3542999D1*
Y668457D1*
X3653559D1*
X3270419Y668446D2*
X3324336D1*
X3324534Y668644D1*
X3430546D1*
X3678073Y1009483D2*
Y971772D1*
X3735217D1*
X3735970Y971018D1*
X3905218D1*
Y964352D1*
X3604928Y832045D2*
X3603907Y831024D1*
X3542852D1*
Y891366D1*
X3624278Y972793D1*
X3678073D1*
Y1009483D1*
X3430546Y668644D2*
X3542999Y668457D1*
X2322445Y1108290D2*
X2330126Y1115971D1*
X2408818D1*
X2468206Y1175360D1*
X2567635D1*
X1742591Y623143D2*
D14*
Y576562D1*
X1783857Y535295D1*
X2207920D1*
X2248592Y575967D1*
Y617836D1*
X2242591D1*
Y623143D1*
X1742591D2*
D19*
X1749840D1*
X1741655Y631328D1*
Y967707D1*
X1762037Y988089D1*
Y1022315D1*
X2242591Y623143D2*
X2231677D1*
X2242591D2*
X2250934D1*
X2375423Y747631D1*
Y858283D1*
X2210941Y1022765D1*
X2128413D1*
Y1046152D1*
X2162555D1*
X2232374Y1115971D1*
X2330126D1*
X2932782Y1785976D2*
X2941576Y1777182D1*
X3007990Y1843596D1*
Y2054248D1*
X3534906Y2270293D2*
Y2268648D1*
X3714289D1*
X3781016Y2335375D1*
Y3040387D1*
X3772480D1*
Y3169927D1*
X3622480D2*
Y3052639D1*
X3703954D1*
X4012579Y3311866D2*
X4113043Y3412331D1*
X4116198D1*
X1534213Y4116587D2*
X1704408D1*
X1762341Y4174520D1*
X1800423D1*
X3183525Y2812178D2*
X3442850D1*
X3572480Y2941808D1*
Y3169927D1*
X1877993Y3799577D2*
X1755440Y3922131D1*
X1422978D1*
X1423702Y3921407D1*
X1190659D1*
X1147908Y3964157D1*
Y4123033D1*
Y3964157D2*
X1149597D1*
Y3844336D1*
X2364302Y3842669D2*
Y3812837D1*
X2261749Y3915390D1*
X2075470D1*
X4116198Y3512331D2*
X4065654Y3562875D1*
X3699214D1*
Y3516343D1*
X3672480Y3169927D2*
Y3248528D1*
X3722480Y3298528D1*
Y3382525D1*
X3522480Y3169927D2*
Y2998895D1*
X3441913Y2918328D1*
X3219408D1*
X3084961Y2783881D1*
Y2715176D1*
X3522480Y3169927D2*
Y3222504D1*
X3548504Y3248528D1*
X3672480D1*
X3699214Y3516343D2*
Y3487682D1*
X3718403Y3468493D1*
Y3413896D1*
X3722480Y3417974D1*
Y3382525D1*
X4216198Y3412331D2*
X4168697Y3459832D1*
X3890583D1*
X3822480Y3391730D1*
Y3382525D1*
X3732782Y1785976D2*
D16*
Y1808154D1*
X3663720Y1877215D1*
X3187799D1*
X3068194Y1996820D1*
Y2227614D1*
X2039570D1*
X2020512Y2246672D1*
X1364681D1*
X1315785Y2295568D1*
Y2433399D1*
X1414436Y2532050D1*
Y3336514D1*
X1300886Y3450064D1*
X792816D1*
X671890Y3570991D1*
X489736D1*
X432067Y3628660D1*
Y4033873D1*
X482594Y4084400D1*
X508434D1*
Y4083161D1*
X2078598Y2163018D2*
D19*
X2071808D1*
X2030113Y2121323D1*
Y1941888D1*
X1982782Y1894558D1*
Y1885976D1*
X2075470Y3935075D2*
X2268055D1*
X2364302Y4031322D1*
Y4090701D1*
X2078598Y2063018D2*
X2080953D1*
Y1952524D1*
X2082782D1*
Y1885976D1*
X1902241Y3974445D2*
X1858123D1*
X1800423Y4032146D1*
Y4064283D1*
X1978598Y2163018D2*
Y2063018D1*
Y2080276D1*
X1882782Y1984459D1*
Y1885976D1*
X760772Y2861696D2*
X861529D1*
X1111602Y3111769D1*
Y3113205D1*
X2242799Y1685391D2*
X2332782Y1775374D1*
Y1785976D1*
X2088711Y4098575D2*
X2131257D1*
Y4000289D1*
X2195455D1*
X2075470Y3954760D2*
X2131765D1*
Y4098575D1*
X2088711D1*
X630915Y2482974D2*
X680299D1*
X679343Y2483930D1*
X637010D1*
Y2510199D1*
X680797Y2553986D1*
X686182D1*
X1058635Y2926438D1*
X1111602D1*
Y2924975D1*
X630198Y3002357D2*
X613215D1*
X870222Y3259364D1*
X1318252D1*
Y3258332D1*
X1322287Y3254297D1*
X2229980Y4084080D2*
Y4089115D1*
X2159622Y4159474D1*
X1960825D1*
Y4132990D1*
X1970601Y4123214D1*
Y4098575D1*
Y4009761D1*
X1990601Y3989761D1*
X2075470D1*
Y3974445D1*
X1942591Y623143D2*
Y865123D1*
X1940677Y863210D1*
Y1034259D1*
X1942591Y1032345D1*
Y1196100D1*
X1944657D1*
X1766867Y1220757D2*
X1762009D1*
Y1149218D1*
X1762037Y1149190D1*
Y1132551D1*
X1944657Y1196100D2*
Y1209970D1*
X1766867D1*
Y1220757D1*
X1834029Y3451441D2*
Y3529962D1*
X1724307Y3639684D1*
Y3663585D1*
X1924307D2*
Y3571434D1*
X1972709Y3523033D1*
Y3448752D1*
X2024307Y3663585D2*
Y3600092D1*
X2120448Y3503951D1*
Y3454089D1*
X4069340Y1162793D2*
X4128105D1*
Y1289332D1*
Y2659029D1*
X3713619D2*
X3715264Y2660673D1*
X3481665D1*
X3290259D1*
X3294260Y2664675D1*
X3299058D1*
X3481665Y2732430D2*
Y2660673D1*
X3787159Y1289332D2*
X4128105D1*
X3532782Y2385976D2*
X3530802Y2383996D1*
Y2437424D1*
X3470346Y2497879D1*
Y2535096D1*
X3426079Y2579364D1*
X2555402D1*
X2247895Y2886870D1*
X1676189D1*
X1567681Y2995378D1*
Y3479194D1*
X1396615Y3650260D1*
X930657D1*
X824381Y3756537D1*
X730461D1*
X654937Y3832062D1*
X567802D1*
X518902Y3783161D1*
X508434D1*
X1111602Y2736745D2*
X1108203D1*
Y2400383D1*
X1044256Y2336434D1*
X1008063D1*
X624160Y1952531D1*
Y1945744D1*
X629340D1*
X1161907Y2337325D2*
X1044256Y2336434D1*
X1690277Y3135839D2*
Y3533925D1*
X1740500Y3092457D2*
Y3580906D1*
X1651703D1*
X1649514Y3578717D1*
X1637052D1*
X1425866Y3789903D1*
X988539D1*
X795280Y3983163D1*
X608434D1*
X3640672Y1100034D2*
Y1164925D1*
X3574165Y1231432D1*
X3507875D1*
Y1094403D1*
X3470601D1*
X3433199Y1003852D2*
Y778881D1*
X3430546D1*
X3366181D1*
X3262806Y882255D1*
Y940488D1*
X3395798Y1094403D2*
X3288209D1*
X3237480Y1145131D1*
X3230751D1*
X3009462Y1142345D2*
X3028643D1*
X3031429Y1145131D1*
X3120514D1*
Y1340251D1*
X3172777Y1392513D1*
X3198881D1*
X3732782Y2385976D2*
Y2401827D1*
X3517983Y2616626D1*
X3214955D1*
X3181119Y2650462D1*
X2582820D1*
X2260391Y2972891D1*
X1708386D1*
X1648682Y3032594D1*
Y3510466D1*
X1411261Y3747887D1*
X965041D1*
X782664Y3930264D1*
X612789D1*
Y3933469D1*
X558741D1*
X508434Y3883161D1*
X3432782Y2385976D2*
X3434571D1*
Y2296954D1*
X3179175Y2041558D1*
X2951211Y1901445D2*
X2646906D1*
X2581228Y1835768D1*
X1684948D1*
Y1719757D1*
X1654278Y1689088D1*
X1637651D1*
X1639840Y1686899D1*
X1589497D1*
X1497549Y1594950D1*
Y1599329D1*
X1405332Y1507113D1*
X1316734D1*
X1537558Y1382909D2*
Y1346801D1*
X1499609Y1308852D1*
Y1237207D1*
X1316734Y1396877D2*
X1338682D1*
X1412453Y1470647D1*
X1505423D1*
X1537558Y1438512D1*
Y1382909D1*
X1499609Y1237207D2*
X1497753D1*
Y1134668D1*
X1792591Y823143D2*
Y764433D1*
X1831001Y726022D1*
X2546230D2*
Y652302D1*
X2541375Y647448D1*
Y613298D1*
X760055Y3381079D2*
Y3398482D1*
X769928Y3388609D1*
X1284324D1*
X1381774Y3291159D1*
Y3102990D1*
X1335972Y3057188D1*
X1324476D1*
X3832782Y1785976D2*
Y1796336D1*
X3777732Y1851386D1*
Y1848436D1*
X3710423Y1915745D1*
X3219325D1*
X3116358Y2018713D1*
Y2243257D1*
X3082007Y2277609D1*
X2094841D1*
X2080903Y2291547D1*
X1359570D1*
Y2408310D1*
X1453841Y2502581D1*
Y3415709D1*
X1367583Y3501967D1*
X834266D1*
X723648Y3612585D1*
X491927D1*
X453959Y3650552D1*
Y4016744D1*
X468861Y4031646D1*
X593205D1*
X608434Y4046875D1*
Y4083161D1*
X3796152Y3279109D2*
X3771383D1*
Y3382525D1*
X3772480D1*
X3457576Y3265547D2*
Y3027209D1*
X3440257Y3009890D1*
X3236287D1*
X3027245Y2800848D1*
Y2790575D1*
X3102833Y3257663D2*
Y3496953D1*
X1902241Y3915390D2*
X1961517D1*
Y3799577D1*
X1988230D1*
X4113173Y966402D2*
X4015454D1*
Y964352D1*
Y1010589D1*
X3967398Y1058646D1*
X3919089D1*
X3826969Y1150766D1*
X3814610D1*
X3826967D2*
X3844104Y1167903D1*
X3931545D1*
Y1162793D1*
X3814610Y1150766D2*
X3715475D1*
Y1100034D1*
X1834029Y3341205D2*
Y3316060D1*
X1902385Y3247705D1*
X2268938D1*
X2272014Y3244629D1*
X2284013D1*
X2779012D1*
X3199058Y3664675D1*
X1972709Y3338516D2*
X1976999D1*
Y3309472D1*
X1997837Y3288634D1*
X2333471D1*
Y3286581D1*
X2752625D1*
X2983109Y3517066D1*
Y3664675D1*
X2999058D1*
X2370660Y3342465D2*
X2369272Y3343853D1*
X2120448D1*
X3299058Y3264675D2*
X3366560Y3197172D1*
Y3132177D1*
X3299058Y3064675D1*
X2876551Y599736D2*
Y762315D1*
X2874337D1*
Y768232D1*
X2883979D1*
X3056235Y940488D1*
X3125010D1*
X2577306Y2328860D2*
X3294441D1*
X3332782Y2367201D1*
Y2385976D1*
X1487558Y1382909D2*
X1468167D1*
X1410416Y1325159D1*
Y1255906D1*
X1325252D1*
X1410416D2*
Y1086605D1*
X1422566Y1074455D1*
X1844785D1*
X1893635Y1025605D1*
Y823143D1*
X1892591D1*
X4013209Y1708878D2*
Y1682520D1*
X2908364D1*
X2876844Y1651000D1*
X2067759D1*
X1932782Y1785976D1*
X4208438Y1703647D2*
X4288761Y1783970D1*
Y4173983D1*
X4165753Y4296991D1*
X3964705D1*
X3914882Y4247168D1*
Y4211075D1*
X3903266Y4222690D1*
X3913912D1*
X2485596Y3876406D2*
Y3969286D1*
X2807098Y4290789D1*
X3759105D1*
X3815644Y4234249D1*
Y4222690D1*
X3813912D1*
X3623988Y3727741D2*
X3485818Y3589571D1*
X3368148D1*
X2682127Y3600873D2*
X2682904Y3601650D1*
X2765024D1*
X2766147Y3600526D1*
X2833547D1*
X2849276Y3616255D1*
Y3737084D1*
X2922329Y3810138D1*
X3609332D1*
Y3810018D1*
X3722480Y3169927D2*
Y3228924D1*
X4229245D1*
X4266458Y3266136D1*
Y3469740D1*
X4225875Y3510323D1*
X4214190D1*
X4216198Y3512331D1*
X3632782Y2385976D2*
X3635886D1*
Y2439613D1*
X3476697Y2598802D1*
X2590696D1*
X2257450Y2932047D1*
X1687932D1*
X1609276Y3010703D1*
Y3492331D1*
X1399444Y3702163D1*
X960315D1*
X779318Y3883161D1*
X608434D1*
X2774337Y768232D2*
Y769759D1*
X2779420Y774841D1*
Y682133D1*
X2710585Y613298D1*
X2651612D1*
X2032782Y2385976D2*
X2043782D1*
X2308810Y2651004D1*
Y2723782D1*
X2230684Y2801908D1*
X1636365D1*
X1491058Y2947215D1*
Y3433222D1*
X1371646Y3552634D1*
X862689D1*
X752829Y3662493D1*
X672642D1*
X651972Y3683163D1*
X608434D1*
X591945Y3532793D2*
Y3427525D1*
X537787Y3373367D1*
Y1826605D1*
X956434D1*
Y1667668D2*
X880156Y1591390D1*
X629993D1*
X1138903Y2012047D2*
X1124371D1*
X1010657Y1898333D1*
Y1879067D1*
X958196Y1826605D1*
X956434D1*
X3832782Y2385976D2*
Y2472100D1*
X3839560Y2478878D1*
Y2546248D1*
X3932782Y2385976D2*
Y2433478D1*
X3940207Y2440903D1*
Y2543017D1*
D20*
X1583618Y2137304D3*
X1558268Y1535488D3*
X1330971Y533756D3*
X1144269Y1568927D3*
X2239352Y1418682D3*
X3007990Y2054248D3*
X3534906Y2270293D3*
X3703954Y3052639D3*
X4012579Y3311866D3*
X2242799Y1685391D3*
X2195455Y4000289D3*
X4128105Y2659029D3*
X3713619D3*
X1690277Y3135839D3*
Y3533925D3*
X1740500Y3092457D3*
X3179175Y2041558D3*
X2951211Y1901445D3*
X1831001Y726022D3*
X2546230D3*
X3457576Y3265547D3*
X3027245Y2790575D3*
X3102833Y3257663D3*
Y3496953D3*
X4208438Y1703647D3*
X3623988Y3727741D3*
X3368148Y3589571D3*
X591945Y3532793D3*
X956434Y1826605D3*
Y1667668D3*
X896003Y1290768D3*
X1432719Y1663315D3*
X1827205Y3932814D3*
X2233972Y3116260D3*
X3066167Y3124436D3*
X3112280Y3948705D3*
X2908677D3*
X1994016Y3131024D3*
X1715664Y2121454D3*
X3298778Y1488957D3*
X4244016Y1381024D3*
X3649052Y2897134D3*
X3899138Y2141963D3*
X2919508Y1999008D3*
X1171293Y2557890D3*
X1333585Y2196202D3*
X3379789Y2322559D3*
X2572738Y4211054D3*
X3488391Y4119993D3*
X3930692Y3801496D3*
X4207571Y1957205D3*
X2343840Y2173013D3*
X3463050Y2088736D3*
X3526504Y2816526D3*
X1797186Y3218157D3*
X1027328Y2560395D3*
X634795Y2637457D3*
X1015287Y3321379D3*
X2884942Y1393411D3*
X3399307Y1170009D3*
X4222227Y1102270D3*
X1989820Y1418682D3*
X1341378Y824403D3*
X1025336Y849564D3*
X3903241Y3193339D3*
X2507484Y4212793D3*
X3802707Y3454879D3*
X930374Y1165164D3*
X1436673Y1602927D3*
X1227056Y1556417D3*
X1423253Y2355797D3*
X1880710Y4027344D3*
X3183525Y2812178D3*
X3084961Y2715176D3*
X2229980Y4084080D3*
X3796152Y3279109D3*
X2284013Y3244629D3*
X2333471Y3288634D3*
X2370660Y3342465D3*
X2577306Y2328860D3*
X4013209Y1708878D3*
X2485596Y3876406D3*
X3609332Y3810018D3*
X2682127Y3600873D3*
X474182Y4223031D2*
X932318D1*
X2443542D2*
X2655297D1*
X3352022D2*
X3625820D1*
X473930Y4183163D2*
X939673D1*
X2467154D2*
X2615429D1*
X3342154D2*
X3635689D1*
X671222Y4143294D2*
X965833D1*
X2467154D2*
X2575562D1*
X2743642D2*
X2778379D1*
X3349438D2*
X3628367D1*
X4199463D2*
X4228172D1*
X694045Y4103425D2*
X966514D1*
X2467154D2*
X2535694D1*
X2703774D2*
X2778056D1*
X3349761D2*
X3628045D1*
X4199786D2*
X4228172D1*
X694223Y4063556D2*
X939925D1*
X2467154D2*
X2495827D1*
X2663907D2*
X2800125D1*
X3327728D2*
X3650114D1*
X4177717D2*
X4228172D1*
X838801Y4023688D2*
X932318D1*
X2624039D2*
X3094518D1*
X3233281D2*
X3888780D1*
X4076667D2*
X4228172D1*
X878668Y3983819D2*
X939423D1*
X2584172D2*
X3094518D1*
X3233281D2*
X3848912D1*
X4041860D2*
X4228172D1*
X918535Y3943950D2*
X965151D1*
X2546206D2*
X2855673D1*
X4001992D2*
X4228172D1*
X958403Y3904081D2*
X1088988D1*
X2555644D2*
X2810999D1*
X3962125D2*
X4228172D1*
X998270Y3864213D2*
X1066955D1*
X2560165D2*
X2771131D1*
X3922257D2*
X4228172D1*
X2075335Y3824344D2*
X2112656D1*
X2538743D2*
X2736287D1*
X3874352D2*
X4228172D1*
X2075335Y3784475D2*
X2152524D1*
X2467154D2*
X2729685D1*
X3759882D2*
X4068990D1*
X2075335Y3744606D2*
X2097764D1*
X2285795D2*
X2729685D1*
X2940825D2*
X2968924D1*
X3029207D2*
X3068898D1*
X3129217D2*
X3168907D1*
X3229190D2*
X3268916D1*
X3329199D2*
X3550391D1*
X3759882D2*
X4034541D1*
X3376997Y3704738D2*
X3516948D1*
X3893730D2*
X4028441D1*
X3387152Y3664869D2*
X3477080D1*
X2158585Y3585131D2*
X2190022D1*
X2258594D2*
X2608289D1*
X3230374D2*
X3267768D1*
X2163178Y3545262D2*
X2633013D1*
X2849786D2*
X2922526D1*
X3163702D2*
X3270997D1*
X469480Y3505394D2*
X521802D1*
X2211479D2*
X2887395D1*
X3177948D2*
X3221478D1*
X3376638D2*
X3455083D1*
X469230Y3465525D2*
X531348D1*
X2211479D2*
X2847528D1*
X3171165D2*
X3210963D1*
X3387152D2*
X3455083D1*
X468979Y3425656D2*
X506049D1*
X2211479D2*
X2807661D1*
X3163450D2*
X3220545D1*
X3377571D2*
X3455083D1*
X2431664Y3385787D2*
X2767794D1*
X3004232D2*
X3042236D1*
X3163450D2*
X3213655D1*
X3384461D2*
X3455083D1*
X2446161Y3345919D2*
X2727927D1*
X2964329D2*
X3042236D1*
X3163450D2*
X3213080D1*
X3385035D2*
X3455083D1*
X2924462Y3306050D2*
X3042236D1*
X3163450D2*
X3221836D1*
X2884594Y3266181D2*
X3027739D1*
X3177912D2*
X3210963D1*
X1801108Y3226312D2*
X1839720D1*
X2844727D2*
X3034449D1*
X3171201D2*
X3220222D1*
X881360Y3186444D2*
X1066273D1*
X1156950D2*
X1242357D1*
X1801108D2*
X2238286D1*
X2329753D2*
X3091469D1*
X3114218D2*
X3213833D1*
X943835Y3146575D2*
X1030388D1*
X1192798D2*
X1236831D1*
X1801108D2*
X3212937D1*
X3889890D2*
X4228172D1*
X978892Y3106706D2*
X1022495D1*
X1199437D2*
X1251831D1*
X1814672D2*
X3222231D1*
X4033176D2*
X4228172D1*
X761757Y3066837D2*
X811101D1*
X1185765D2*
X1236938D1*
X1811370D2*
X3210999D1*
X4106092D2*
X4155866D1*
X750957Y3026969D2*
X811101D1*
X1199329D2*
X1241997D1*
X2281094D2*
X3169337D1*
X753289Y2987100D2*
X812105D1*
X1193373D2*
X1274007D1*
X2330219D2*
X3129470D1*
X3633067D2*
X3671142D1*
X733768Y2947231D2*
X829904D1*
X1196710D2*
X1352916D1*
X2370087D2*
X3089567D1*
X3633067D2*
X3720411D1*
X598377Y2907362D2*
X649945D1*
X1197823D2*
X1352916D1*
X2409954D2*
X3049699D1*
X3621404D2*
X3720411D1*
X4141294D2*
X4163329D1*
X598377Y2867493D2*
X636488D1*
X1191291D2*
X1352916D1*
X2449822D2*
X3009832D1*
X3582219D2*
X3720411D1*
X4141294D2*
X4228172D1*
X598377Y2827625D2*
X622063D1*
X1199652D2*
X1352916D1*
X2489689D2*
X2961963D1*
X3542352D2*
X3720411D1*
X3841626D2*
X4002533D1*
X4141294D2*
X4228172D1*
X1004012Y2787756D2*
X1035377D1*
X1187811D2*
X1352916D1*
X1514428D2*
X1566463D1*
X2529556D2*
X2951699D1*
X3545007D2*
X3720411D1*
X3841626D2*
X4002533D1*
X4141294D2*
X4228172D1*
X964144Y2747887D2*
X1024253D1*
X1198971D2*
X1352916D1*
X1514428D2*
X1615480D1*
X2569424D2*
X2965766D1*
X3565318D2*
X3720411D1*
X3841626D2*
X4002533D1*
X4141294D2*
X4228172D1*
X598377Y2708018D2*
X638605D1*
X924277D2*
X1028559D1*
X1194629D2*
X1352916D1*
X1514428D2*
X1648888D1*
X2609291D2*
X3009724D1*
X3841626D2*
X4002533D1*
X4184320D2*
X4228172D1*
X598377Y2668150D2*
X716294D1*
X884374D2*
X1047613D1*
X1168791D2*
X1352916D1*
X1514428D2*
X1636329D1*
X3841626D2*
X4002533D1*
X4203123D2*
X4228172D1*
X598377Y2628281D2*
X676428D1*
X942614D2*
X1047613D1*
X1168791D2*
X1352916D1*
X1514428D2*
X1596570D1*
X3862080D2*
X4002533D1*
X4196772D2*
X4228172D1*
X598377Y2588412D2*
X631177D1*
X979144D2*
X1047613D1*
X1168791D2*
X1352916D1*
X1514428D2*
X1554873D1*
X4188697D2*
X4228172D1*
X764772Y2548543D2*
X811819D1*
X986034D2*
X1047613D1*
X1168791D2*
X1345596D1*
X4188697D2*
X4228172D1*
X751352Y2508675D2*
X811819D1*
X986034D2*
X1047613D1*
X1168791D2*
X1305728D1*
X4188697D2*
X4228172D1*
X754186Y2468806D2*
X812643D1*
X985209D2*
X1047613D1*
X1168791D2*
X1266471D1*
X4188697D2*
X4228172D1*
X735454Y2428937D2*
X829724D1*
X968127D2*
X1047613D1*
X1168791D2*
X1254270D1*
X4188697D2*
X4228172D1*
X598377Y2389068D2*
X665518D1*
X852867D2*
X983238D1*
X1228395D2*
X1254270D1*
X4188697D2*
X4228172D1*
X598377Y2349199D2*
X638462D1*
X879924D2*
X936766D1*
X4188697D2*
X4228172D1*
X598377Y2309331D2*
X636093D1*
X3871409D2*
X3894163D1*
X3971383D2*
X4002533D1*
X4188697D2*
X4228172D1*
X1025147Y2269462D2*
X1113461D1*
X3170520D2*
X3323029D1*
X3799139D2*
X4002533D1*
X4188697D2*
X4228172D1*
X985281Y2229593D2*
X1150781D1*
X3176942D2*
X3283163D1*
X3451241D2*
X3471984D1*
X3759272D2*
X4002533D1*
X4188697D2*
X4228172D1*
X945413Y2189724D2*
X1145110D1*
X1320475D2*
X1352701D1*
X3176942D2*
X3243295D1*
X3411374D2*
X4002533D1*
X4188697D2*
X4228172D1*
X598377Y2149856D2*
X737430D1*
X905546D2*
X1159967D1*
X1305618D2*
X1499718D1*
X1658109D2*
X1891538D1*
X2265664D2*
X3006675D1*
X3176942D2*
X3203428D1*
X3371507D2*
X4002533D1*
X4188697D2*
X4228172D1*
X598377Y2109987D2*
X697563D1*
X865642D2*
X1459850D1*
X1653803D2*
X1904850D1*
X2252350D2*
X2959056D1*
X3331639D2*
X4002533D1*
X4188697D2*
X4228172D1*
X598377Y2070118D2*
X657696D1*
X966118D2*
X1078259D1*
X1199545D2*
X1419983D1*
X1612895D2*
X1884396D1*
X2266382D2*
X2934152D1*
X3291772D2*
X4002533D1*
X4188697D2*
X4228172D1*
X785908Y2030249D2*
X811172D1*
X983558D2*
X1055831D1*
X1221972D2*
X1380115D1*
X1573028D2*
X1844529D1*
X2260066D2*
X2936521D1*
X3253878D2*
X4002533D1*
X4188697D2*
X4228172D1*
X746041Y1990381D2*
X810276D1*
X984455D2*
X1018655D1*
X1224018D2*
X1340249D1*
X1533160D2*
X1822496D1*
X2224971D2*
X2947394D1*
X3233245D2*
X4002533D1*
X4188697D2*
X4228172D1*
X753684Y1950512D2*
X810276D1*
X1224018D2*
X1300382D1*
X1493293D2*
X1822173D1*
X2340698D2*
X2614676D1*
X3759702D2*
X4002533D1*
X4188697D2*
X4228172D1*
X746076Y1910643D2*
X816913D1*
X1224018D2*
X1260478D1*
X1453425D2*
X1798382D1*
X2367180D2*
X2572045D1*
X3799570D2*
X4002533D1*
X4188697D2*
X4228172D1*
X1469429Y1870774D2*
X1636472D1*
X3842379D2*
X4002533D1*
X4188697D2*
X4228172D1*
X1046534Y1830906D2*
X1180744D1*
X1469429D2*
X1557707D1*
X4188697D2*
X4228172D1*
X458285Y1791037D2*
X489757D1*
X1469429D2*
X1544824D1*
X4188697D2*
X4211773D1*
X458034Y1751168D2*
X495571D1*
X1469429D2*
X1552217D1*
X1469429Y1711299D2*
X1529861D1*
X1448096Y1909328D2*
X1465427D1*
Y1676332D1*
X1498497Y1675975D1*
X1552739Y1729938D1*
X1559924Y1735159D1*
X1563818Y1737337D1*
X1562694Y1739496D1*
X1558045Y1747413D1*
X1554286Y1755790D1*
X1551463Y1764528D1*
X1549610Y1773521D1*
X1548748Y1782661D1*
X1548887Y1791843D1*
X1550026Y1800953D1*
X1552152Y1809886D1*
X1555239Y1818533D1*
X1559251Y1826793D1*
X1564138Y1834564D1*
X1569844Y1841759D1*
X1576301Y1848287D1*
X1583429Y1854073D1*
X1591147Y1859047D1*
X1599361Y1863151D1*
X1607974Y1866333D1*
X1616882Y1868559D1*
X1625979Y1869801D1*
X1635157Y1870043D1*
X1639707Y1869786D1*
X1644925Y1875790D1*
X1651678Y1881558D1*
X1659252Y1886198D1*
X1667457Y1889597D1*
X1676093Y1891671D1*
X1684965Y1892367D1*
X1798941Y1892575D1*
X1799718Y1899133D1*
X1801005Y1905609D1*
X1802798Y1911965D1*
X1805084Y1918160D1*
X1807849Y1924157D1*
X1811075Y1929919D1*
X1814744Y1935409D1*
X1818832Y1940594D1*
X1826175Y1948088D1*
X1826357Y1988900D1*
X1827745Y1997672D1*
X1830491Y2006119D1*
X1834522Y2014033D1*
X1839743Y2021218D1*
X1855751Y2037472D1*
X1895766Y2077488D1*
X1898614Y2089007D1*
X1900900Y2095202D1*
X1903665Y2101199D1*
X1906891Y2106961D1*
X1910991Y2112999D1*
X1906891Y2119076D1*
X1903665Y2124837D1*
X1900900Y2130835D1*
X1898614Y2137030D1*
X1896822Y2143386D1*
X1895534Y2149862D1*
X1894757Y2156420D1*
X1894499Y2163018D1*
X1894757Y2169617D1*
X1895534Y2176175D1*
X1896822Y2182651D1*
X1898677Y2189176D1*
X1632999Y2189167D1*
X1638063Y2183804D1*
X1644667Y2174715D1*
X1649768Y2164705D1*
X1653240Y2154020D1*
X1654997Y2142923D1*
Y2131686D1*
X1653240Y2120589D1*
X1649768Y2109904D1*
X1644667Y2099894D1*
X1638063Y2090804D1*
X1630118Y2082860D1*
X1621029Y2076256D1*
X1611018Y2071155D1*
X1609308Y2070524D1*
X1448094Y1909320D1*
X3885890Y3111293D2*
X4029160D1*
Y3060747D1*
X4039744Y3066037D1*
X4045940Y3068323D1*
X4052295Y3070115D1*
X4058772Y3071403D1*
X4065329Y3072180D1*
X4071928Y3072438D1*
X4078526Y3072180D1*
X4085084Y3071403D1*
X4091560Y3070115D1*
X4097916Y3068323D1*
X4104112Y3066037D1*
X4110109Y3063272D1*
X4115870Y3060046D1*
X4121361Y3056377D1*
X4126546Y3052289D1*
X4130959Y3048209D1*
X4137759Y3054214D1*
X4145252Y3059521D1*
X4153278Y3063979D1*
X4161743Y3067535D1*
X4170546Y3070148D1*
X4179580Y3071786D1*
X4188739Y3072429D1*
X4197915Y3072070D1*
X4206995Y3070711D1*
X4215874Y3068371D1*
X4224445Y3065079D1*
X4232163Y3061123D1*
X4232161Y3172365D1*
X3885870Y3172324D1*
X3885891Y3111295D1*
X3855100Y2945101D2*
X3855094Y3078955D1*
X3829087Y3078957D1*
X3829274Y3069961D1*
X3833307Y3062047D1*
X3836051Y3053600D1*
X3837441Y3044828D1*
X3837615Y3022014D1*
Y2630339D1*
X3846159Y2630089D1*
X3852717Y2629312D1*
X3859193Y2628025D1*
X3865549Y2626232D1*
X3871744Y2623946D1*
X3877741Y2621181D1*
X3883503Y2617955D1*
X3892012Y2611907D1*
X3902026Y2617950D1*
X3908024Y2620715D1*
X3914219Y2623001D1*
X3920575Y2624794D1*
X3927051Y2626081D1*
X3933609Y2626858D1*
X3940207Y2627117D1*
X3946806Y2626858D1*
X3953364Y2626081D1*
X3959840Y2624794D1*
X3966196Y2623001D1*
X3972391Y2620715D1*
X3978388Y2617950D1*
X3984150Y2614724D1*
X3989640Y2611055D1*
X3994825Y2606967D1*
X3999675Y2602484D1*
X4006537Y2594617D1*
X4006549Y2834895D1*
X3855094Y2834865D1*
Y2945136D1*
X3755899Y3709710D2*
X3889739D1*
Y3692020D1*
X3952077Y3691993D1*
X3962304Y3691189D1*
X3972281Y3688794D1*
X3981759Y3684867D1*
X3990522Y3679495D1*
X3993920Y3677710D1*
X4039529D1*
X4035894Y3687350D1*
X4033650Y3696253D1*
X4032388Y3705349D1*
X4032127Y3714526D1*
X4032867Y3723678D1*
X4034601Y3732696D1*
X4037307Y3741469D1*
X4040954Y3749895D1*
X4045497Y3757874D1*
X4050883Y3765311D1*
X4057049Y3772115D1*
X4063919Y3778206D1*
X4071412Y3783513D1*
X4079438Y3787971D1*
X4087903Y3791528D1*
X4096706Y3794140D1*
X4105740Y3795778D1*
X4114899Y3796421D1*
X4124075Y3796062D1*
X4133155Y3794703D1*
X4142034Y3792364D1*
X4150605Y3789071D1*
X4158765Y3784862D1*
X4166192Y3779954D1*
X4172978Y3784475D1*
X4181100Y3788756D1*
X4189640Y3792127D1*
X4198497Y3794547D1*
X4207566Y3795987D1*
X4216736Y3796429D1*
X4225902Y3795869D1*
X4232161Y3794896D1*
Y4150568D1*
X4191774Y4190925D1*
X4188484Y4183808D1*
X4183802Y4175911D1*
X4181531Y4172690D1*
X4186148Y4165757D1*
X4190412Y4157626D1*
X4193765Y4149077D1*
X4196165Y4140215D1*
X4197587Y4131144D1*
X4198012Y4122690D1*
X4197510Y4113522D1*
X4196013Y4104463D1*
X4193537Y4095622D1*
X4190112Y4087102D1*
X4185778Y4079008D1*
X4180588Y4071434D1*
X4174602Y4064471D1*
X4167894Y4058202D1*
X4160542Y4052701D1*
X4152635Y4048035D1*
X4144265Y4044259D1*
X4135534Y4041417D1*
X4126546Y4039545D1*
X4117406Y4038663D1*
X4108226Y4038782D1*
X4099112Y4039903D1*
X4090175Y4042009D1*
X4081521Y4045079D1*
X4079004Y4046182D1*
X4077487Y4037081D1*
X4074316Y4027324D1*
X4069659Y4018184D1*
X4063629Y4009883D1*
X4047152Y3993122D1*
X3889433Y3835688D1*
X3881133Y3829657D1*
X3871992Y3825000D1*
X3862235Y3821829D1*
X3852102Y3820224D1*
X3828600Y3820024D1*
X3755934D1*
X3755899Y3709678D1*
X2071325Y3838202D2*
Y3733349D1*
X2074287Y3731193D1*
X2081087Y3735730D1*
X2089209Y3740010D1*
X2097749Y3743382D1*
X2106606Y3745802D1*
X2115675Y3747241D1*
X2124845Y3747684D1*
X2134010Y3747123D1*
X2143059Y3745568D1*
X2151885Y3743035D1*
X2160382Y3739555D1*
X2166806Y3736156D1*
X2166802Y3774217D1*
X2102778Y3838206D1*
X2071343Y3838199D1*
X2439524Y4260843D2*
Y4185615D1*
X2463146Y4185608D1*
Y4026892D1*
X2697409Y4261144D1*
X2439499Y4260846D1*
X464196Y3307416D2*
X473329Y3306734D1*
X481188Y3305316D1*
X481362Y3377808D1*
X482751Y3386580D1*
X485496Y3395028D1*
X489528Y3402941D1*
X494748Y3410126D1*
X510757Y3426381D1*
X535344Y3450969D1*
X535345Y3488923D1*
X530896Y3495382D1*
X525795Y3505392D1*
X523056Y3513478D1*
X485224Y3513663D1*
X476312Y3515073D1*
X467714Y3517870D1*
X465558Y3516052D1*
X464194Y3307390D1*
X481181Y3068549D2*
X471827Y3066953D1*
X462623Y3066437D1*
X460801Y2788013D1*
X470394Y2787745D1*
X479484Y2786457D1*
X481190Y2786098D1*
X481188Y3068521D1*
X864509Y3332016D2*
X860643Y3327112D1*
X856214Y3322322D1*
X851424Y3317892D1*
X845982Y3313640D1*
X848562Y3311655D1*
X857009Y3314400D1*
X865781Y3315789D1*
X888594Y3315963D1*
X1265127D1*
X1271579Y3321329D1*
X1260886Y3332004D1*
X864514Y3332009D1*
X750440Y2995837D2*
X749673Y2989358D1*
X748400Y2982958D1*
X746629Y2976678D1*
X744370Y2970558D1*
X741639Y2964633D1*
X738450Y2958940D1*
X734825Y2953514D1*
X727448Y2944778D1*
X798173Y2944791D1*
X804693Y2944535D1*
X811172Y2943769D1*
X817572Y2942496D1*
X823852Y2940724D1*
X829972Y2938466D1*
X835898Y2935735D1*
X841591Y2932546D1*
X847957Y2928180D1*
X849370Y2932619D1*
X844245Y2936659D1*
X839455Y2941088D1*
X835026Y2945878D1*
X830987Y2951003D1*
X827362Y2956428D1*
X824173Y2962121D1*
X821442Y2968046D1*
X819184Y2974167D1*
X817412Y2980446D1*
X816139Y2986846D1*
X815373Y2993325D1*
X815117Y3009031D1*
Y3074648D1*
X815373Y3081168D1*
X816139Y3087647D1*
X817412Y3094047D1*
X819184Y3100327D1*
X821442Y3106448D1*
X824173Y3112373D1*
X827362Y3118066D1*
X830987Y3123491D1*
X835026Y3128615D1*
X839455Y3133406D1*
X844245Y3137835D1*
X849370Y3141874D1*
X854795Y3145499D1*
X860488Y3148688D1*
X866413Y3151419D1*
X872534Y3153677D1*
X878814Y3155449D1*
X885214Y3156722D1*
X891693Y3157488D1*
X898213Y3157744D1*
X904732Y3157488D1*
X911211Y3156722D1*
X917612Y3155449D1*
X923891Y3153677D1*
X930012Y3151419D1*
X935937Y3148688D1*
X941630Y3145499D1*
X947055Y3141874D1*
X952180Y3137835D1*
X956970Y3133406D1*
X961399Y3128615D1*
X965438Y3123491D1*
X969063Y3118066D1*
X972252Y3112373D1*
X974983Y3106448D1*
X977241Y3100327D1*
X979013Y3094047D1*
X980286Y3087647D1*
X981052Y3081168D1*
X981308Y3061551D1*
X1027669Y3107881D1*
X1027761Y3119803D1*
X1028538Y3126361D1*
X1029825Y3132837D1*
X1031618Y3139193D1*
X1033904Y3145388D1*
X1036669Y3151386D1*
X1039895Y3157147D1*
X1043564Y3162638D1*
X1047652Y3167823D1*
X1052135Y3172672D1*
X1056984Y3177155D1*
X1062169Y3181243D1*
X1067660Y3184912D1*
X1073421Y3188138D1*
X1079419Y3190903D1*
X1085614Y3193189D1*
X1091970Y3194982D1*
X1098446Y3196269D1*
X1105004Y3197046D1*
X1111602Y3197304D1*
X1118201Y3197046D1*
X1124759Y3196269D1*
X1131235Y3194982D1*
X1137591Y3193189D1*
X1143786Y3190903D1*
X1149783Y3188138D1*
X1155545Y3184912D1*
X1161035Y3181243D1*
X1166220Y3177155D1*
X1171070Y3172672D1*
X1175552Y3167823D1*
X1179640Y3162638D1*
X1183310Y3157147D1*
X1186535Y3151386D1*
X1189301Y3145388D1*
X1191587Y3139193D1*
X1193379Y3132837D1*
X1194667Y3126361D1*
X1195444Y3119803D1*
X1195702Y3113205D1*
X1195444Y3106606D1*
X1194667Y3100049D1*
X1193379Y3093572D1*
X1191587Y3087217D1*
X1189301Y3081021D1*
X1186535Y3075024D1*
X1181260Y3066196D1*
X1185651Y3058961D1*
X1189555Y3050651D1*
X1192531Y3041965D1*
X1194543Y3033007D1*
X1195566Y3023882D1*
X1195622Y3015417D1*
X1194720Y3006280D1*
X1192829Y2997295D1*
X1189969Y2988570D1*
X1186175Y2980209D1*
X1181301Y2972033D1*
X1186535Y2963156D1*
X1189301Y2957159D1*
X1191587Y2950963D1*
X1193379Y2944608D1*
X1194667Y2938131D1*
X1195444Y2931573D1*
X1195702Y2924975D1*
X1195444Y2918377D1*
X1194667Y2911819D1*
X1193379Y2905343D1*
X1191587Y2898987D1*
X1189301Y2892791D1*
X1186535Y2886794D1*
X1181260Y2877966D1*
X1185651Y2870731D1*
X1189555Y2862421D1*
X1192531Y2853735D1*
X1194543Y2844777D1*
X1195566Y2835652D1*
X1195622Y2827188D1*
X1194720Y2818050D1*
X1192829Y2809066D1*
X1189969Y2800340D1*
X1186175Y2791979D1*
X1181301Y2783803D1*
X1186535Y2774927D1*
X1189301Y2768929D1*
X1191587Y2762734D1*
X1193379Y2756378D1*
X1194667Y2749902D1*
X1195444Y2743344D1*
X1195702Y2736745D1*
X1195444Y2730147D1*
X1194667Y2723589D1*
X1193379Y2717113D1*
X1191587Y2710757D1*
X1189301Y2704562D1*
X1186535Y2698564D1*
X1183310Y2692803D1*
X1179640Y2687312D1*
X1175552Y2682127D1*
X1171070Y2677278D1*
X1164823Y2671693D1*
X1164803Y2418417D1*
X1174598Y2417454D1*
X1180845Y2416211D1*
X1186976Y2414483D1*
X1192953Y2412277D1*
X1198738Y2409610D1*
X1204295Y2406499D1*
X1209592Y2402959D1*
X1214594Y2399016D1*
X1219273Y2394692D1*
X1223597Y2390013D1*
X1227541Y2385010D1*
X1231080Y2379714D1*
X1234192Y2374156D1*
X1236858Y2368371D1*
X1239064Y2362395D1*
X1240793Y2356264D1*
X1242035Y2350017D1*
X1242785Y2343690D1*
X1243034Y2337325D1*
X1242785Y2330961D1*
X1242035Y2324634D1*
X1240793Y2318387D1*
X1239064Y2312256D1*
X1236858Y2306280D1*
X1234192Y2300495D1*
X1231080Y2294937D1*
X1227541Y2289640D1*
X1220608Y2281403D1*
X1229648Y2282226D1*
X1238828Y2282066D1*
X1247937Y2280907D1*
X1256865Y2278762D1*
X1261260Y2277311D1*
X1258987Y2286572D1*
X1258280Y2295568D1*
X1258457Y2437911D1*
X1259867Y2446823D1*
X1262656Y2455406D1*
X1266753Y2463445D1*
X1272058Y2470745D1*
X1288114Y2487052D1*
X1356953Y2555892D1*
X1356930Y2979634D1*
X1350465Y2977203D1*
X1344109Y2975411D1*
X1337633Y2974123D1*
X1331075Y2973346D1*
X1324476Y2973088D1*
X1317878Y2973346D1*
X1311320Y2974123D1*
X1304844Y2975411D1*
X1298488Y2977203D1*
X1292293Y2979490D1*
X1286295Y2982255D1*
X1280534Y2985480D1*
X1275043Y2989150D1*
X1269858Y2993238D1*
X1265009Y2997720D1*
X1260526Y3002570D1*
X1256438Y3007755D1*
X1252769Y3013245D1*
X1249543Y3019007D1*
X1246778Y3025004D1*
X1244492Y3031199D1*
X1242699Y3037555D1*
X1241412Y3044031D1*
X1240635Y3050589D1*
X1240377Y3057188D1*
X1240635Y3063786D1*
X1241412Y3070344D1*
X1242699Y3076820D1*
X1244492Y3083176D1*
X1246778Y3089371D1*
X1249543Y3095369D1*
X1252769Y3101130D1*
X1256194Y3106256D1*
X1251496Y3113522D1*
X1247375Y3121727D1*
X1244173Y3130332D1*
X1241929Y3139235D1*
X1240668Y3148331D1*
X1240407Y3157508D1*
X1241147Y3166660D1*
X1242881Y3175677D1*
X1245587Y3184450D1*
X1249234Y3192877D1*
X1253777Y3200856D1*
X1255046Y3202761D1*
X893634Y3202764D1*
X737777Y3046874D1*
X741639Y3040081D1*
X744370Y3034156D1*
X746629Y3028035D1*
X748400Y3021756D1*
X749673Y3015356D1*
X750440Y3008877D1*
X750696Y3002357D1*
X750440Y2995837D1*
X663474Y2919261D2*
X594361D1*
X594387Y2566081D1*
X612854Y2566070D1*
X644038Y2597025D1*
X651223Y2602245D1*
X659151Y2606999D1*
X744688Y2692535D1*
X690887Y2692546D1*
X684367Y2692802D1*
X677888Y2693568D1*
X671488Y2694841D1*
X665209Y2696613D1*
X659088Y2698871D1*
X653163Y2701602D1*
X647470Y2704791D1*
X642045Y2708416D1*
X636920Y2712455D1*
X632130Y2716885D1*
X627701Y2721675D1*
X623661Y2726799D1*
X620037Y2732224D1*
X616848Y2737917D1*
X614117Y2743843D1*
X611858Y2749963D1*
X610087Y2756243D1*
X608814Y2762643D1*
X608047Y2769122D1*
X607791Y2775642D1*
X608047Y2782161D1*
X608814Y2788640D1*
X610087Y2795041D1*
X611858Y2801320D1*
X614117Y2807441D1*
X616848Y2813366D1*
X620037Y2819059D1*
X623661Y2824484D1*
X627701Y2829609D1*
X632130Y2834399D1*
X636920Y2838828D1*
X642362Y2843080D1*
X640530Y2855176D1*
X640274Y2861696D1*
X640530Y2868215D1*
X641297Y2874694D1*
X642570Y2881094D1*
X644341Y2887374D1*
X646600Y2893495D1*
X649331Y2899420D1*
X652520Y2905113D1*
X656144Y2910538D1*
X663522Y2919274D1*
X481184Y2549005D2*
X472543Y2547570D1*
X463377Y2547054D1*
X459223Y2547157D1*
X457289Y2250696D1*
X465152Y2250748D1*
X474290Y2249864D1*
X481182Y2248505D1*
X481188Y2548990D1*
X751156Y2476454D2*
X750390Y2469975D1*
X749117Y2463575D1*
X747345Y2457295D1*
X745087Y2451175D1*
X742356Y2445249D1*
X739167Y2439556D1*
X735542Y2434131D1*
X731503Y2429007D1*
X727073Y2424217D1*
X722283Y2419787D1*
X717159Y2415748D1*
X711734Y2412123D1*
X706041Y2408934D1*
X700115Y2406203D1*
X693995Y2403945D1*
X687715Y2402173D1*
X681315Y2400900D1*
X674836Y2400134D1*
X659130Y2399878D1*
X594390D1*
X594387Y2028823D1*
X620395Y2028840D1*
X746912Y2155328D1*
X689312Y2155316D1*
X682793Y2155572D1*
X676314Y2156339D1*
X669913Y2157612D1*
X663634Y2159383D1*
X657513Y2161642D1*
X651588Y2164373D1*
X645895Y2167562D1*
X640470Y2171186D1*
X635345Y2175226D1*
X630555Y2179655D1*
X626126Y2184445D1*
X622087Y2189570D1*
X618462Y2194995D1*
X615273Y2200688D1*
X612542Y2206613D1*
X610283Y2212734D1*
X608512Y2219013D1*
X607239Y2225413D1*
X606472Y2231892D1*
X606217Y2238412D1*
X606472Y2244932D1*
X607239Y2251411D1*
X608512Y2257811D1*
X610283Y2264091D1*
X612542Y2270211D1*
X615273Y2276136D1*
X618462Y2281829D1*
X622087Y2287255D1*
X626126Y2292379D1*
X630555Y2297169D1*
X635345Y2301598D1*
X640787Y2305850D1*
X638955Y2317946D1*
X638699Y2324466D1*
X638955Y2330986D1*
X639722Y2337465D1*
X640995Y2343865D1*
X642766Y2350144D1*
X645025Y2356265D1*
X647756Y2362190D1*
X650945Y2367883D1*
X654570Y2373308D1*
X658609Y2378433D1*
X663038Y2383223D1*
X667828Y2387652D1*
X672953Y2391692D1*
X678378Y2395316D1*
X684071Y2398505D1*
X689996Y2401236D1*
X696117Y2403495D1*
X702396Y2405266D1*
X708797Y2406539D1*
X715276Y2407306D1*
X730982Y2407562D1*
X796598D1*
X803118Y2407306D1*
X809597Y2406539D1*
X815997Y2405266D1*
X822277Y2403495D1*
X828398Y2401236D1*
X834323Y2398505D1*
X840016Y2395316D1*
X845441Y2391692D1*
X850566Y2387652D1*
X855356Y2383223D1*
X859785Y2378433D1*
X863824Y2373308D1*
X867449Y2367883D1*
X870638Y2362190D1*
X873369Y2356265D1*
X875627Y2350144D1*
X877399Y2343865D1*
X878672Y2337465D1*
X879438Y2330986D1*
X879694Y2324466D1*
X879438Y2317946D1*
X878672Y2311467D1*
X877399Y2305067D1*
X875627Y2298787D1*
X873369Y2292667D1*
X870638Y2286741D1*
X867449Y2281049D1*
X863824Y2275623D1*
X859785Y2270499D1*
X855356Y2265709D1*
X850566Y2261280D1*
X845123Y2257028D1*
X850463Y2258879D1*
X971304Y2379474D1*
X978490Y2384694D1*
X986403Y2388726D1*
X994850Y2391471D1*
X1003622Y2392860D1*
X1020802Y2393034D1*
X1051606Y2423829D1*
X1051604Y2677804D1*
X1043564Y2687312D1*
X1039895Y2692803D1*
X1036669Y2698564D1*
X1033904Y2704562D1*
X1031618Y2710757D1*
X1029825Y2717113D1*
X1028538Y2723589D1*
X1027761Y2730147D1*
X1027503Y2736745D1*
X1027761Y2743344D1*
X1028538Y2749902D1*
X1029825Y2756378D1*
X1031618Y2762734D1*
X1033904Y2768929D1*
X1036669Y2774927D1*
X1041945Y2783755D1*
X1037724Y2790675D1*
X1033785Y2798967D1*
X1030772Y2807640D1*
X1028739Y2816499D1*
X738982Y2526740D1*
X742356Y2520698D1*
X745087Y2514773D1*
X747345Y2508652D1*
X749117Y2502373D1*
X750390Y2495972D1*
X751156Y2489493D1*
X751412Y2482974D1*
X751156Y2476454D1*
X815835Y2555240D2*
X816089Y2561785D1*
X816856Y2568264D1*
X818129Y2574664D1*
X819900Y2580944D1*
X822159Y2587064D1*
X824890Y2592990D1*
X828079Y2598682D1*
X831703Y2604108D1*
X835743Y2609232D1*
X840172Y2614022D1*
X844962Y2618451D1*
X850087Y2622491D1*
X855512Y2626115D1*
X861205Y2629304D1*
X867130Y2632035D1*
X873251Y2634294D1*
X879530Y2636066D1*
X885930Y2637339D1*
X892409Y2638105D1*
X898929Y2638361D1*
X905449Y2638105D1*
X911928Y2637339D1*
X918328Y2636066D1*
X924608Y2634294D1*
X930728Y2632035D1*
X936654Y2629304D1*
X942346Y2626115D1*
X947772Y2622491D1*
X952896Y2618451D1*
X957686Y2614022D1*
X962115Y2609232D1*
X966155Y2604108D1*
X969780Y2598682D1*
X972969Y2592990D1*
X975699Y2587064D1*
X977958Y2580944D1*
X979730Y2574664D1*
X981003Y2568264D1*
X981769Y2561785D1*
X982025Y2546079D1*
X981990Y2480462D1*
X981769Y2473942D1*
X981003Y2467463D1*
X979730Y2461063D1*
X977958Y2454783D1*
X975699Y2448663D1*
X972969Y2442738D1*
X969780Y2437045D1*
X966155Y2431619D1*
X962115Y2426495D1*
X957686Y2421705D1*
X952896Y2417276D1*
X947772Y2413236D1*
X942346Y2409612D1*
X936654Y2406423D1*
X930728Y2403692D1*
X924608Y2401433D1*
X918328Y2399661D1*
X911928Y2398388D1*
X905449Y2397622D1*
X898929Y2397366D1*
X892409Y2397622D1*
X885930Y2398388D1*
X879530Y2399661D1*
X873251Y2401433D1*
X867130Y2403692D1*
X861205Y2406423D1*
X855512Y2409612D1*
X850087Y2413236D1*
X844962Y2417276D1*
X840172Y2421705D1*
X835743Y2426495D1*
X831703Y2431619D1*
X828079Y2437045D1*
X824890Y2442738D1*
X822159Y2448663D1*
X819900Y2454783D1*
X818129Y2461063D1*
X816856Y2467463D1*
X816089Y2473942D1*
X815833Y2489648D1*
Y2555064D1*
X3366629Y2309045D2*
X3358770Y2305992D1*
X3349202Y2303560D1*
X3331199Y2285820D1*
X3324014Y2280600D1*
X3316101Y2276568D1*
X3307654Y2273823D1*
X3298882Y2272434D1*
X3276068Y2272260D1*
X3164934D1*
X3168650Y2264917D1*
X3171395Y2256470D1*
X3172783Y2247698D1*
X3172958Y2224885D1*
Y2115402D1*
X3366528Y2308957D1*
X3907958Y4038824D2*
X3900756Y4039626D1*
X3894280Y4040913D1*
X3887924Y4042706D1*
X3881728Y4044992D1*
X3875731Y4047757D1*
X3869970Y4050983D1*
X3863932Y4055083D1*
X3857854Y4050983D1*
X3852093Y4047757D1*
X3846096Y4044992D1*
X3839900Y4042706D1*
X3833545Y4040913D1*
X3827068Y4039626D1*
X3820510Y4038849D1*
X3813912Y4038591D1*
X3807314Y4038849D1*
X3800756Y4039626D1*
X3794280Y4040913D1*
X3787924Y4042706D1*
X3781728Y4044992D1*
X3775731Y4047757D1*
X3769970Y4050983D1*
X3763932Y4055083D1*
X3757856Y4050983D1*
X3752094Y4047757D1*
X3746097Y4044992D1*
X3739902Y4042706D1*
X3733546Y4040913D1*
X3727070Y4039626D1*
X3720512Y4038849D1*
X3713913Y4038591D1*
X3707315Y4038849D1*
X3700757Y4039626D1*
X3694281Y4040913D1*
X3687925Y4042706D1*
X3681730Y4044992D1*
X3675732Y4047757D1*
X3669971Y4050983D1*
X3664480Y4054652D1*
X3659295Y4058740D1*
X3654446Y4063223D1*
X3649963Y4068072D1*
X3645875Y4073257D1*
X3642206Y4078748D1*
X3638980Y4084509D1*
X3636215Y4090507D1*
X3633929Y4096702D1*
X3632136Y4103058D1*
X3630849Y4109534D1*
X3630072Y4116092D1*
X3629814Y4122690D1*
X3630072Y4129289D1*
X3630849Y4135846D1*
X3632136Y4142323D1*
X3633929Y4148678D1*
X3636215Y4154874D1*
X3638980Y4160871D1*
X3642206Y4166633D1*
X3646306Y4172671D1*
X3642206Y4178748D1*
X3638980Y4184509D1*
X3636215Y4190507D1*
X3633929Y4196702D1*
X3632136Y4203058D1*
X3630849Y4209534D1*
X3630072Y4216092D1*
X3629814Y4222690D1*
X3630652Y4234181D1*
X3347190Y4234189D1*
X3347961Y4225646D1*
X3347832Y4217182D1*
X3346731Y4208067D1*
X3344643Y4199126D1*
X3341593Y4190465D1*
X3337617Y4182189D1*
X3332762Y4174395D1*
X3331531Y4172690D1*
X3336148Y4165757D1*
X3340412Y4157626D1*
X3343765Y4149077D1*
X3346165Y4140215D1*
X3347587Y4131144D1*
X3348012Y4122690D1*
X3347510Y4113522D1*
X3346013Y4104463D1*
X3343537Y4095622D1*
X3340112Y4087102D1*
X3335778Y4079008D1*
X3330588Y4071434D1*
X3324602Y4064471D1*
X3317894Y4058202D1*
X3310542Y4052701D1*
X3302635Y4048035D1*
X3294265Y4044259D1*
X3285534Y4041417D1*
X3276546Y4039545D1*
X3267406Y4038663D1*
X3258226Y4038782D1*
X3249112Y4039903D1*
X3240175Y4042009D1*
X3231521Y4045079D1*
X3229291Y4046051D1*
X3229293Y3950769D1*
X3819882Y3950782D1*
X3907896Y4038787D1*
X2262678Y2061181D2*
X2261976Y2052026D1*
X2260282Y2043003D1*
X2257613Y2034217D1*
X2254003Y2025776D1*
X2249493Y2017777D1*
X2244138Y2010318D1*
X2238003Y2003487D1*
X2231159Y1997366D1*
X2223689Y1992028D1*
X2215681Y1987535D1*
X2207231Y1983942D1*
X2198440Y1981293D1*
X2189412Y1979617D1*
X2180256Y1978934D1*
X2171080Y1979255D1*
X2161993Y1980573D1*
X2153105Y1982875D1*
X2144520Y1986133D1*
X2137552Y1989528D1*
Y1966812D1*
X2139562Y1958121D1*
X2147684Y1962402D1*
X2156224Y1965773D1*
X2165081Y1968193D1*
X2174150Y1969633D1*
X2183320Y1970075D1*
X2192486Y1969514D1*
X2201534Y1967959D1*
X2210360Y1965427D1*
X2218857Y1961946D1*
X2226924Y1957560D1*
X2232776Y1953600D1*
X2239562Y1958121D1*
X2247684Y1962402D1*
X2256224Y1965773D1*
X2265081Y1968193D1*
X2274150Y1969633D1*
X2283320Y1970075D1*
X2292486Y1969514D1*
X2301534Y1967959D1*
X2310360Y1965427D1*
X2318857Y1961946D1*
X2326924Y1957560D1*
X2334465Y1952323D1*
X2341388Y1946293D1*
X2347615Y1939545D1*
X2353068Y1932157D1*
X2357684Y1924220D1*
X2361407Y1915827D1*
X2364192Y1907077D1*
X2366007Y1898077D1*
X2366636Y1892365D1*
X2557759Y1892367D1*
X2610147Y1944484D1*
X2617332Y1949705D1*
X2625245Y1953736D1*
X2633693Y1956482D1*
X2642465Y1957870D1*
X2665278Y1958045D1*
X2907388D1*
X2913801Y1962493D1*
X2923811Y1967594D1*
X2934496Y1971067D1*
X2945593Y1972824D1*
X2951408Y1973037D1*
X2951390Y2010421D1*
X2946941Y2016837D1*
X2941840Y2026848D1*
X2938367Y2037533D1*
X2936610Y2048630D1*
Y2059866D1*
X2938367Y2070963D1*
X2941840Y2081648D1*
X2946941Y2091659D1*
X2953545Y2100748D1*
X2961490Y2108693D1*
X2970579Y2115297D1*
X2980589Y2120398D1*
X2991274Y2123870D1*
X3002371Y2125627D1*
X3010689Y2125741D1*
Y2170105D1*
X2262415Y2170109D1*
X2262678Y2161181D1*
X2261976Y2152026D1*
X2260282Y2143003D1*
X2257613Y2134217D1*
X2254003Y2125776D1*
X2249493Y2117777D1*
X2246218Y2113018D1*
X2250835Y2106085D1*
X2255098Y2097954D1*
X2258451Y2089406D1*
X2260852Y2080543D1*
X2262273Y2071472D1*
X2262698Y2063018D1*
X2262678Y2061181D1*
X2796306Y4172710D2*
X2792206Y4178748D1*
X2788980Y4184509D1*
X2786420Y4190062D1*
X2542202Y3945848D1*
X2542196Y3920232D1*
X2546644Y3913816D1*
X2551745Y3903806D1*
X2555218Y3893121D1*
X2556975Y3882024D1*
Y3870787D1*
X2555218Y3859690D1*
X2551745Y3849005D1*
X2546644Y3838995D1*
X2540041Y3829906D1*
X2532096Y3821961D1*
X2523007Y3815357D1*
X2512996Y3810256D1*
X2502311Y3806783D1*
X2491214Y3805026D1*
X2479978D1*
X2468881Y3806783D1*
X2463161Y3808424D1*
X2463146Y3747762D1*
X2281823D1*
X2281812Y3728996D1*
X2344340Y3728965D1*
X2351123Y3729853D1*
X2374626Y3730054D1*
X2733647D1*
X2733678Y3795697D1*
X2734483Y3805924D1*
X2736878Y3815900D1*
X2740804Y3825378D1*
X2746164Y3834126D1*
X2752843Y3841941D1*
X2846303Y3935118D1*
X2854604Y3941148D1*
X2863744Y3945806D1*
X2873501Y3948976D1*
X2883634Y3950581D1*
X2907136Y3950782D1*
X3098507D1*
X3098534Y4046056D1*
X3089900Y4042706D1*
X3083545Y4040913D1*
X3077068Y4039626D1*
X3070510Y4038849D1*
X3063912Y4038591D1*
X3057314Y4038849D1*
X3050756Y4039626D1*
X3044280Y4040913D1*
X3037924Y4042706D1*
X3031728Y4044992D1*
X3025731Y4047757D1*
X3019970Y4050983D1*
X3013932Y4055083D1*
X3007854Y4050983D1*
X3002093Y4047757D1*
X2996096Y4044992D1*
X2989900Y4042706D1*
X2983545Y4040913D1*
X2977068Y4039626D1*
X2970510Y4038849D1*
X2963912Y4038591D1*
X2957314Y4038849D1*
X2950756Y4039626D1*
X2944280Y4040913D1*
X2937924Y4042706D1*
X2931728Y4044992D1*
X2925731Y4047757D1*
X2919970Y4050983D1*
X2913932Y4055083D1*
X2907856Y4050983D1*
X2902094Y4047757D1*
X2896097Y4044992D1*
X2889902Y4042706D1*
X2883546Y4040913D1*
X2877070Y4039626D1*
X2870512Y4038849D1*
X2863913Y4038591D1*
X2857315Y4038849D1*
X2850757Y4039626D1*
X2844281Y4040913D1*
X2837925Y4042706D1*
X2831730Y4044992D1*
X2825732Y4047757D1*
X2819971Y4050983D1*
X2814480Y4054652D1*
X2809295Y4058740D1*
X2804446Y4063223D1*
X2799963Y4068072D1*
X2795875Y4073257D1*
X2792206Y4078748D1*
X2788980Y4084509D1*
X2786215Y4090507D1*
X2783929Y4096702D1*
X2782136Y4103058D1*
X2780849Y4109534D1*
X2780072Y4116092D1*
X2779814Y4122690D1*
X2780072Y4129289D1*
X2780849Y4135846D1*
X2782136Y4142323D1*
X2783929Y4148678D1*
X2786215Y4154874D1*
X2788980Y4160871D1*
X2792206Y4166633D1*
X2796306Y4172671D1*
X3383138Y3462837D2*
X3382436Y3453682D1*
X3380741Y3444659D1*
X3378072Y3435873D1*
X3374462Y3427432D1*
X3369953Y3419433D1*
X3366677Y3414675D1*
X3371294Y3407741D1*
X3375558Y3399610D1*
X3378911Y3391062D1*
X3381311Y3382199D1*
X3382732Y3373129D1*
X3383157Y3364675D1*
X3382656Y3355507D1*
X3381159Y3346448D1*
X3378682Y3337606D1*
X3375257Y3329087D1*
X3370924Y3320992D1*
X3366677Y3314675D1*
X3370765Y3308617D1*
X3373991Y3302856D1*
X3376756Y3296858D1*
X3379042Y3290663D1*
X3380835Y3284307D1*
X3382122Y3277831D1*
X3382899Y3271273D1*
X3383005Y3260782D1*
X3386453Y3257324D1*
X3385976Y3265547D1*
X3386858Y3276748D1*
X3389480Y3287673D1*
X3393780Y3298052D1*
X3399651Y3307633D1*
X3406948Y3316176D1*
X3415491Y3323472D1*
X3425071Y3329344D1*
X3435450Y3333643D1*
X3446375Y3336265D1*
X3457576Y3337147D1*
X3459091Y3337088D1*
X3459068Y3532987D1*
X3412004Y3532971D1*
X3405559Y3528522D1*
X3395549Y3523421D1*
X3384864Y3519949D1*
X3373766Y3518192D1*
X3364001Y3518134D1*
X3369344Y3510856D1*
X3373959Y3502919D1*
X3377682Y3494525D1*
X3380467Y3485776D1*
X3382282Y3476776D1*
X3383106Y3467630D1*
X3383138Y3462837D1*
X3231440Y3414676D2*
X3227007Y3421299D1*
X3222707Y3429413D1*
X3219318Y3437946D1*
X3216879Y3446798D1*
X3215420Y3455864D1*
X3214958Y3465034D1*
X3215499Y3474199D1*
X3217035Y3483252D1*
X3219550Y3492083D1*
X3223010Y3500587D1*
X3227379Y3508663D1*
X3232601Y3516215D1*
X3238617Y3523152D1*
X3245352Y3529392D1*
X3252727Y3534862D1*
X3260655Y3539495D1*
X3269039Y3543235D1*
X3277782Y3546039D1*
X3286780Y3547874D1*
X3295923Y3548717D1*
X3305102Y3548556D1*
X3309793Y3548081D1*
X3304352Y3557066D1*
X3300052Y3567445D1*
X3297430Y3578370D1*
X3297041Y3580598D1*
X3287887Y3581320D1*
X3278867Y3583034D1*
X3270088Y3585722D1*
X3261654Y3589350D1*
X3253665Y3593877D1*
X3249063Y3597050D1*
X3243000Y3592967D1*
X3237239Y3589741D1*
X3231241Y3586976D1*
X3225046Y3584690D1*
X3218690Y3582898D1*
X3212214Y3581610D1*
X3205656Y3580833D1*
X3195165Y3580727D1*
X3157554Y3543126D1*
X3163882Y3534364D1*
X3168983Y3524353D1*
X3172455Y3513668D1*
X3174213Y3502571D1*
Y3491335D1*
X3172455Y3480238D1*
X3168983Y3469552D1*
X3163882Y3459542D1*
X3159440Y3453194D1*
X3159433Y3301492D1*
X3163882Y3295073D1*
X3168983Y3285063D1*
X3172455Y3274378D1*
X3174213Y3263281D1*
Y3252045D1*
X3172455Y3240948D1*
X3168983Y3230262D1*
X3163882Y3220252D1*
X3157278Y3211163D1*
X3149333Y3203218D1*
X3140244Y3196614D1*
X3130234Y3191513D1*
X3119549Y3188041D1*
X3108451Y3186283D1*
X3097215D1*
X3086118Y3188041D1*
X3075433Y3191513D1*
X3065423Y3196614D1*
X3056333Y3203218D1*
X3048388Y3211163D1*
X3041785Y3220252D1*
X3036684Y3230262D1*
X3033211Y3240948D1*
X3031454Y3252045D1*
Y3263281D1*
X3033211Y3274378D1*
X3036684Y3285063D1*
X3041785Y3295073D1*
X3046227Y3301421D1*
X3046234Y3431808D1*
X2815770Y3201589D1*
X2808585Y3196369D1*
X2800672Y3192337D1*
X2792224Y3189592D1*
X2783453Y3188203D1*
X2760639Y3188029D1*
X2327840D1*
X2321424Y3183580D1*
X2311413Y3178479D1*
X2300728Y3175007D1*
X2289631Y3173249D1*
X2278395D1*
X2267298Y3175007D1*
X2256613Y3178479D1*
X2246602Y3183580D1*
X2237513Y3190184D1*
X2236529Y3191093D1*
X1897944Y3191280D1*
X1889172Y3192668D1*
X1880724Y3195413D1*
X1872811Y3199445D1*
X1865626Y3204665D1*
X1849371Y3220675D1*
X1811944Y3258101D1*
X1797083Y3258109D1*
X1797100Y3136336D1*
X1801549Y3129867D1*
X1806650Y3119857D1*
X1810122Y3109172D1*
X1811879Y3098075D1*
Y3086839D1*
X1810122Y3075741D1*
X1806650Y3065056D1*
X1801549Y3055046D1*
X1794945Y3045957D1*
X1787000Y3038012D1*
X1777911Y3031408D1*
X1774482Y3029487D1*
X2264832Y3029316D1*
X2273604Y3027928D1*
X2282051Y3025182D1*
X2289965Y3021151D1*
X2297150Y3015930D1*
X2313404Y2999921D1*
X2606245Y2707081D1*
X3013825Y2707062D1*
X3013361Y2715176D1*
X3013562Y2720289D1*
X3005119Y2722479D1*
X2994740Y2726778D1*
X2985160Y2732650D1*
X2976617Y2739946D1*
X2969320Y2748490D1*
X2963449Y2758070D1*
X2959150Y2768449D1*
X2956528Y2779374D1*
X2955646Y2790575D1*
X2956528Y2801776D1*
X2959150Y2812701D1*
X2963449Y2823080D1*
X2969320Y2832660D1*
X2976617Y2841203D1*
X2985160Y2848500D1*
X2994740Y2854371D1*
X3004975Y2858617D1*
X3199529Y3052929D1*
X3206714Y3058150D1*
X3214644Y3062188D1*
X3215217Y3071273D1*
X3215993Y3077831D1*
X3217281Y3084307D1*
X3219073Y3090663D1*
X3221360Y3096858D1*
X3224125Y3102856D1*
X3227350Y3108617D1*
X3231450Y3114655D1*
X3227007Y3121299D1*
X3222707Y3129413D1*
X3219318Y3137946D1*
X3216879Y3146798D1*
X3215420Y3155864D1*
X3214958Y3165034D1*
X3215499Y3174199D1*
X3217035Y3183252D1*
X3219550Y3192083D1*
X3223010Y3200587D1*
X3227379Y3208663D1*
X3231437Y3214676D1*
X3227350Y3220732D1*
X3224125Y3226493D1*
X3221360Y3232491D1*
X3219073Y3238686D1*
X3217281Y3245042D1*
X3215993Y3251518D1*
X3215217Y3258076D1*
X3214958Y3264675D1*
X3215217Y3271273D1*
X3215993Y3277831D1*
X3217281Y3284307D1*
X3219073Y3290663D1*
X3221360Y3296858D1*
X3224125Y3302856D1*
X3227350Y3308617D1*
X3231450Y3314655D1*
X3227007Y3321299D1*
X3222707Y3329413D1*
X3219318Y3337946D1*
X3216879Y3346798D1*
X3215420Y3355864D1*
X3214958Y3365034D1*
X3215499Y3374199D1*
X3217035Y3383252D1*
X3219550Y3392083D1*
X3223010Y3400587D1*
X3227379Y3408663D1*
X3231437Y3414676D1*
X3882762Y2318369D2*
X3876724Y2314269D1*
X3870963Y2311043D1*
X3864966Y2308278D1*
X3858770Y2305992D1*
X3852415Y2304199D1*
X3845938Y2302912D1*
X3839381Y2302135D1*
X3832782Y2301877D1*
X3826828Y2302110D1*
X3821025Y2295341D1*
X3751047Y2225609D1*
X3743862Y2220388D1*
X3735949Y2216357D1*
X3727501Y2213612D1*
X3718730Y2212223D1*
X3695916Y2212049D1*
X3576529D1*
X3567411Y2206496D1*
X3557031Y2202197D1*
X3546106Y2199575D1*
X3534906Y2198693D1*
X3523705Y2199575D1*
X3512780Y2202197D1*
X3502400Y2206496D1*
X3492820Y2212367D1*
X3484277Y2219664D1*
X3476980Y2228207D1*
X3471109Y2237787D1*
X3466810Y2248167D1*
X3466589Y2248949D1*
X3250211Y2032550D1*
X3248797Y2024843D1*
X3245324Y2014157D1*
X3240223Y2004147D1*
X3233619Y1995058D1*
X3226885Y1988231D1*
X3242780Y1972337D1*
X3714864Y1972171D1*
X3723635Y1970782D1*
X3732083Y1968037D1*
X3739996Y1964005D1*
X3747181Y1958785D1*
X3763437Y1942777D1*
X3805531Y1900681D1*
X3811001Y1897176D1*
X3817766Y1891395D1*
X3839381Y1869818D1*
X3845938Y1869041D1*
X3852415Y1867753D1*
X3858770Y1865961D1*
X3864966Y1863675D1*
X3870963Y1860909D1*
X3876724Y1857684D1*
X3882762Y1853584D1*
X3888840Y1857684D1*
X3894601Y1860909D1*
X3900598Y1863675D1*
X3906794Y1865961D1*
X3913150Y1867753D1*
X3919626Y1869041D1*
X3926184Y1869818D1*
X3932782Y1870076D1*
X3939381Y1869818D1*
X3945938Y1869041D1*
X3952415Y1867753D1*
X3958770Y1865961D1*
X3964966Y1863675D1*
X3970963Y1860909D1*
X3976724Y1857684D1*
X3982215Y1854014D1*
X3987400Y1849927D1*
X3992249Y1845444D1*
X3996732Y1840594D1*
X4000820Y1835409D1*
X4006543Y1826251D1*
X4006549Y2345579D1*
X4000820Y2336543D1*
X3996732Y2331358D1*
X3992249Y2326509D1*
X3987400Y2322026D1*
X3982215Y2317938D1*
X3976724Y2314269D1*
X3970963Y2311043D1*
X3964966Y2308278D1*
X3958770Y2305992D1*
X3952415Y2304199D1*
X3945938Y2302912D1*
X3939381Y2302135D1*
X3932782Y2301877D1*
X3926184Y2302135D1*
X3919626Y2302912D1*
X3913150Y2304199D1*
X3906794Y2305992D1*
X3900598Y2308278D1*
X3894601Y2311043D1*
X3888840Y2314269D1*
X3882802Y2318369D1*
X3382664Y2755585D2*
X3381159Y2746448D1*
X3378682Y2737606D1*
X3375257Y2729087D1*
X3370924Y2720992D1*
X3368521Y2717273D1*
X3401966D1*
X3400787Y2726066D1*
X3400538Y2732430D1*
X3400787Y2738795D1*
X3401537Y2745122D1*
X3403962Y2755560D1*
X3382673Y2755579D1*
X2926505Y3585184D2*
X2918899Y3582949D1*
X2909871Y3581273D1*
X2900715Y3580591D1*
X2893364Y3580768D1*
X2889285Y3576220D1*
X2870306Y3557487D1*
X2863121Y3552266D1*
X2855207Y3548235D1*
X2846760Y3545490D1*
X2837988Y3544101D1*
X2815175Y3543927D1*
X2761706Y3544101D1*
X2757276Y3544626D1*
X2737465Y3545050D1*
X2726950D1*
X2719538Y3539824D1*
X2709528Y3534723D1*
X2698843Y3531251D1*
X2687745Y3529493D1*
X2676509D1*
X2665412Y3531251D1*
X2654727Y3534723D1*
X2644717Y3539824D1*
X2635627Y3546428D1*
X2627682Y3554373D1*
X2621079Y3563462D1*
X2615978Y3573472D1*
X2612505Y3584157D1*
X2610748Y3595255D1*
X2610588Y3599315D1*
X2367049Y3599295D1*
X2360294Y3598407D1*
X2336791Y3598206D1*
X2277188D1*
X2268249Y3591878D1*
X2262488Y3588652D1*
X2256491Y3585887D1*
X2250295Y3583601D1*
X2243940Y3581808D1*
X2237463Y3580521D1*
X2230906Y3579744D1*
X2224307Y3579486D1*
X2217709Y3579744D1*
X2211151Y3580521D1*
X2204675Y3581808D1*
X2198319Y3583601D1*
X2192123Y3585887D1*
X2186126Y3588652D1*
X2180365Y3591878D1*
X2174327Y3595978D1*
X2166253Y3590693D1*
X2158058Y3586555D1*
X2149458Y3583335D1*
X2140560Y3581071D1*
X2131469Y3579791D1*
X2124953Y3579492D1*
X2163487Y3540710D1*
X2166248Y3537206D1*
X2207480Y3537185D1*
Y3400430D1*
X2328684Y3400453D1*
X2338155Y3406261D1*
X2348534Y3410560D1*
X2359459Y3413182D1*
X2370660Y3414064D1*
X2381861Y3413182D1*
X2392786Y3410560D1*
X2403165Y3406261D1*
X2412745Y3400390D1*
X2421289Y3393093D1*
X2428585Y3384550D1*
X2434457Y3374970D1*
X2438756Y3364591D1*
X2441378Y3353665D1*
X2442232Y3343189D1*
X2729167Y3343181D1*
X2926530Y3540531D1*
X2926509Y3585210D1*
X2933588Y3741357D2*
X2941625Y3737206D1*
X2949051Y3732298D1*
X2955115Y3736382D1*
X2960877Y3739608D1*
X2966874Y3742373D1*
X2973070Y3744659D1*
X2979425Y3746451D1*
X2985902Y3747739D1*
X2992459Y3748516D1*
X2999058Y3748774D1*
X3005656Y3748516D1*
X3012214Y3747739D1*
X3018690Y3746451D1*
X3025046Y3744659D1*
X3031241Y3742373D1*
X3037239Y3739608D1*
X3043000Y3736382D1*
X3049038Y3732282D1*
X3055115Y3736382D1*
X3060877Y3739608D1*
X3066874Y3742373D1*
X3073070Y3744659D1*
X3079425Y3746451D1*
X3085902Y3747739D1*
X3092459Y3748516D1*
X3099058Y3748774D1*
X3105656Y3748516D1*
X3112214Y3747739D1*
X3118690Y3746451D1*
X3125046Y3744659D1*
X3131241Y3742373D1*
X3137239Y3739608D1*
X3143000Y3736382D1*
X3149038Y3732282D1*
X3155115Y3736382D1*
X3160877Y3739608D1*
X3166874Y3742373D1*
X3173070Y3744659D1*
X3179425Y3746451D1*
X3185902Y3747739D1*
X3192459Y3748516D1*
X3199058Y3748774D1*
X3205656Y3748516D1*
X3212214Y3747739D1*
X3218690Y3746451D1*
X3225046Y3744659D1*
X3231241Y3742373D1*
X3237239Y3739608D1*
X3243000Y3736382D1*
X3249038Y3732282D1*
X3255837Y3736819D1*
X3263959Y3741100D1*
X3272500Y3744471D1*
X3281357Y3746891D1*
X3290425Y3748331D1*
X3299596Y3748773D1*
X3308761Y3748213D1*
X3317810Y3746657D1*
X3326635Y3744125D1*
X3335133Y3740644D1*
X3343199Y3736259D1*
X3350740Y3731021D1*
X3357664Y3724991D1*
X3363891Y3718243D1*
X3369344Y3710856D1*
X3373959Y3702919D1*
X3377682Y3694525D1*
X3380467Y3685776D1*
X3382282Y3676776D1*
X3383106Y3667630D1*
X3383001Y3659618D1*
X3390274Y3657667D1*
X3400654Y3653367D1*
X3410234Y3647496D1*
X3411907Y3646177D1*
X3462344Y3646171D1*
X3552950Y3736747D1*
X3554366Y3744457D1*
X3557253Y3753555D1*
X2945798Y3753538D1*
X2933604Y3741366D1*
X2174327Y2731193D2*
X2180365Y2735293D1*
X2186126Y2738518D1*
X2192123Y2741283D1*
X2198319Y2743570D1*
X2204500Y2745312D1*
X2144167Y2745308D1*
X2150295Y2743570D1*
X2156491Y2741283D1*
X2162488Y2738518D1*
X2168249Y2735293D1*
X2174287Y2731193D1*
X1643820Y2639217D2*
X1641759Y2647508D1*
X1640497Y2656604D1*
X1640236Y2665781D1*
X1640976Y2674933D1*
X1642710Y2683950D1*
X1645416Y2692723D1*
X1649063Y2701150D1*
X1653606Y2709129D1*
X1658992Y2716566D1*
X1665157Y2723370D1*
X1672028Y2729461D1*
X1679521Y2734768D1*
X1687547Y2739226D1*
X1696012Y2742782D1*
X1704459Y2745306D1*
X1631924Y2745483D1*
X1623152Y2746871D1*
X1614705Y2749617D1*
X1606791Y2753648D1*
X1599606Y2758869D1*
X1583352Y2774878D1*
X1510451Y2847777D1*
X1510441Y2539955D1*
X1590518Y2620067D1*
X1598320Y2626730D1*
X1607068Y2632089D1*
X1616546Y2636016D1*
X1626522Y2638411D1*
X1636769Y2639215D1*
X1744140Y2745308D2*
X1751885Y2743035D1*
X1760382Y2739555D1*
X1768449Y2735169D1*
X1774301Y2731209D1*
X1781087Y2735730D1*
X1789209Y2740010D1*
X1797749Y2743382D1*
X1804459Y2745306D1*
X1744130Y2745308D1*
X1844140D2*
X1851885Y2743035D1*
X1860382Y2739555D1*
X1868449Y2735169D1*
X1874301Y2731209D1*
X1881087Y2735730D1*
X1889209Y2740010D1*
X1897749Y2743382D1*
X1904459Y2745306D1*
X1844175Y2745308D1*
X1944140D2*
X1951885Y2743035D1*
X1960382Y2739555D1*
X1968449Y2735169D1*
X1974301Y2731209D1*
X1981087Y2735730D1*
X1989209Y2740010D1*
X1997749Y2743382D1*
X2004459Y2745306D1*
X1944148Y2745308D1*
X2044140D2*
X2051885Y2743035D1*
X2060382Y2739555D1*
X2068449Y2735169D1*
X2074301Y2731209D1*
X2080365Y2735293D1*
X2086126Y2738518D1*
X2092123Y2741283D1*
X2098319Y2743570D1*
X2104500Y2745312D1*
X2044194Y2745308D1*
X1092993Y3920948D2*
X1082972Y3917084D1*
X1072353Y3914143D1*
X1061496Y3912262D1*
X1050505Y3911463D1*
X1039490Y3911751D1*
X1028556Y3913123D1*
X1017812Y3915567D1*
X1007361Y3919059D1*
X997304Y3923564D1*
X987743Y3929041D1*
X978766Y3935432D1*
X970465Y3942677D1*
X962917Y3950706D1*
X956199Y3959441D1*
X950375Y3968794D1*
X945501Y3978677D1*
X941626Y3988993D1*
X938787Y3999640D1*
X937012Y4010516D1*
X936319Y4021513D1*
X936713Y4032525D1*
X938190Y4043444D1*
X940739Y4054164D1*
X944331Y4064581D1*
X948933Y4074593D1*
X954500Y4084104D1*
X960979Y4093017D1*
X968304Y4101248D1*
X976406Y4108718D1*
X985203Y4115352D1*
X994614Y4121085D1*
X998366Y4123030D1*
X989298Y4128063D1*
X980218Y4134306D1*
X971798Y4141413D1*
X964119Y4149318D1*
X957259Y4157940D1*
X951281Y4167197D1*
X946245Y4176997D1*
X942201Y4187248D1*
X939188Y4197846D1*
X937234Y4208692D1*
X936358Y4219676D1*
X936571Y4230693D1*
X937870Y4241635D1*
X940240Y4252396D1*
X942325Y4259180D1*
X470391Y4258656D1*
X469753Y4157827D1*
X476251Y4160860D1*
X482446Y4163146D1*
X488802Y4164938D1*
X495278Y4166226D1*
X501836Y4167003D1*
X508434Y4167261D1*
X515033Y4167003D1*
X521591Y4166226D1*
X528067Y4164938D1*
X534423Y4163146D1*
X540618Y4160860D1*
X546615Y4158094D1*
X552377Y4154869D1*
X558415Y4150769D1*
X564492Y4154869D1*
X570253Y4158094D1*
X576251Y4160860D1*
X582446Y4163146D1*
X588802Y4164938D1*
X595278Y4166226D1*
X601836Y4167003D1*
X608434Y4167261D1*
X615033Y4167003D1*
X621591Y4166226D1*
X628067Y4164938D1*
X634423Y4163146D1*
X640618Y4160860D1*
X646615Y4158094D1*
X652377Y4154869D1*
X657867Y4151199D1*
X663052Y4147112D1*
X667902Y4142629D1*
X672385Y4137780D1*
X676472Y4132594D1*
X680142Y4127104D1*
X683367Y4121343D1*
X686133Y4115345D1*
X688419Y4109150D1*
X690211Y4102794D1*
X691499Y4096318D1*
X692276Y4089760D1*
X692534Y4083161D1*
X692276Y4076563D1*
X691499Y4070005D1*
X690211Y4063529D1*
X688419Y4057173D1*
X686133Y4050978D1*
X683367Y4044980D1*
X680457Y4039782D1*
X799720Y4039588D1*
X808492Y4038199D1*
X816940Y4035454D1*
X824853Y4031423D1*
X832038Y4026202D1*
X848294Y4010194D1*
X1011980Y3846507D1*
X1068525Y3846503D1*
X1069469Y3857028D1*
X1070711Y3863274D1*
X1072440Y3869406D1*
X1074646Y3875382D1*
X1077312Y3881167D1*
X1080424Y3886724D1*
X1083963Y3892021D1*
X1087907Y3897024D1*
X1092980Y3902394D1*
X1092997Y3920949D1*
X4232164Y2915552D2*
X4223789Y2911308D1*
X4215189Y2908088D1*
X4206291Y2905824D1*
X4197199Y2904545D1*
X4188021Y2904262D1*
X4178867Y2904984D1*
X4169848Y2906698D1*
X4161068Y2909386D1*
X4152634Y2913014D1*
X4144646Y2917541D1*
X4137304Y2922827D1*
X4137307Y2730008D1*
X4144820Y2728651D1*
X4155505Y2725178D1*
X4165516Y2720077D1*
X4174605Y2713474D1*
X4182550Y2705529D1*
X4189154Y2696440D1*
X4194255Y2686429D1*
X4197727Y2675744D1*
X4199484Y2664647D1*
Y2653411D1*
X4197727Y2642314D1*
X4194255Y2631629D1*
X4189154Y2621618D1*
X4184711Y2615270D1*
X4184705Y1771218D1*
X4191723Y1773269D1*
X4199353Y1774615D1*
X4232181Y1807434D1*
X4232161Y2915577D1*
X1316864Y2196346D2*
X1316161Y2187192D1*
X1314467Y2178168D1*
X1311798Y2169382D1*
X1308188Y2160941D1*
X1303678Y2152942D1*
X1298323Y2145483D1*
X1292188Y2138652D1*
X1285344Y2132531D1*
X1277874Y2127193D1*
X1269866Y2122701D1*
X1261416Y2119108D1*
X1252625Y2116458D1*
X1243597Y2114782D1*
X1234441Y2114100D1*
X1225265Y2114420D1*
X1216178Y2115739D1*
X1207290Y2118041D1*
X1198705Y2121298D1*
X1190526Y2125471D1*
X1182852Y2130510D1*
X1175772Y2136357D1*
X1169371Y2142941D1*
X1163727Y2150184D1*
X1158906Y2157997D1*
X1154966Y2166290D1*
X1151953Y2174963D1*
X1149903Y2183913D1*
X1148841Y2193034D1*
X1148780Y2202215D1*
X1149720Y2211349D1*
X1151651Y2220325D1*
X1154549Y2229038D1*
X1158378Y2237383D1*
X1163094Y2245261D1*
X1168642Y2252577D1*
X1172579Y2256902D1*
X1161907Y2256198D1*
X1155542Y2256448D1*
X1149215Y2257197D1*
X1142969Y2258440D1*
X1136837Y2260168D1*
X1130861Y2262374D1*
X1125076Y2265041D1*
X1119518Y2268152D1*
X1114222Y2271692D1*
X1109219Y2275635D1*
X1104253Y2280270D1*
X1031517Y2279835D1*
X738802Y1987129D1*
X743512Y1977543D1*
X745770Y1971423D1*
X747542Y1965143D1*
X748815Y1958743D1*
X749581Y1952264D1*
X749837Y1945744D1*
X749581Y1939224D1*
X748815Y1932745D1*
X747542Y1926345D1*
X745770Y1920066D1*
X743512Y1913945D1*
X740781Y1908020D1*
X737592Y1902327D1*
X733967Y1896902D1*
X729928Y1891777D1*
X725499Y1886987D1*
X721514Y1883205D1*
X839896D1*
X834168Y1889265D1*
X830129Y1894390D1*
X826504Y1899815D1*
X823315Y1905508D1*
X820584Y1911433D1*
X818325Y1917554D1*
X816554Y1923833D1*
X815281Y1930234D1*
X814514Y1936713D1*
X814259Y1952419D1*
Y2018035D1*
X814514Y2024555D1*
X815281Y2031034D1*
X816554Y2037434D1*
X818325Y2043714D1*
X820584Y2049835D1*
X823315Y2055760D1*
X826504Y2061453D1*
X830129Y2066878D1*
X834168Y2072003D1*
X838597Y2076793D1*
X843387Y2081222D1*
X848512Y2085261D1*
X853937Y2088886D1*
X859630Y2092075D1*
X865555Y2094806D1*
X871676Y2097064D1*
X877955Y2098836D1*
X884356Y2100109D1*
X890835Y2100875D1*
X897354Y2101131D1*
X903874Y2100875D1*
X910353Y2100109D1*
X916753Y2098836D1*
X923033Y2097064D1*
X929154Y2094806D1*
X935079Y2092075D1*
X940772Y2088886D1*
X946197Y2085261D1*
X951322Y2081222D1*
X956112Y2076793D1*
X960541Y2072003D1*
X964580Y2066878D1*
X968205Y2061453D1*
X971394Y2055760D1*
X974125Y2049835D1*
X976383Y2043714D1*
X978155Y2037434D1*
X979428Y2031034D1*
X980194Y2024555D1*
X980450Y2008849D1*
Y1948168D1*
X1059114Y2026835D1*
X1061745Y2037117D1*
X1063951Y2043093D1*
X1066618Y2048878D1*
X1069730Y2054436D1*
X1073269Y2059732D1*
X1077213Y2064735D1*
X1081537Y2069413D1*
X1086215Y2073738D1*
X1091218Y2077681D1*
X1096514Y2081220D1*
X1102072Y2084332D1*
X1107857Y2086999D1*
X1113833Y2089205D1*
X1119965Y2090933D1*
X1126211Y2092176D1*
X1132538Y2092925D1*
X1138903Y2093175D1*
X1145268Y2092925D1*
X1151594Y2092176D1*
X1157841Y2090933D1*
X1163972Y2089205D1*
X1169949Y2086999D1*
X1175734Y2084332D1*
X1181291Y2081220D1*
X1186588Y2077681D1*
X1191591Y2073738D1*
X1196269Y2069413D1*
X1200593Y2064735D1*
X1204537Y2059732D1*
X1208076Y2054436D1*
X1211188Y2048878D1*
X1213854Y2043093D1*
X1216060Y2037117D1*
X1217789Y2030986D1*
X1219031Y2024739D1*
X1219936Y2014459D1*
X1220030Y2005248D1*
Y1866182D1*
X1516723Y2162870D1*
X1519822Y2169810D1*
X1525693Y2179390D1*
X1532990Y2187933D1*
X1534328Y2189171D1*
X1360169Y2189344D1*
X1351257Y2190756D1*
X1342675Y2193543D1*
X1334635Y2197640D1*
X1327335Y2202945D1*
X1315214Y2214814D1*
X1316458Y2206638D1*
X1316883Y2198184D1*
X1316864Y2196346D1*
X3562543Y2726066D2*
X3561303Y2717274D1*
X3671959Y2717273D1*
X3681114Y2722825D1*
X3691493Y2727125D1*
X3702419Y2729747D1*
X3713619Y2730629D1*
X3724406Y2729797D1*
X3724415Y2984054D1*
X3715155Y2981921D1*
X3703954Y2981039D1*
X3692753Y2981921D1*
X3681828Y2984543D1*
X3671448Y2988844D1*
X3661869Y2994714D1*
X3660196Y2996033D1*
X3629059Y2996039D1*
X3628906Y2937367D1*
X3627516Y2928594D1*
X3624772Y2920148D1*
X3620739Y2912235D1*
X3615518Y2905050D1*
X3599510Y2888794D1*
X3516462Y2805745D1*
X3524054Y2801604D1*
X3529350Y2798064D1*
X3534353Y2794121D1*
X3539031Y2789797D1*
X3543356Y2785118D1*
X3547299Y2780115D1*
X3550839Y2774819D1*
X3553950Y2769261D1*
X3556617Y2763476D1*
X3558823Y2757500D1*
X3560551Y2751369D1*
X3561794Y2745122D1*
X3562543Y2738795D1*
X3562793Y2732430D1*
X3562543Y2726066D1*
X481189Y2012142D2*
X472791Y2010564D1*
X463638Y2009846D1*
X455714Y2010046D1*
X453724Y1705339D1*
X520963Y1772571D1*
X516127Y1774314D1*
X508214Y1778345D1*
X501029Y1783566D1*
X494748Y1789846D1*
X489528Y1797031D1*
X485496Y1804945D1*
X482751Y1813392D1*
X481362Y1822164D1*
X481188Y1844978D1*
Y2012163D1*
X1206029Y1852180D2*
X1060469D1*
X1056448Y1845798D1*
X1050680Y1839045D1*
X1027152Y1815404D1*
X1024530Y1804479D1*
X1023929Y1802852D1*
X1156675Y1802856D1*
X1206043Y1852192D1*
X1378394Y1826232D2*
D21*
X1465391D1*
X3942127Y3111257D2*
Y3028197D1*
X3855130D2*
X3942127D1*
X2356428Y4208811D2*
X2439488D1*
X462579Y3307396D2*
Y3066472D1*
X463295Y2788013D2*
Y2547089D1*
X2178598Y2063018D2*
Y1978954D1*
Y2063018D2*
X2262663D1*
X2178598Y2163018D2*
X2262663D1*
X3263912Y4122690D2*
Y4038626D1*
Y4122690D2*
X3347976D1*
X3263912Y4222690D2*
X3347976D1*
X3299058Y3548739D2*
Y3464675D1*
X3214993D2*
X3383122D1*
X3214993Y3364675D2*
X3383122D1*
X3214993Y3164675D2*
X3299058D1*
X1632782Y1870041D2*
Y1785976D1*
X1548718D2*
X1632782D1*
X3299058Y2764675D2*
X3383122D1*
X2899058Y3664675D2*
Y3580610D1*
X3299058Y3748739D2*
Y3580610D1*
Y3664675D2*
X3383122D1*
X2124307Y3747650D2*
Y3579521D1*
X1640243Y2663585D2*
X1724307D1*
X4113912Y4122690D2*
Y4038626D1*
Y4122690D2*
X4197976D1*
X2282782Y1970041D2*
Y1885976D1*
X2366846D1*
X1240413Y3155312D2*
X1324478D1*
X2182782Y1970041D2*
Y1885976D1*
X1047908Y4023033D2*
Y3911469D1*
X936344Y4023033D2*
X1047908D1*
X4216198Y3796395D2*
Y3712331D1*
X4116198Y3796395D2*
Y3712331D1*
X4032134D2*
X4116198D1*
X4190038Y3072403D2*
Y2904274D1*
X936344Y4223033D2*
X1047908D1*
X1111602Y3019091D2*
X1195667D1*
X1027538Y2830861D2*
X1195667D1*
X1232783Y2282248D2*
Y2114119D1*
X1148719Y2198184D2*
X1316848D1*
X461720Y2250783D2*
Y2009860D1*
X3822480Y3169927D2*
Y3078992D1*
Y3169927D2*
X3885856D1*
X1138903Y1933307D2*
Y1852215D1*
Y1933307D2*
X1219995D1*
X4188701Y1521155D2*
D20*
X4270017D1*
X2197811Y1481286D2*
X4067522D1*
X4188701D2*
X4270017D1*
X1601344Y1441417D2*
X2059049D1*
X2197811D2*
X3081281D1*
X3316500D2*
X4067522D1*
X4188701D2*
X4270017D1*
X1612827Y1401549D2*
X2059049D1*
X2197811D2*
X3081281D1*
X3316500D2*
X4067522D1*
X4188701D2*
X4270017D1*
X1612827Y1361680D2*
X2059049D1*
X2197811D2*
X3064129D1*
X3316500D2*
X3746466D1*
X3827849D2*
X4067522D1*
X4188701D2*
X4270017D1*
X1599585Y1321811D2*
X2059049D1*
X2197811D2*
X3059930D1*
X3316500D2*
X3708824D1*
X4188701D2*
X4270017D1*
X1586702Y1281942D2*
X1675841D1*
X2031739D2*
X2059049D1*
X2197811D2*
X3059930D1*
X3181109D2*
X3420782D1*
X3603717D2*
X3702365D1*
X4188701D2*
X4270017D1*
X1586702Y1242073D2*
X1675841D1*
X2031739D2*
X2059049D1*
X2197811D2*
X2476597D1*
X2658671D2*
X3059930D1*
X3181109D2*
X3420782D1*
X3647567D2*
X3717220D1*
X4188701D2*
X4270017D1*
X1586702Y1202205D2*
X1670997D1*
X2219449D2*
X2243026D1*
X2658671D2*
X2922350D1*
X3317864D2*
X3420782D1*
X4188701D2*
X4270017D1*
X1586702Y1162336D2*
X1670997D1*
X2658671D2*
X2922350D1*
X4188701D2*
X4270017D1*
X2658671Y1122467D2*
X2922350D1*
X4175136D2*
X4270017D1*
X2003175Y1082598D2*
X2037374D1*
X2459478D2*
X2922350D1*
X4175136D2*
X4270017D1*
X2003175Y1042730D2*
X2037374D1*
X2417206D2*
X3261097D1*
X4200256D2*
X4270017D1*
X2001273Y1002861D2*
X2037374D1*
X2417206D2*
X3019202D1*
X4200256D2*
X4270017D1*
X2001273Y962992D2*
X2186652D1*
X2354768D2*
X2994693D1*
X4200256D2*
X4270017D1*
X2001273Y923123D2*
X2226556D1*
X2394635D2*
X2954825D1*
X4200256D2*
X4270017D1*
X2001273Y883255D2*
X2029766D1*
X2430232D2*
X2914958D1*
X3738570D2*
X3818127D1*
X4200256D2*
X4270017D1*
X2436009Y843386D2*
X2732594D1*
X3738570D2*
X4270017D1*
X2436009Y803517D2*
X2693983D1*
X3738570D2*
X4270017D1*
X2003175Y763648D2*
X2029157D1*
X2436009D2*
X2481298D1*
X2611160D2*
X2686375D1*
X3738570D2*
X4270017D1*
X2003175Y723780D2*
X2267535D1*
X2430735D2*
X2470676D1*
X2621782D2*
X2698936D1*
X3740651D2*
X4270017D1*
X2004718Y683911D2*
X2080436D1*
X2404719D2*
X2454277D1*
X3740651D2*
X4270017D1*
X2028042Y644042D2*
X2057147D1*
X2428043D2*
X2454277D1*
X3740651D2*
X4270017D1*
X2028509Y604173D2*
X2056644D1*
X3521577D2*
X3566471D1*
X3740651D2*
X4117007D1*
X2406692Y564304D2*
X2454277D1*
X3136684D2*
X4090165D1*
X3096816Y524436D2*
X4081230D1*
X3056950Y484567D2*
X4085967D1*
X4171136Y1126000D2*
Y1079697D1*
X4026416D1*
X4052661Y1053427D1*
X4196269Y1053434D1*
Y879369D1*
X4098556D1*
X4098550Y877319D1*
X3822122D1*
Y914387D1*
X3735953Y914419D1*
X3734558Y906127D1*
Y755521D1*
X3736655Y755490D1*
Y581424D1*
X3570463D1*
Y611890D1*
X3517606Y611899D1*
X3517579Y585549D1*
X3353480D1*
X3353514Y581413D1*
X3149801D1*
X3019394Y451018D1*
X4105797Y451024D1*
X4102266Y456567D1*
X4097836Y464612D1*
X4094034Y472971D1*
X4090881Y481597D1*
X4088395Y490438D1*
X4086593Y499444D1*
X4085484Y508560D1*
X4085075Y517736D1*
X4085367Y526915D1*
X4086361Y536046D1*
X4088049Y545073D1*
X4090421Y553945D1*
X4093465Y562610D1*
X4097160Y571018D1*
X4101488Y579118D1*
X4106423Y586865D1*
X4111934Y594211D1*
X4117991Y601115D1*
X4124558Y607537D1*
X4131594Y613437D1*
X4139063Y618783D1*
X4146917Y623543D1*
X4155113Y627689D1*
X4163600Y631196D1*
X4172332Y634045D1*
X4181255Y636219D1*
X4190318Y637705D1*
X4199469Y638493D1*
X4208652Y638580D1*
X4217815Y637966D1*
X4226906Y636654D1*
X4235867Y634651D1*
X4244652Y631969D1*
X4253205Y628623D1*
X4261478Y624634D1*
X4269421Y620025D1*
X4274004Y616875D1*
X4274016Y1561052D1*
X4184677Y1561024D1*
X4184705Y1162793D1*
X4184008Y1153938D1*
X4181934Y1145302D1*
X4178535Y1137097D1*
X4173895Y1129524D1*
X4171133Y1126021D1*
X3094459Y1475609D2*
X3312488D1*
Y1309417D1*
X3177097D1*
X3177114Y1232131D1*
X3313846Y1232164D1*
Y1151030D1*
X3331378Y1151003D1*
X3331403Y1166672D1*
X3424810D1*
X3424780Y1318465D1*
X3590971D1*
Y1285487D1*
X3599861Y1281862D1*
X3607434Y1277222D1*
X3614199Y1271441D1*
X3683722Y1201671D1*
X3685902Y1199026D1*
X3693815Y1203058D1*
X3702262Y1205803D1*
X3711034Y1207192D1*
X3733848Y1207366D1*
X3803499D1*
X3806097Y1210446D1*
X3799849Y1209203D1*
X3793524Y1208454D1*
X3787159Y1208205D1*
X3780793Y1208454D1*
X3774467Y1209203D1*
X3768219Y1210446D1*
X3762089Y1212175D1*
X3756113Y1214379D1*
X3750327Y1217047D1*
X3744769Y1220159D1*
X3739472Y1223698D1*
X3734470Y1227642D1*
X3729793Y1231966D1*
X3725469Y1236644D1*
X3721525Y1241646D1*
X3717986Y1246942D1*
X3714873Y1252501D1*
X3712206Y1258286D1*
X3710001Y1264262D1*
X3708273Y1270392D1*
X3707030Y1276640D1*
X3706281Y1282967D1*
X3706031Y1289332D1*
X3706281Y1295697D1*
X3707030Y1302024D1*
X3708273Y1308270D1*
X3710001Y1314402D1*
X3712206Y1320378D1*
X3714873Y1326163D1*
X3717986Y1331720D1*
X3721525Y1337017D1*
X3725469Y1342020D1*
X3729793Y1346698D1*
X3734470Y1351022D1*
X3739472Y1354966D1*
X3744769Y1358504D1*
X3750327Y1361617D1*
X3756113Y1364283D1*
X3762089Y1366488D1*
X3768219Y1368218D1*
X3774467Y1369461D1*
X3780793Y1370210D1*
X3787159Y1370459D1*
X3793524Y1370210D1*
X3799849Y1369461D1*
X3806097Y1368218D1*
X3812228Y1366488D1*
X3818205Y1364283D1*
X3823990Y1361617D1*
X3829547Y1358504D1*
X3834844Y1354966D1*
X3839846Y1351022D1*
X3845217Y1345949D1*
X4071541Y1345932D1*
X4071505Y1539840D1*
X4032388Y1501024D1*
X4024088Y1494993D1*
X4014948Y1490336D1*
X4005190Y1487165D1*
X3995058Y1485560D1*
X3971555Y1485360D1*
X2193816D1*
X2193793Y1239479D1*
X2215446Y1239484D1*
Y1169976D1*
X2223520Y1171874D1*
X2232374Y1172571D1*
X2247051D1*
X2247030Y1229579D1*
X2413222D1*
Y1200406D1*
X2431448Y1218399D1*
X2438633Y1223619D1*
X2446546Y1227651D1*
X2454993Y1230396D1*
X2463765Y1231785D1*
X2480587Y1231959D1*
X2480602Y1258455D1*
X2654668D1*
Y1092264D1*
X2480602D1*
Y1107730D1*
X2445576Y1072932D1*
X2438391Y1067711D1*
X2430478Y1063680D1*
X2422030Y1060934D1*
X2413241Y1059545D1*
X2413222Y1002364D1*
X2311419D1*
X2418462Y895042D1*
X2423682Y887857D1*
X2427714Y879944D1*
X2430459Y871496D1*
X2431848Y862724D1*
X2432022Y839911D1*
X2431848Y743190D1*
X2430459Y734419D1*
X2427714Y725971D1*
X2423682Y718058D1*
X2418462Y710873D1*
X2402453Y694618D1*
X2395983Y688147D1*
X2402058Y682610D1*
X2406541Y677761D1*
X2410629Y672576D1*
X2414298Y667085D1*
X2417524Y661324D1*
X2420289Y655327D1*
X2422575Y649131D1*
X2424367Y642776D1*
X2425655Y636299D1*
X2426432Y629741D1*
X2426690Y623143D1*
X2426432Y616545D1*
X2425655Y609987D1*
X2424367Y603510D1*
X2422575Y597155D1*
X2420289Y590959D1*
X2417524Y584962D1*
X2414298Y579201D1*
X2410629Y573710D1*
X2406541Y568525D1*
X2402058Y563676D1*
X2397209Y559193D1*
X2392024Y555105D1*
X2386533Y551436D1*
X2380772Y548210D1*
X2374774Y545445D1*
X2368579Y543159D1*
X2362223Y541366D1*
X2355747Y540079D1*
X2349189Y539302D1*
X2342591Y539043D1*
X2335992Y539302D1*
X2329434Y540079D1*
X2322958Y541366D1*
X2316602Y543159D1*
X2307151Y546946D1*
X2304337Y541806D1*
X2298307Y533507D1*
X2294807Y529723D1*
X2301379Y529199D1*
X2458301D1*
X2458280Y584864D1*
X2454934Y591638D1*
X2452189Y600085D1*
X2450801Y608857D1*
Y617739D1*
X2452189Y626510D1*
X2454934Y634958D1*
X2456803Y639009D1*
X2458280Y645688D1*
Y700331D1*
X2479415D1*
X2476608Y709307D1*
X2474850Y720404D1*
Y731640D1*
X2476608Y742738D1*
X2480080Y753423D1*
X2485181Y763433D1*
X2491785Y772522D1*
X2499730Y780467D1*
X2508819Y787071D1*
X2518829Y792172D1*
X2529514Y795644D1*
X2540612Y797402D1*
X2551848D1*
X2562945Y795644D1*
X2573630Y792172D1*
X2583640Y787071D1*
X2592730Y780467D1*
X2600675Y772522D1*
X2607278Y763433D1*
X2612379Y753423D1*
X2615852Y742738D1*
X2617609Y731640D1*
Y720404D1*
X2615852Y709307D1*
X2613010Y700332D1*
X2717543Y700331D1*
X2719719Y704282D1*
X2714870Y708765D1*
X2710387Y713614D1*
X2706299Y718799D1*
X2702630Y724290D1*
X2699404Y730051D1*
X2696639Y736049D1*
X2694353Y742244D1*
X2692560Y748600D1*
X2691273Y755076D1*
X2690496Y761634D1*
X2690238Y768232D1*
X2690496Y774831D1*
X2691273Y781388D1*
X2692560Y787865D1*
X2694353Y794220D1*
X2696639Y800416D1*
X2699404Y806413D1*
X2702630Y812175D1*
X2706299Y817665D1*
X2710387Y822850D1*
X2714870Y827699D1*
X2719719Y832182D1*
X2724904Y836270D1*
X2730395Y839940D1*
X2736156Y843165D1*
X2742154Y845930D1*
X2748349Y848217D1*
X2754705Y850009D1*
X2761181Y851297D1*
X2767739Y852073D1*
X2774337Y852332D1*
X2780936Y852073D1*
X2787493Y851297D1*
X2793970Y850009D1*
X2800325Y848217D1*
X2806521Y845930D1*
X2812518Y843165D1*
X2818280Y839940D1*
X2824318Y835840D1*
X2830395Y839940D1*
X2836156Y843165D1*
X2842154Y845930D1*
X2848349Y848217D1*
X2854705Y850009D1*
X2861181Y851297D1*
X2867739Y852073D1*
X2874337Y852332D1*
X2880936Y852073D1*
X2887058Y851348D1*
X3019476Y983528D1*
X3022980Y986289D1*
X3023214Y1013560D1*
Y1023584D1*
X3331423D1*
X3331403Y1037815D1*
X3283768Y1037978D1*
X3274996Y1039366D1*
X3266549Y1042112D1*
X3258635Y1046143D1*
X3251450Y1051364D1*
X3244457Y1058110D1*
X3092549Y1058098D1*
X3092558Y1055312D1*
X2926366D1*
Y1229378D1*
X3037428D1*
X3037419Y1232164D1*
X3063937D1*
X3064089Y1344692D1*
X3065478Y1353463D1*
X3068223Y1361911D1*
X3072255Y1369824D1*
X3077475Y1377009D1*
X3085287Y1385068D1*
X3085273Y1475609D1*
X3094459D1*
X3364602Y1022113D2*
Y861997D1*
X3376634Y861976D1*
X3376600Y931568D1*
X3368804Y931583D1*
Y1022118D1*
X3364634Y1022134D1*
X1870748Y1297896D2*
X2027753D1*
Y1094303D1*
X1999226D1*
X1999016Y1027904D1*
X1997622Y1019115D1*
X1997277Y1015886D1*
Y879705D1*
X1998493Y873978D1*
X1999190Y865106D1*
Y685379D1*
X2006541Y677761D1*
X2010629Y672576D1*
X2014298Y667085D1*
X2017524Y661324D1*
X2020289Y655327D1*
X2022575Y649131D1*
X2024367Y642776D1*
X2025655Y636299D1*
X2026432Y629741D1*
X2026690Y623143D1*
X2026432Y616545D1*
X2025655Y609987D1*
X2023562Y600655D1*
X2061564Y600675D1*
X2059526Y609987D1*
X2058749Y616545D1*
X2058491Y623143D1*
X2058749Y629741D1*
X2059526Y636299D1*
X2060814Y642776D1*
X2062606Y649131D1*
X2064892Y655327D1*
X2067657Y661324D1*
X2070883Y667085D1*
X2074552Y672576D1*
X2078640Y677761D1*
X2083123Y682610D1*
X2087972Y687093D1*
X2093157Y691181D1*
X2098648Y694850D1*
X2104409Y698076D1*
X2110407Y700841D1*
X2116602Y703127D1*
X2122958Y704920D1*
X2129434Y706207D1*
X2135992Y706984D1*
X2142591Y707243D1*
X2149189Y706984D1*
X2155747Y706207D1*
X2162223Y704920D1*
X2168579Y703127D1*
X2174774Y700841D1*
X2180772Y698076D1*
X2186533Y694850D1*
X2192571Y690751D1*
X2198648Y694850D1*
X2204409Y698076D1*
X2210407Y700841D1*
X2216602Y703127D1*
X2222958Y704920D1*
X2229434Y706207D1*
X2235992Y706984D1*
X2242591Y707243D1*
X2254133Y706399D1*
X2286958Y739211D1*
X2279434Y740079D1*
X2272958Y741366D1*
X2266602Y743159D1*
X2260407Y745445D1*
X2254409Y748210D1*
X2248648Y751436D1*
X2242610Y755535D1*
X2236533Y751436D1*
X2230772Y748210D1*
X2224774Y745445D1*
X2218579Y743159D1*
X2212223Y741366D1*
X2205747Y740079D1*
X2199189Y739302D1*
X2192591Y739043D1*
X2185992Y739302D1*
X2179434Y740079D1*
X2172958Y741366D1*
X2166602Y743159D1*
X2160407Y745445D1*
X2154409Y748210D1*
X2148648Y751436D1*
X2142610Y755535D1*
X2136533Y751436D1*
X2130772Y748210D1*
X2124774Y745445D1*
X2118579Y743159D1*
X2112223Y741366D1*
X2105747Y740079D1*
X2099189Y739302D1*
X2092591Y739043D1*
X2085992Y739302D1*
X2079434Y740079D1*
X2072958Y741366D1*
X2066602Y743159D1*
X2060407Y745445D1*
X2054409Y748210D1*
X2048648Y751436D1*
X2043157Y755105D1*
X2037972Y759193D1*
X2033123Y763676D1*
X2028640Y768525D1*
X2024552Y773710D1*
X2020883Y779201D1*
X2017657Y784962D1*
X2014892Y790959D1*
X2012606Y797155D1*
X2010814Y803510D1*
X2009526Y809987D1*
X2008749Y816545D1*
X2008491Y823143D1*
X2008749Y829741D1*
X2009526Y836299D1*
X2010814Y842776D1*
X2012606Y849131D1*
X2014892Y855327D1*
X2017657Y861324D1*
X2020883Y867085D1*
X2024552Y872576D1*
X2028640Y877761D1*
X2033123Y882610D1*
X2037972Y887093D1*
X2043157Y891181D1*
X2048648Y894850D1*
X2054409Y898076D1*
X2060407Y900841D1*
X2066602Y903127D1*
X2072958Y904920D1*
X2079434Y906207D1*
X2085992Y906984D1*
X2092591Y907243D1*
X2099189Y906984D1*
X2105747Y906207D1*
X2112223Y904920D1*
X2118579Y903127D1*
X2124774Y900841D1*
X2130772Y898076D1*
X2136533Y894850D1*
X2142571Y890751D1*
X2148648Y894850D1*
X2154409Y898076D1*
X2160407Y900841D1*
X2166602Y903127D1*
X2172958Y904920D1*
X2179434Y906207D1*
X2185992Y906984D1*
X2192591Y907243D1*
X2199189Y906984D1*
X2205747Y906207D1*
X2212223Y904920D1*
X2218579Y903127D1*
X2224774Y900841D1*
X2230772Y898076D1*
X2236533Y894850D1*
X2242571Y890751D1*
X2248648Y894850D1*
X2255230Y898454D1*
X2190591Y963071D1*
X2041381Y963056D1*
Y1239484D1*
X2063018D1*
X2063034Y1470123D1*
X1587459Y1470109D1*
X1585152Y1469148D1*
X1587988Y1464207D1*
X1591387Y1456003D1*
X1593463Y1447349D1*
X1598339Y1439841D1*
X1603416Y1429874D1*
X1606873Y1419236D1*
X1608623Y1408188D1*
X1608843Y1384222D1*
X1608623Y1357631D1*
X1606873Y1346583D1*
X1603416Y1335945D1*
X1598339Y1325978D1*
X1591764Y1316929D1*
X1583853Y1309018D1*
X1582703Y1308112D1*
X1582705Y1150175D1*
X1580875D1*
X1580849Y1131021D1*
X1675010Y1131055D1*
X1675004Y1215647D1*
X1679848D1*
X1679835Y1303853D1*
X1853900D1*
Y1266570D1*
X1861566D1*
X1861562Y1297896D1*
X1870748D1*
D24*
X1022336Y1489051D3*
Y1296138D3*
D25*
X1325920Y915558D3*
Y1025794D3*
D24*
X1025273Y1130076D3*
Y937163D3*
D25*
X1378394Y1826232D3*
Y1715996D3*
X3942127Y3028197D3*
Y2917961D3*
D26*
X1607990Y1134668D3*
X1497753D3*
D25*
X1269923Y538902D3*
Y649138D3*
D24*
X1022336Y744664D3*
Y551751D3*
D25*
X3802706Y3516378D3*
Y3626614D3*
D28*
X3931545Y1162793D3*
X4069340D3*
X3632761Y832218D3*
X3770556D3*
D26*
X3653559Y668457D3*
X3763795D3*
D30*
X3198881Y1392513D3*
X3005967D3*
D28*
X3262806Y940488D3*
X3125010D3*
D26*
X1988230Y3799577D3*
X1877993D3*
D25*
X1800423Y4174520D3*
Y4064283D3*
D26*
X2246192Y4208811D3*
X2356428D3*
D24*
X2330126Y1115971D3*
Y1308885D3*
D25*
X2567635Y1285596D3*
Y1175360D3*
D32*
X1944657Y1196100D3*
Y1333895D3*
D26*
X2541375Y613298D3*
X2651612D3*
D33*
X463295Y2667551D3*
D34*
X760772Y2861696D3*
X728289Y2775642D3*
X630915Y2482974D3*
D33*
X898929Y2517864D3*
D35*
X1138903Y1933307D3*
D36*
Y2012047D3*
D26*
X3270419Y668446D3*
X3160182D3*
D25*
X2128413Y1156388D3*
Y1046152D3*
D33*
X461720Y2130322D3*
D34*
X759197Y2324466D3*
X726714Y2238412D3*
X629340Y1945744D3*
D33*
X897354Y1980634D3*
D37*
X3332782Y2385976D3*
X3913912Y4122690D3*
X1632782Y2385976D3*
X1732782D3*
X2876551Y599736D3*
X3713913Y4222690D3*
X1832782Y2385976D3*
X3713913Y4122690D3*
X1932782Y2385976D3*
X2178598Y2063018D3*
D38*
X1634213Y4216587D3*
D37*
X3913912Y4222690D3*
X2178598Y2163018D3*
X2863913Y4222690D3*
X2078598Y2063018D3*
Y2163018D3*
X3167522Y2508673D3*
X2863913Y4122690D3*
X1978598Y2063018D3*
Y2163018D3*
X3271798Y2507542D3*
X2032782Y2385976D3*
X2963912Y4222690D3*
X2132782Y2385976D3*
X2733509Y1276437D3*
X2232782Y2385976D3*
X1412671Y506063D3*
X2332782Y2385976D3*
X1270510Y764469D3*
X2432782Y2385976D3*
X1449945Y956654D3*
X2532782Y2385976D3*
X1024552Y1636886D3*
X3063912Y4122690D3*
X2632782Y2385976D3*
X3263912Y4122690D3*
X2732782Y2385976D3*
X3163913Y4222690D3*
X2832782Y2385976D3*
X2963912Y4122690D3*
X2932782Y2385976D3*
X3063912Y4222690D3*
X3032782Y2385976D3*
X3163913Y4122690D3*
X3132782Y2385976D3*
X3263912Y4222690D3*
X3232782Y2385976D3*
X3432782D3*
X3299058Y3464675D3*
X3532782Y2385976D3*
X3299058Y3364675D3*
X3632782Y2385976D3*
X3299058Y3264675D3*
X3732782Y2385976D3*
X3299058Y3164675D3*
X3832782Y2385976D3*
X3299058Y3064675D3*
X3932782Y2385976D3*
X3299058Y2964675D3*
X1632782Y1785976D3*
X3299058Y2864675D3*
X1732782Y1785976D3*
X3299058Y2764675D3*
X1832782Y1785976D3*
X2799058Y3664675D3*
X1932782Y1785976D3*
X2899058Y3664675D3*
X2032782Y1785976D3*
X2999058Y3664675D3*
X2132782Y1785976D3*
X3099058Y3664675D3*
X2232782Y1785976D3*
X3199058Y3664675D3*
X2332782Y1785976D3*
X3299058Y3664675D3*
X2432782Y1785976D3*
X2224307Y3663585D3*
X2532782Y1785976D3*
X1724307Y3663585D3*
X2632782Y1785976D3*
X1824307Y3663585D3*
X2732782Y1785976D3*
X1924307Y3663585D3*
X2832782Y1785976D3*
D38*
X1634213Y4016587D3*
D37*
X2932782Y1785976D3*
X2024307Y3663585D3*
X3032782Y1785976D3*
X2124307Y3663585D3*
X3132782Y1785976D3*
X2224307Y2663585D3*
X3232782Y1785976D3*
X1724307Y2663585D3*
X3332782Y1785976D3*
X1824307Y2663585D3*
X3432782Y1785976D3*
X1924307Y2663585D3*
X3813912Y4222690D3*
X3532782Y1785976D3*
X3632782D3*
X2024307Y2663585D3*
X4113912Y4122690D3*
X3732782Y1785976D3*
X4013913Y4222690D3*
X3832782Y1785976D3*
X3932782D3*
X2124307Y2663585D3*
X3230026Y1631055D3*
D38*
X1434213Y4016587D3*
D37*
X3330026Y1631055D3*
X3430026D3*
X1882782Y1885976D3*
X1324476Y3057188D3*
X2282782Y1885976D3*
X1324478Y3155312D3*
X1982782Y1885976D3*
D38*
X1434213Y4216587D3*
D37*
X2082782Y1885976D3*
D38*
X1534213Y4116587D3*
X1247908Y4223033D3*
D37*
X2182782Y1885976D3*
D38*
X1247908Y4023033D3*
X1047908D3*
D37*
X4216198Y3712331D3*
Y3612331D3*
Y3512331D3*
Y3412331D3*
Y3312331D3*
X3813912Y4122690D3*
X3299058Y2664675D3*
X4013913Y4122690D3*
X4113912Y4222690D3*
X4116198Y3712331D3*
Y3612331D3*
Y3412331D3*
Y3512331D3*
Y3312331D3*
X1322287Y3254297D3*
X4190038Y2988339D3*
X4071928D3*
D38*
X1047908Y4223033D3*
X1147908Y4123033D3*
D37*
X1111602Y2924975D3*
Y3113205D3*
Y3019091D3*
X3130026Y1631055D3*
X508434Y3683163D3*
X608434D3*
X3839560Y2546248D3*
X3940207Y2543017D3*
X529993Y1491390D3*
Y1391390D3*
X508434Y3783161D3*
X529993Y1291390D3*
X608434Y3883161D3*
X529993Y1191390D3*
X608434Y4083161D3*
X529993Y1091390D3*
X508434Y3983163D3*
X529993Y991390D3*
Y891390D3*
X1111602Y2830861D3*
X629993Y891390D3*
X608434Y3783161D3*
X629993Y991390D3*
X508434Y3883161D3*
X629993Y1091390D3*
X608434Y3983163D3*
X629993Y1191390D3*
X508434Y4083161D3*
X629993Y1291390D3*
X1232783Y2198184D3*
X629993Y1391390D3*
X1111602Y2736745D3*
X629993Y1491390D3*
Y1591390D3*
X529993D3*
D39*
X1149597Y3844336D3*
X1529430Y3831537D3*
X3481665Y2732430D3*
X1161907Y2337325D3*
X3787159Y1289332D3*
D37*
X3914346Y758276D3*
D96*
X1487558Y1382909D3*
D40*
X1537558D3*
X1587558D3*
D42*
X3715475Y1100034D3*
X3640672D3*
X3678073Y1009483D3*
X3470601Y1094403D3*
X3395798D3*
X3433199Y1003852D3*
D26*
X1499609Y1237207D3*
X1609845D3*
D25*
X1325252Y1255906D3*
Y1145669D3*
X1316734Y1507113D3*
Y1396877D3*
X3699214Y3516343D3*
Y3626579D3*
X1834029Y3341205D3*
Y3451441D3*
X1972709Y3338516D3*
Y3448752D3*
X2120448Y3343853D3*
Y3454089D3*
D26*
X4015454Y964352D3*
X3905218D3*
X4113173Y966402D3*
X4223409D3*
X3120514Y1145131D3*
X3230751D3*
X2899226Y1142345D3*
X3009462D3*
X3397639Y1231432D3*
X3507875D3*
D25*
X3430546Y668644D3*
Y778881D3*
X1970601Y4208811D3*
Y4098575D3*
X2088711Y4208811D3*
Y4098575D3*
X1766867Y1330993D3*
Y1220757D3*
X1762037Y1132551D3*
Y1022315D3*
D37*
X2674337Y768232D3*
X2774337D3*
X2874337D3*
D33*
X462579Y3186934D3*
D34*
X760055Y3381079D3*
X727572Y3295025D3*
X630198Y3002357D3*
D33*
X898213Y3037247D3*
D37*
X1642591Y623143D3*
X1692591Y823143D3*
X1742591Y623143D3*
X1792591Y823143D3*
X1842591Y623143D3*
X1892591Y823143D3*
X1942591Y623143D3*
X1992591Y823143D3*
X2042591Y623143D3*
X2092591Y823143D3*
X2142591Y623143D3*
X2192591Y823143D3*
X2242591Y623143D3*
X2292591Y823143D3*
X2342591Y623143D3*
D44*
X3522480Y3169927D3*
X3572480D3*
X3622480D3*
X3672480D3*
X3722480D3*
X3772480D3*
X3822480D3*
Y3382525D3*
X3772480D3*
X3722480D3*
X3672480D3*
X3622480D3*
X3572480D3*
X3522480D3*
D45*
X2075470Y3895705D3*
Y3915390D3*
Y3935075D3*
Y3954760D3*
Y3974445D3*
X1902241D3*
Y3954760D3*
Y3935075D3*
Y3915390D3*
Y3895705D3*
D47*
X2364302Y4090701D3*
Y3842669D3*
M02*
